<svg width="986" height="113" viewBox="0 0 986 113" fill="none" xmlns="http://www.w3.org/2000/svg">
<path d="M535.994 16.9033H297.309V107.545H535.994V16.9033Z" fill="#F38844"/>
<path d="M379.309 47.2129H312.829V107.547H379.309V47.2129Z" fill="#ACACAC"/>
<path d="M379.309 47.2129H376.477V107.547H379.309V47.2129Z" fill="#B2BFDF"/>
<path d="M461.954 47.2129H395.474V107.547H461.954V47.2129Z" fill="#ACACAC"/>
<path d="M461.954 47.2129H459.122V107.547H461.954V47.2129Z" fill="#B2BFDF"/>
<path d="M500.223 28.3809H484.261V38.5102H500.223V28.3809Z" fill="#2C2C2C" fill-opacity="0.66"/>
<path d="M521.149 28.3809H505.187V38.5102H521.149V28.3809Z" fill="#2C2C2C" fill-opacity="0.66"/>
<path d="M169.741 107.544H297.314V16.9023L233.518 0L169.741 16.9023V107.544Z" fill="#F38844" fill-opacity="0.38"/>
<path opacity="0.3" d="M169.521 50.6074H189.585V75.348H205.327V65.0176H291.099V110.64H169.742V50.6074" fill="#39548B"/>
<path d="M233.52 0H473.989L536 16.9023H297.315L233.52 0Z" fill="#82B440"/>
<path opacity="0.3" d="M360.944 86.8849V86.8648H368.576V80.2727V78.8056V72.1934H360.944H359.602H351.951V78.8056V80.2727V86.8648H359.602V86.8849H358.737H356.843H346.067V93.3967H344.393H338.692H337.405H330.012V99.7677V101.195V107.566H337.405H338.692H342.701H346.067V107.546H356.843V107.566H358.737V107.546H369.514V98.2603V96.1903V86.8849H360.944Z" fill="#39548B"/>
<g opacity="0.3">
<path d="M436.122 88.6735H431.709H424.242H422.863H416.187V95.5269H406.882V81.8604H395.48V95.5269V95.5671V107.545H416.187H431.709H441.253V88.6735H437.502H436.122Z" fill="#39548B"/>
<path d="M456.428 93.6182H445.026V107.325H456.428V93.6182Z" fill="#39548B"/>
</g>
<path d="M843.007 88.0386L946.488 88.0386V45.0001L843.007 45.0001V88.0386Z" fill="#F1CA89"/>
<path d="M843.007 94.6309L946.488 94.6309V88.0293L843.007 88.0293V94.6309Z" fill="#3F423C"/>
<path d="M887.298 100.464C887.32 100.142 887.341 99.8209 887.341 99.478C887.341 93.4552 882.454 88.5684 876.432 88.5684C870.409 88.5684 865.522 93.4552 865.522 99.478C865.522 99.7995 865.543 100.142 865.565 100.464H887.298Z" fill="#688A3A"/>
<path d="M883.174 106.268C886.891 102.552 886.891 96.5263 883.174 92.81C879.458 89.0936 873.432 89.0936 869.716 92.81C866 96.5264 866 102.552 869.716 106.268C873.432 109.985 879.458 109.985 883.174 106.268Z" fill="#3F423C"/>
<path d="M877.968 103.162C879.969 102.333 880.919 100.038 880.09 98.0368C879.261 96.0354 876.967 95.085 874.965 95.914C872.964 96.743 872.014 99.0375 872.843 101.039C873.672 103.04 875.966 103.991 877.968 103.162Z" fill="#CAD2EA"/>
<path d="M876.451 97.3153C876.747 97.3153 876.987 97.0754 876.987 96.7795C876.987 96.4836 876.747 96.2437 876.451 96.2437C876.156 96.2437 875.916 96.4836 875.916 96.7795C875.916 97.0754 876.156 97.3153 876.451 97.3153Z" fill="#3F423C"/>
<path d="M876.987 102.33C876.987 102.63 876.752 102.866 876.451 102.866C876.151 102.866 875.916 102.63 875.916 102.33C875.916 102.03 876.151 101.794 876.451 101.794C876.73 101.794 876.987 102.03 876.987 102.33Z" fill="#3F423C"/>
<path d="M878.403 98.1068C878.699 98.1068 878.939 97.8669 878.939 97.571C878.939 97.2751 878.699 97.0352 878.403 97.0352C878.107 97.0352 877.867 97.2751 877.867 97.571C877.867 97.8669 878.107 98.1068 878.403 98.1068Z" fill="#3F423C"/>
<path d="M874.866 101.877C874.652 102.091 874.309 102.091 874.116 101.877C873.901 101.662 873.901 101.319 874.116 101.126C874.33 100.934 874.673 100.912 874.866 101.126C875.059 101.341 875.059 101.684 874.866 101.877Z" fill="#3F423C"/>
<path d="M879.216 100.079C878.916 100.079 878.68 99.8437 878.68 99.5436C878.68 99.2436 878.916 99.0078 879.216 99.0078C879.516 99.0078 879.751 99.2436 879.751 99.5436C879.751 99.8437 879.516 100.079 879.216 100.079Z" fill="#3F423C"/>
<path d="M873.665 100.079C873.365 100.079 873.129 99.8437 873.129 99.5436C873.129 99.2436 873.365 99.0078 873.665 99.0078C873.965 99.0078 874.201 99.2436 874.201 99.5436C874.201 99.8437 873.965 100.079 873.665 100.079Z" fill="#3F423C"/>
<path d="M878.039 101.877C877.825 101.663 877.825 101.32 878.039 101.127C878.253 100.934 878.596 100.913 878.789 101.127C879.004 101.341 879.004 101.684 878.789 101.877C878.575 102.091 878.232 102.091 878.039 101.877Z" fill="#3F423C"/>
<path d="M874.481 98.1073C874.777 98.1073 875.017 97.8674 875.017 97.5715C875.017 97.2755 874.777 97.0356 874.481 97.0356C874.185 97.0356 873.945 97.2755 873.945 97.5715C873.945 97.8674 874.185 98.1073 874.481 98.1073Z" fill="#3F423C"/>
<path d="M876.458 100.98C877.251 100.98 877.894 100.337 877.894 99.5435C877.894 98.7504 877.251 98.1074 876.458 98.1074C875.665 98.1074 875.022 98.7504 875.022 99.5435C875.022 100.337 875.665 100.98 876.458 100.98Z" fill="#3F423C"/>
<path d="M900.207 92.5163V96.7387H892.341V98.732H943.01V96.7387H935.144V92.5163H943.01V90.5229H892.341V92.5163H900.207ZM918.083 96.7387V92.5163H934.287V96.7387H918.083ZM901.043 92.5163H917.247V96.7387H901.043V92.5163Z" fill="#B2BFDF"/>
<path d="M845.184 85.7231L944.507 85.7231V46.9071L845.184 46.9071V85.7231Z" fill="#F1CA89"/>
<path d="M846.194 92.5163V96.7387H843V98.732H862.29V96.7387H857.553V92.5163H862.29V90.5229H843V92.5163H846.194ZM847.158 96.7387V92.5163H856.61V96.7387H847.158Z" fill="#B2BFDF"/>
<path d="M946.477 94.623H971.811V87.85H946.477V94.623Z" fill="#688A3A"/>
<path d="M946.488 88.0538V66.8775L947.452 57.2539C947.71 56.2036 948.695 55.4963 949.767 55.6035L969.079 57.5111C970.3 57.6397 971.415 58.3255 972.079 59.3543L981.467 74.1863C982.217 75.3652 982.603 76.7369 982.603 78.1301V96.1128C982.603 97.6346 981.746 99.0277 980.396 99.735C979.817 100.035 979.174 100.185 978.531 100.185H969.014C969.014 93.4765 965.435 88.0324 958.726 88.0324L946.488 88.0538Z" fill="#82B440"/>
<path d="M964.539 101.723H985.072V91.8847H964.539V101.723Z" fill="#3F423C"/>
<path d="M979.879 91.8691V94.6984C979.879 96.4345 978.465 97.8277 976.75 97.8277H966.355V101.986H984.273V91.8906L979.879 91.8691Z" fill="#688A3A"/>
<path d="M972.079 59.355C971.908 60.4267 972.143 61.4983 972.744 62.3985L979.131 72.0222C979.667 72.8152 980.545 73.2868 981.488 73.2868C981.488 73.3082 972.936 59.5264 972.079 59.355Z" fill="#CAD2EA"/>
<path d="M946.488 66.8569C947.345 68.7431 947.795 70.7793 947.795 72.8369V88.6977H945.094V66.8569H946.488Z" fill="#3F423C"/>
<path d="M969.998 100.183C970.02 99.8617 970.041 99.5402 970.041 99.1972C970.041 93.1744 965.155 88.2876 959.132 88.2876C953.109 88.2876 948.222 93.1744 948.222 99.1972C948.222 99.5187 948.243 99.8617 948.265 100.183H969.998Z" fill="#688A3A"/>
<path d="M968.426 101.765C969.633 96.6498 966.466 91.5241 961.351 90.3164C956.236 89.1086 951.111 92.276 949.903 97.3909C948.695 102.506 951.862 107.631 956.977 108.839C962.092 110.047 967.218 106.88 968.426 101.765Z" fill="#3F423C"/>
<path d="M962.982 100.48C963.479 98.3714 962.174 96.2589 960.066 95.7611C957.958 95.2632 955.845 96.5687 955.347 98.6769C954.849 100.785 956.155 102.898 958.263 103.395C960.371 103.893 962.484 102.588 962.982 100.48Z" fill="#CAD2EA"/>
<path d="M959.684 96.7795C959.684 97.0796 959.448 97.3153 959.148 97.3153C958.848 97.3153 958.613 97.0796 958.613 96.7795C958.613 96.4794 958.848 96.2437 959.148 96.2437C959.448 96.2437 959.684 96.4794 959.684 96.7795Z" fill="#3F423C"/>
<path d="M959.684 102.33C959.684 102.63 959.448 102.866 959.148 102.866C958.848 102.866 958.613 102.63 958.613 102.33C958.613 102.03 958.848 101.794 959.148 101.794C959.448 101.794 959.684 102.03 959.684 102.33Z" fill="#3F423C"/>
<path d="M961.483 97.9568C961.269 98.1712 960.926 98.1712 960.733 97.9568C960.519 97.7425 960.519 97.3996 960.733 97.2066C960.947 96.9923 961.29 96.9923 961.483 97.2066C961.676 97.421 961.698 97.7425 961.483 97.9568Z" fill="#3F423C"/>
<path d="M957.562 101.878C957.347 102.092 957.005 102.092 956.812 101.878C956.597 101.664 956.597 101.321 956.812 101.128C957.026 100.935 957.369 100.914 957.562 101.128C957.776 101.342 957.776 101.685 957.562 101.878Z" fill="#3F423C"/>
<path d="M961.912 100.079C961.612 100.079 961.376 99.8437 961.376 99.5436C961.376 99.2436 961.612 99.0078 961.912 99.0078C962.212 99.0078 962.447 99.2436 962.447 99.5436C962.447 99.8437 962.212 100.079 961.912 100.079Z" fill="#3F423C"/>
<path d="M956.361 100.079C956.061 100.079 955.825 99.8437 955.825 99.5436C955.825 99.2436 956.061 99.0078 956.361 99.0078C956.661 99.0078 956.897 99.2436 956.897 99.5436C956.897 99.8437 956.661 100.079 956.361 100.079Z" fill="#3F423C"/>
<path d="M960.735 101.882C960.521 101.668 960.521 101.325 960.735 101.132C960.949 100.918 961.292 100.918 961.485 101.132C961.678 101.346 961.699 101.689 961.485 101.882C961.271 102.096 960.949 102.096 960.735 101.882Z" fill="#3F423C"/>
<path d="M957.177 98.1088C957.473 98.1088 957.713 97.8689 957.713 97.5729C957.713 97.277 957.473 97.0371 957.177 97.0371C956.881 97.0371 956.641 97.277 956.641 97.5729C956.641 97.8689 956.881 98.1088 957.177 98.1088Z" fill="#3F423C"/>
<path d="M959.154 100.975C959.947 100.975 960.59 100.332 960.59 99.5386C960.59 98.7455 959.947 98.1025 959.154 98.1025C958.36 98.1025 957.718 98.7455 957.718 99.5386C957.718 100.332 958.36 100.975 959.154 100.975Z" fill="#3F423C"/>
<path d="M981.891 90.4544H983.219C983.391 90.4544 983.541 90.3043 983.541 90.1329V85.3318C983.541 85.1603 983.391 85.0103 983.219 85.0103H981.891C981.269 85.0103 980.776 85.5032 980.776 86.1248V89.3184C980.776 89.94 981.269 90.4544 981.891 90.4544Z" fill="white"/>
<path d="M951.715 60.5314C951.715 59.8027 952.358 59.224 953.086 59.3097L967.04 60.8315C968.068 60.9601 968.99 61.5388 969.526 62.3961L976.149 72.77C976.535 73.3701 975.977 74.1417 975.292 73.9488H965.325C964.832 73.9488 964.339 73.7988 963.91 73.5416L952.786 66.5114C952.143 66.1041 951.736 65.3754 951.736 64.6038V60.5314H951.715Z" fill="#CAD2EA"/>
<mask id="mask0_1_1188" style="mask-type:alpha" maskUnits="userSpaceOnUse" x="956" y="58" width="14" height="18">
<path d="M956.368 58.769L963.056 75.4443H969.593L963.999 59.9265L956.368 58.769Z" fill="url(#paint0_linear_1_1188)"/>
</mask>
<g mask="url(#mask0_1_1188)">
<path d="M956.367 58.7744L963.054 75.4497H969.591L963.997 59.9318L956.367 58.7744Z" fill="url(#paint1_linear_1_1188)"/>
<path opacity="0.54" d="M951.715 60.5319L965.989 62.2466C966.933 62.3537 967.768 62.8681 968.283 63.6612L975.57 74.5923H977.756L968.369 60.3604L951.715 58.5386V60.5319" fill="#8296C9"/>
</g>
<path d="M978.142 90.5404H969.954C969.504 90.5404 969.054 90.4118 968.668 90.1546L967.254 89.2329C964.489 87.4539 961.295 86.5109 957.994 86.5109H951.007C950.193 86.5109 949.528 85.8464 949.528 85.032V59.0117C949.528 58.5616 949.721 58.1544 950.043 57.8543C950.364 57.5542 950.814 57.4256 951.243 57.4685L967.511 59.2689C968.861 59.4189 970.061 60.1477 970.812 61.2622L978.828 73.2007C979.149 73.6722 979.321 74.2295 979.321 74.8082V89.3401C979.342 90.0045 978.806 90.5404 978.142 90.5404ZM951.093 57.6614C950.771 57.6614 950.45 57.79 950.193 58.0043C949.914 58.2615 949.743 58.6259 949.743 59.0117V85.032C949.743 85.7393 950.321 86.318 951.029 86.318H958.016C961.338 86.318 964.575 87.2825 967.382 89.0829L968.797 90.0045C969.161 90.2403 969.568 90.3475 969.976 90.3475H978.163C978.699 90.3475 979.149 89.8974 979.149 89.3615V74.8296C979.149 74.2938 978.999 73.7794 978.699 73.3293L970.683 61.3908C969.954 60.3191 968.818 59.6333 967.532 59.4832L951.264 57.6828C951.179 57.6614 951.136 57.6614 951.093 57.6614Z" fill="#3F423C"/>
<path d="M954.627 76.5457H957.371C957.778 76.5457 958.099 76.3314 958.099 76.0742V75.4526H952.569L952.955 75.9027C953.298 76.31 953.941 76.5457 954.627 76.5457Z" fill="#CAD2EA"/>
<path d="M952.87 75.6886H957.799C957.949 75.6886 958.099 75.56 958.099 75.3886V74.617C958.099 74.4669 957.971 74.3169 957.799 74.3169H952.87C952.719 74.3169 952.569 74.4455 952.569 74.617V75.3886C952.591 75.56 952.719 75.6886 952.87 75.6886Z" fill="#3F423C"/>
<path d="M973.683 86.8331H976.32C976.77 86.8331 977.134 86.4688 977.134 86.0187V85.8472C977.134 85.3971 976.77 85.0327 976.32 85.0327H973.683C973.233 85.0327 972.869 85.3971 972.869 85.8472V86.0187C972.847 86.4688 973.233 86.8331 973.683 86.8331Z" fill="white"/>
<path d="M974.663 73.1979C974.663 73.7337 975.092 74.1624 975.628 74.1624C976.164 74.1624 976.592 73.7337 976.592 73.1979C976.592 72.6621 976.164 72.2334 975.628 72.2334C975.092 72.2334 974.663 72.6621 974.663 73.1979Z" fill="#688A3A"/>
<path d="M974.471 76.7362H974.943C975.414 76.7362 975.779 76.3504 975.779 75.9003V70.5205C975.779 70.0489 975.393 69.6846 974.943 69.6846H974.471V76.7362Z" fill="#3F423C"/>
<path d="M300.675 89.5059H291.369V101.041H300.675V89.5059Z" fill="#F1CA89"/>
<path d="M307.823 89.5059H300.675V101.041H307.823V89.5059Z" fill="#EFA856"/>
<path d="M297.494 89.5059H295.191V91.8093H297.494V89.5059Z" fill="#F2F3F7"/>
<path d="M300.675 77.9692H291.369V89.5048H300.675V77.9692Z" fill="#F1CA89"/>
<path d="M307.823 77.9692H300.675V89.5048H307.823V77.9692Z" fill="#F1B873"/>
<path d="M297.494 77.9692H295.191V80.2727H297.494V77.9692Z" fill="#F2F3F7"/>
<path d="M300.675 89.5789H292.065C292.028 89.5789 292.01 89.5424 292.01 89.5241C292.01 89.5058 292.047 89.4692 292.065 89.4692H300.675C300.712 89.4692 300.73 89.5058 300.73 89.5241C300.73 89.5424 300.712 89.5789 300.675 89.5789Z" fill="#E5A251"/>
<path d="M307.841 89.5789H301.388C301.351 89.5789 301.333 89.5424 301.333 89.5241C301.333 89.5058 301.37 89.4692 301.388 89.4692H307.841C307.878 89.4692 307.896 89.5058 307.896 89.5241C307.896 89.5424 307.878 89.5789 307.841 89.5789Z" fill="#E5A251"/>
<path d="M317.13 89.5059H307.824V101.041H317.13V89.5059Z" fill="#F1CA89"/>
<path d="M324.276 89.5059H317.128V101.041H324.276V89.5059Z" fill="#F1B873"/>
<path d="M319.667 89.9976H317.62V92.9409H319.667V89.9976Z" fill="#EFA856"/>
<path d="M313.949 89.5059H311.646V91.8093H313.949V89.5059Z" fill="#F2F3F7"/>
<path d="M317.166 81.1328H310.402V89.5057H317.166V81.1328Z" fill="#F1CA89"/>
<path d="M322.359 81.1328H317.167V89.5057H322.359V81.1328Z" fill="#F1B873"/>
<path d="M314.844 81.1328H313.162V82.8147H314.844V81.1328Z" fill="#F2F3F7"/>
<path d="M317.13 89.5789H308.52C308.483 89.5789 308.465 89.5424 308.465 89.5241C308.465 89.5058 308.502 89.4692 308.52 89.4692H317.13C317.167 89.4692 317.185 89.5058 317.185 89.5241C317.185 89.5424 317.167 89.5789 317.13 89.5789Z" fill="#E5A251"/>
<path d="M324.296 89.5789H317.843C317.806 89.5789 317.788 89.5424 317.788 89.5241C317.788 89.5058 317.825 89.4692 317.843 89.4692H324.296C324.333 89.4692 324.351 89.5058 324.351 89.5241C324.351 89.5424 324.333 89.5789 324.296 89.5789Z" fill="#E5A251"/>
<path d="M309.409 83.2896H304.564V92.9421H309.409V83.2896Z" fill="#F1CA89"/>
<path d="M311.11 83.2896H308.441V92.9421H311.11V83.2896Z" fill="#F1B873"/>
<path d="M307.18 83.2896H306.138V84.7155H307.18V83.2896Z" fill="#F2F3F7"/>
<path d="M304.567 83.7466H304.074V92.9421H304.567V83.7466Z" fill="#EFA856"/>
<path d="M309.542 92.9653H302.778V101.046H309.542V92.9653Z" fill="#F1CA89"/>
<path d="M312.923 92.9448H309.523V101.043H312.923V92.9448Z" fill="#EFA856"/>
<path d="M308.773 93.0194H302.777C302.741 93.0194 302.722 93.0011 302.722 92.9645C302.722 92.928 302.741 92.9097 302.777 92.9097H308.773C308.81 92.9097 308.828 92.928 308.828 92.9645C308.828 93.0011 308.792 93.0194 308.773 93.0194Z" fill="#E5A251"/>
<path d="M306.797 93.0205H305.5V94.5196H306.797V93.0205Z" fill="#F2F3F7"/>
<path d="M302.761 93.6191H302.121V101.041H302.761V93.6191Z" fill="#E5A251"/>
<path d="M330.769 101.04H287.04V102.466H330.769V101.04Z" fill="#343766"/>
<path d="M295.727 105.677C296.001 104.518 295.283 103.356 294.123 103.082C292.964 102.808 291.802 103.526 291.528 104.686C291.254 105.845 291.972 107.007 293.132 107.281C294.291 107.555 295.453 106.837 295.727 105.677Z" fill="#343766"/>
<path d="M293.617 106.228C294.213 106.228 294.696 105.746 294.696 105.15C294.696 104.554 294.213 104.071 293.617 104.071C293.021 104.071 292.538 104.554 292.538 105.15C292.538 105.746 293.021 106.228 293.617 106.228Z" fill="#CAD2EA"/>
<path d="M293.619 105.537C293.107 105.537 292.686 105.116 292.686 104.604V102.447H294.551V104.604C294.551 105.116 294.131 105.537 293.619 105.537Z" fill="#8296C9"/>
<path d="M325.018 107.14C326.118 106.684 326.641 105.422 326.185 104.321C325.729 103.221 324.467 102.698 323.367 103.154C322.266 103.61 321.743 104.872 322.199 105.973C322.655 107.073 323.917 107.596 325.018 107.14Z" fill="#343766"/>
<path d="M324.18 106.227C324.776 106.227 325.259 105.744 325.259 105.148C325.259 104.553 324.776 104.07 324.18 104.07C323.584 104.07 323.101 104.553 323.101 105.148C323.101 105.744 323.584 106.227 324.18 106.227Z" fill="#CAD2EA"/>
<path d="M324.184 105.534C323.672 105.534 323.252 105.113 323.252 104.602V102.444H325.116V104.602C325.116 105.113 324.696 105.534 324.184 105.534Z" fill="#8296C9"/>
<path d="M296.341 101.842L289.34 84.676C289.23 84.4018 288.956 84.219 288.645 84.219H282.027C281.808 84.219 281.643 84.0545 281.643 83.8351C281.643 83.6157 281.808 83.4512 282.027 83.4512H288.645C289.285 83.4512 289.888 83.8351 290.107 84.4018L297.109 101.568L296.341 101.842Z" fill="#343766"/>
<path d="M272.469 79.1004L271.519 79.8865C271.519 79.8865 270.733 78.552 270.641 77.7842C270.641 77.7842 270.879 80.0145 271.043 81.0017C271.208 82.062 275.376 82.0072 275.376 82.0072C275.376 82.0072 274.096 81.3856 272.469 79.1004Z" fill="#F4C54E"/>
<path d="M275.047 77.4391C275.541 78.2618 276.821 79.8523 276.821 79.8523L275.632 77.6219C275.431 77.2563 275.212 76.8907 274.956 76.5616L273.365 74.4775L275.011 77.3477C275.011 77.366 275.029 77.4026 275.047 77.4391Z" fill="#F4C54E"/>
<path d="M275.085 66.818C275.085 66.818 277.042 69.9075 275.268 70.3463C273.495 70.7668 271.831 69.0849 272.051 67.6224C272.27 66.1599 273.934 64.7156 275.085 66.818Z" fill="#FFACAD"/>
<path d="M275.596 67.7673C275.596 67.7673 272.982 68.0964 272.47 67.0909C272.47 67.0909 274.189 65.9209 274.956 66.0488C275.706 66.1585 275.596 67.7673 275.596 67.7673Z" fill="#C17276"/>
<path d="M272.086 68.354C272.086 68.354 272.854 70.4746 272.817 72.3393C272.817 72.3393 274.298 72.9061 275.139 72.6318C275.98 72.3576 273.933 68.9573 273.933 68.9573L272.086 68.354Z" fill="#FFACAD"/>
<path d="M274.698 70.4004C274.698 70.4004 274.406 70.4004 273.602 70.0713C273.602 70.0713 273.894 70.8208 274.936 70.9305C274.936 70.9122 274.808 70.5832 274.698 70.4004Z" fill="#C17276"/>
<path d="M273.069 66.8892L272.977 68.114C272.959 68.2603 272.904 68.4065 272.795 68.5162C272.795 68.5162 272.721 68.1506 272.557 68.1689C272.392 68.1871 272.063 68.8453 272.813 69.1012L272.776 69.7228C272.776 69.8873 272.685 70.0336 272.557 70.1067C272.557 70.1067 271.716 69.0098 271.588 68.4248C271.588 68.4431 272.21 67.4376 273.069 66.8892Z" fill="#343766"/>
<path d="M275.482 66.4662C275.482 66.4662 275.683 67.3803 275.463 67.49C275.463 67.49 275.006 66.6125 274.787 66.3565C274.769 66.3383 275.189 66.2834 275.482 66.4662Z" fill="#343766"/>
<path d="M271.587 68.4425C271.587 68.4425 273.086 66.0293 275.335 66.1939C275.335 66.1939 275.042 64.5303 272.885 65.2067C270.71 65.9014 271.587 68.4425 271.587 68.4425Z" fill="#F4C54E"/>
<path d="M272.795 67.0885C272.795 67.0885 273.91 64.4194 275.866 64.6022C276.835 64.6936 275.482 66.4487 275.482 66.4487C275.482 66.4487 274.422 66.1744 272.795 67.0885Z" fill="#F9DD89"/>
<path d="M272.468 71.6054C272.468 71.6054 274.68 70.6365 276.599 71.971L279.543 75.5359L278.318 77.9125L277.587 81.4773H270.841L270.603 77.0715C270.603 77.0532 268.245 73.5615 272.468 71.6054Z" fill="#82B53F"/>
<path d="M276.709 72.1182C276.709 72.1182 278.446 74.4765 278.775 77.0176C279.104 79.5587 278.775 77.0176 278.775 77.0176L278.19 78.4984L277.459 74.6044L276.709 72.1182Z" fill="#F4C54E"/>
<path d="M276.71 72.1139C276.564 71.8945 276.363 71.7117 276.107 71.6203L275.96 71.5654C275.96 71.5654 277.057 74.6002 277.277 76.3734L275.942 76.6111C275.942 76.6111 273.547 72.5526 272.176 71.7482L271.518 72.1504C271.518 72.1504 275.339 75.7702 275.247 79.1522C275.156 82.5343 270.732 79.1888 270.732 79.1888L270.129 87.5434C269.8 90.9803 270.11 94.4903 270.11 94.4903L269.013 105.404L269.946 105.66C269.946 105.66 273.73 97.7261 274.352 94.9108C274.388 94.7828 274.406 94.6366 274.443 94.4903C274.571 94.8742 276.162 105.953 276.162 105.953L277.13 105.934C277.13 105.934 278.904 97.3788 278.849 94.4903C278.812 92.9364 279.525 76.6477 276.71 72.1139Z" fill="#F38844"/>
<path d="M274.424 94.4711L275.722 88.877C275.722 88.877 275.832 93.3011 275.905 94.4528C275.978 95.6045 275.302 100.047 275.302 100.047L274.424 94.4711Z" fill="#343766"/>
<path d="M270.603 77.0527L272.925 80.5445C272.925 80.5445 271.28 79.5756 270.731 79.1734L270.603 77.0527Z" fill="#F4C54E"/>
<path d="M268.943 105.296L270.113 105.552L269.93 106.1C269.93 106.1 271.173 106.502 271.667 107.325L268.705 106.74L268.943 105.296Z" fill="#1F1949"/>
<path d="M276.074 105.862L277.262 105.843L277.207 106.41C277.207 106.41 278.487 106.648 279.145 107.324H276.165L276.074 105.862Z" fill="#1F1949"/>
<path d="M275.738 78.8398C275.738 78.8398 276.067 80.1744 276.159 80.2658C276.25 80.3572 283.636 82.3681 283.636 82.3681L283.179 83.465C283.179 83.465 274.422 82.7886 274.038 82.295C273.819 82.0025 272.246 79.4431 272.246 79.4431L275.738 78.8398Z" fill="#FFACAD"/>
<path d="M275.886 78.969L272.796 81.0531L271.845 78.7679L275.703 77.6162L275.886 78.969Z" fill="#C17276"/>
<path d="M283.622 82.3521L285.084 83.1199C285.084 83.1199 284.847 84.2167 284.353 84.1985C283.859 84.1802 283 83.9425 283 83.9425L283.165 83.4307C283.165 83.4489 282.47 82.4617 283.622 82.3521Z" fill="#FFACAD"/>
<path d="M276.016 78.8281L271.939 79.5411L270.604 77.0731C270.604 77.0731 268.922 74.0384 271.518 72.1554C273.2 70.9123 276.016 78.8281 276.016 78.8281Z" fill="#82B53F"/>
<path d="M279.436 75.7734L281.629 78.735L287.351 83.4516H285.615L280.368 80.5449L278.448 79.0092L278.32 77.8941L279.436 75.7734Z" fill="#FFACAD"/>
<path d="M280.076 76.3586L279.052 79.8504L277.571 78.6072L279.271 74.8047L280.076 76.3586Z" fill="#C17276"/>
<path d="M399.893 73.2026L397.553 75.1039H392.141L393.256 76.4567L399.07 77.2063L400.88 76.0545L401.026 75.2319L399.893 73.2026Z" fill="#C17276"/>
<path d="M393.202 76.7984C392.489 76.0854 391.886 75.3725 391.483 74.7692C390.972 74.0196 390.862 73.5809 391.118 73.3249C391.374 73.069 391.813 73.197 392.562 73.6906C393.165 74.0928 393.878 74.7143 394.591 75.409C395.304 76.122 395.908 76.835 396.31 77.4383C396.822 78.1878 396.931 78.6266 396.675 78.8825C396.602 78.9556 396.493 78.9922 396.365 78.9922C395.469 79.0105 393.622 77.2006 393.202 76.7984ZM393.568 76.4328C394.957 77.8222 395.981 78.4437 396.291 78.4986C396.237 78.1878 395.615 77.164 394.226 75.7747C392.836 74.3853 391.813 73.7637 391.502 73.7088C391.557 74.0196 392.16 75.0434 393.568 76.4328Z" fill="#343766"/>
<path d="M392.085 81.9754L394.334 75.6866L393.731 75.1016L391.299 81.9754H392.085Z" fill="#343766"/>
<path d="M413.181 77.2231H398.172L397.807 79.0878V91.3912H405.211V85.8702H413.108L413.181 77.2231Z" fill="#343766"/>
<path d="M412.578 77.2056H403.218L399.799 85.8709H408.026L412.578 77.2056Z" fill="#F4C54E"/>
<path d="M400.054 84.0245H408.591L410.145 78.9971C410.474 77.9368 411.462 77.2056 412.577 77.2056L409.889 85.8709L399.231 85.8892V84.8289C399.231 84.3901 399.597 84.0245 400.054 84.0245Z" fill="#F9DD89"/>
<path d="M406.547 76.5847L407.425 77.316C407.425 77.316 408.156 76.0546 408.247 75.3599C408.247 75.3599 408.01 77.4622 407.882 78.3763C407.735 79.3818 403.823 79.3087 403.823 79.3087C403.823 79.3087 405.011 78.7237 406.547 76.5847Z" fill="#F4C54E"/>
<path d="M404.134 75.03C403.677 75.7978 402.489 77.2969 402.489 77.2969L403.604 75.2128C403.787 74.8655 404.006 74.5364 404.244 74.2256L405.743 72.2695L404.207 74.9569C404.171 74.9752 404.152 74.9935 404.134 75.03Z" fill="#F4C54E"/>
<path d="M402.872 65.4891C402.872 65.4891 401.94 68.798 403.658 68.7066C405.377 68.6152 406.419 66.6408 405.834 65.3977C405.23 64.1362 403.347 63.2953 402.872 65.4891Z" fill="#DA8C8D"/>
<path d="M402.672 66.4774C402.672 66.4774 405.104 66.0752 405.305 65.0332C405.305 65.0332 403.44 64.4482 402.8 64.759C402.142 65.0697 402.672 66.4774 402.672 66.4774Z" fill="#C17276"/>
<path d="M405.98 66.0728C405.98 66.0728 405.87 68.1934 406.4 69.8387C406.4 69.8387 405.23 70.7345 404.389 70.7162C403.548 70.6979 404.499 67.0965 404.499 67.0965L405.98 66.0728Z" fill="#DA8C8D"/>
<path d="M403.056 67.0988C403.056 67.0988 403.714 67.0074 403.915 67.2451C404.116 67.4827 404.226 67.8301 404.226 67.8301L403.129 67.3548L403.056 67.0988Z" fill="#343766"/>
<path d="M403.055 67.0972L402.89 67.0241C402.744 66.9692 402.598 67.0424 402.543 67.1886L402.488 67.3349L403.146 67.3531L403.055 67.0972Z" fill="#343766"/>
<path d="M404.168 68.5977C404.168 68.5977 404.424 68.5246 405.064 68.0127C405.064 68.0127 405.009 68.7622 404.095 69.1279C404.095 69.1461 404.132 68.7988 404.168 68.5977Z" fill="#C17276"/>
<path d="M404.698 65.0132L405.1 66.0918C405.155 66.2198 405.246 66.3477 405.374 66.4026C405.374 66.4026 405.338 66.0552 405.484 66.0187C405.63 65.9821 406.106 66.494 405.502 66.9327L405.703 67.4812C405.758 67.6274 405.868 67.7371 406.014 67.7737C406.014 67.7737 406.471 66.5671 406.435 66.0004C406.453 66.0187 405.612 65.2874 404.698 65.0132Z" fill="#343766"/>
<path d="M402.413 65.2883C402.413 65.2883 402.486 66.1476 402.705 66.2024C402.705 66.2024 402.888 65.2883 403.016 64.9958C403.016 64.9776 402.632 65.0507 402.413 65.2883Z" fill="#343766"/>
<path d="M406.451 66.0193C406.451 66.0193 404.459 64.246 402.484 65.0138C402.484 65.0138 402.301 63.4416 404.422 63.4782C406.543 63.5147 406.451 66.0193 406.451 66.0193Z" fill="#F4C54E"/>
<path d="M404.99 65.123C404.99 65.123 403.765 64.3004 402.065 64.9951C401.205 65.3424 402.43 65.2875 402.43 65.2875C402.43 65.2875 403.289 64.7391 404.99 65.123Z" fill="#F9DD89"/>
<path d="M406.546 69.5652C406.546 69.5652 404.48 68.6511 402.67 69.9125L399.709 72.8741L401.061 75.4701L401.756 78.8155H408.081L408.264 75.3603C408.264 75.3603 410.513 71.3933 406.546 69.5652Z" fill="#F9DD89"/>
<path d="M408.265 75.3594L406.821 76.8036L406.546 76.5842L405.157 78.2661H405.852L408.393 77.3338L408.265 75.3594Z" fill="#F4C54E"/>
<path d="M402.561 70.042C402.561 70.042 400.934 72.254 400.624 74.6306C400.313 77.0072 400.624 74.6306 400.624 74.6306L401.172 76.02L401.867 72.382L402.561 70.042Z" fill="#F4C54E"/>
<path d="M400.606 81.3559C400.697 76.3468 401.063 72.4894 402.58 70.0397C402.708 69.8203 402.909 69.6741 403.147 69.5827L403.293 69.5278C403.293 69.5278 402.269 72.3615 402.068 74.0251L403.311 74.2444C403.311 74.2444 405.651 70.4602 406.931 69.7106L407.498 70.058C407.498 70.058 403.878 73.4583 403.969 76.621C404.061 79.802 408.211 76.6576 408.211 76.6576L408.558 81.301C408.595 81.685 408.558 82.0689 408.485 82.4345C408.156 84.0616 406.931 85.3412 405.322 85.7252L398.43 87.0414L392.434 94.2443L391.483 93.769L394.262 85.7069C394.829 84.0798 396.108 82.8184 397.754 82.2882L400.606 81.3559Z" fill="#39548B"/>
<path d="M400.606 81.3555L402.799 81.5017L398.211 82.1233L400.606 81.3555Z" fill="#343766"/>
<path d="M396.476 91.3892H414.19V85.8682H396.476V91.3892Z" fill="#343766"/>
<path d="M412.615 92.4533V81.978H418.465C419.27 81.978 419.91 82.6362 419.91 83.4405V104.866H399.745H389.069V92.4167L412.615 92.4533Z" fill="#F9DD89"/>
<path d="M417.498 96.0693H420.88V98.5922C421.337 99.5245 421.593 100.64 421.593 101.865C421.593 103.089 421.337 104.205 420.88 105.137V107.66H417.498C415.231 107.66 413.385 105.064 413.385 101.865C413.385 98.6653 415.231 96.0693 417.498 96.0693Z" fill="#1F1949"/>
<path d="M420.899 107.66C423.17 107.66 425.012 105.065 425.012 101.865C425.012 98.6639 423.17 96.0693 420.899 96.0693C418.627 96.0693 416.785 98.6639 416.785 101.865C416.785 105.065 418.627 107.66 420.899 107.66Z" fill="#343766"/>
<path d="M422.599 101.864C422.599 100.347 421.777 99.1038 420.716 98.9758C420.771 98.9758 420.826 98.9575 420.881 98.9575C422.014 98.9575 422.929 100.255 422.929 101.846C422.929 103.436 422.014 104.734 420.881 104.734C420.826 104.734 420.771 104.734 420.716 104.716C421.777 104.625 422.599 103.382 422.599 101.864Z" fill="#8296C9"/>
<path d="M420.718 104.752C421.758 104.752 422.601 103.459 422.601 101.864C422.601 100.268 421.758 98.9751 420.718 98.9751C419.678 98.9751 418.835 100.268 418.835 101.864C418.835 103.459 419.678 104.752 420.718 104.752Z" fill="#CAD2EA"/>
<path d="M416.09 92.4541H419.911V88.3225H416.09V92.4541Z" fill="#F4C54E"/>
<path d="M390.295 93.4224H397.516C399.819 93.4224 402.05 94.3364 403.677 95.9818C405.304 97.6088 406.236 99.8391 406.236 102.143V104.885H390.313V93.4224H390.295Z" fill="#F4C54E"/>
<path d="M396.072 96.0693H399.454V98.5922C399.911 99.5245 400.167 100.64 400.167 101.865C400.167 103.089 399.911 104.205 399.454 105.137V107.66H396.072C393.805 107.66 391.959 105.064 391.959 101.865C391.959 98.6653 393.805 96.0693 396.072 96.0693Z" fill="#1F1949"/>
<path d="M399.455 107.66C401.727 107.66 403.568 105.065 403.568 101.865C403.568 98.6639 401.727 96.0693 399.455 96.0693C397.183 96.0693 395.342 98.6639 395.342 101.865C395.342 105.065 397.183 107.66 399.455 107.66Z" fill="#343766"/>
<path d="M401.173 101.864C401.173 100.347 400.351 99.1038 399.291 98.9758C399.345 98.9758 399.4 98.9575 399.455 98.9575C400.589 98.9575 401.503 100.255 401.503 101.846C401.503 103.436 400.589 104.734 399.455 104.734C399.4 104.734 399.345 104.734 399.291 104.716C400.333 104.625 401.173 103.382 401.173 101.864Z" fill="#8296C9"/>
<path d="M399.292 104.752C400.332 104.752 401.175 103.459 401.175 101.864C401.175 100.268 400.332 98.9751 399.292 98.9751C398.252 98.9751 397.409 100.268 397.409 101.864C397.409 103.459 398.252 104.752 399.292 104.752Z" fill="#CAD2EA"/>
<path d="M390.295 94.792H397.077C398.174 94.792 399.07 93.8962 399.07 92.7993H390.295V94.792Z" fill="#F9DD89"/>
<path d="M413.164 92.4463H414.188V85.865H413.164V92.4463Z" fill="#343766"/>
<path d="M395.577 77.2974L401.957 79.7836C402.305 79.9299 402.689 79.9664 403.073 79.9116C403.566 79.8385 404.023 79.5825 404.352 79.1986L406.564 76.6027L404.316 74.6831L402.488 77.2974L396.674 76.3467C396.674 76.3467 395.34 75.6886 395.12 75.5972C395.011 75.5606 394.809 75.5972 394.627 75.652C394.389 75.7069 394.261 75.9445 394.316 76.1822C394.371 76.4381 394.48 76.7489 394.608 76.8403C394.809 77.0049 395.577 77.2974 395.577 77.2974Z" fill="#DA8C8D"/>
<path d="M403.969 74.9214C404.134 75.0311 405.907 77.8098 405.907 77.8098L406.803 76.3839L404.445 74.2998L403.969 74.9214Z" fill="#C17276"/>
<path d="M391.683 75.0478C391.683 75.0478 392.012 74.993 392.25 75.1209C392.488 75.2672 393.31 76.1081 393.31 76.1081C393.31 76.1081 392.999 76.492 392.652 76.492C392.305 76.492 391.683 76.1447 391.592 75.9436C391.5 75.7425 391.683 75.0478 391.683 75.0478Z" fill="#C17276"/>
<path d="M412.157 60.8623L412.888 61.9775C413.035 62.1968 413.108 62.4528 413.108 62.7087V85.8712H414.186V60.8623H412.157Z" fill="#343766"/>
<path d="M384.225 60.5721L380.916 74.6122V92.4548H416.053V63.04C416.053 62.3454 415.87 61.6507 415.523 61.0474C414.7 59.6214 413.183 58.7622 411.538 58.7622H386.511C385.432 58.7622 384.481 59.5117 384.225 60.5721ZM397.991 60.7183H400.002C400.24 60.7183 400.423 60.9377 400.386 61.1571L398.905 69.5299L397.79 60.956C397.754 60.8463 397.845 60.7183 397.991 60.7183ZM402.69 61.2119C402.726 60.9925 402.909 60.8463 403.128 60.8463L412.123 60.8828C412.817 60.8828 413.457 61.2302 413.841 61.8152C414.061 62.1443 414.189 62.5464 414.189 62.9486V85.8918H408.631C407.26 85.8918 406.145 87.007 406.145 88.3781V91.4128H397.388L402.69 61.2119ZM382.799 74.6487L385.779 62.126C385.98 61.3033 386.712 60.7183 387.571 60.7183H395.158C395.395 60.7183 395.596 60.9011 395.633 61.1388L397.808 75.6542L394.975 91.4311L382.799 81.9796V74.6487V74.6487Z" fill="#8296C9"/>
<path d="M397.992 60.7173H394.775L397.81 75.6532L399.4 66.677L397.992 60.7173Z" fill="#343766"/>
<path d="M396.675 81.978L394.975 91.4295L390.295 91.3929V81.978H396.675Z" fill="#CAD2EA"/>
<path d="M373.365 103.598H381.573V62.7392H373.365V103.598Z" fill="#343766"/>
<path d="M374.257 103.606H375.153V64.2096H374.257V103.606Z" fill="#1F1949"/>
<path d="M372.778 64.2075H383.472V62.7267H372.778V64.2075Z" fill="#F9DD89"/>
<path d="M371.166 64.2075H373.506V62.7267H371.166V64.2075Z" fill="#F4C54E"/>
<path d="M374.03 84.5854H372.092V103.598H374.03V84.5854Z" fill="#CAD2EA"/>
<path d="M375.163 84.5854H374.029V103.598H375.163V84.5854Z" fill="#8296C9"/>
<path d="M382.127 104.863H390.336V65.119H382.127V104.863Z" fill="#343766"/>
<path d="M383.02 104.853H383.916V66.5352H383.02V104.853Z" fill="#1F1949"/>
<path d="M381.54 66.5493H392.235V65.1234H381.54V66.5493Z" fill="#F9DD89"/>
<path d="M379.946 66.5493H382.286V65.1234H379.946V66.5493Z" fill="#F4C54E"/>
<path d="M382.789 86.3613H380.851V103.601H382.789V86.3613Z" fill="#B2BFDF"/>
<path d="M382.789 86.3613V103.601H345.971V104.862H383.923V103.601V86.3613H382.789Z" fill="#CAD2EA"/>
<path d="M345.976 104.857H354.623V103.614H345.976V104.857Z" fill="#B2BFDF"/>
<path d="M362.236 101.146H379.147V82.791H362.236V101.146Z" fill="#F1B873"/>
<path d="M364.115 82.7998H365.943L371.629 90.6974L377.333 82.7998H379.161L372.543 91.9771L379.161 101.154H377.333L371.629 93.2385L365.943 101.154H364.115L370.715 91.9771L364.115 82.7998Z" fill="#F1CA89"/>
<path d="M379.154 101.146H381.311V82.791H379.154V101.146Z" fill="#F1CA89"/>
<path d="M361.905 101.146H364.062V82.791H361.905V101.146Z" fill="#F1CA89"/>
<path d="M360.863 82.8022H382.106V80.3525H360.863V82.8022Z" fill="#F1CA89"/>
<path d="M347.808 82.7998H360.879V80.3501H347.808V82.7998Z" fill="#F1B873"/>
<path d="M347.808 103.603H360.879V101.153H347.808V103.603Z" fill="#F1B873"/>
<path d="M360.863 103.603H382.106V101.153H360.863V103.603Z" fill="#F1CA89"/>
<path d="M349.663 101.146H361.893V82.791H349.663V101.146Z" fill="#EFA856"/>
<path opacity="0.5" d="M361.901 83.8164H381.316V82.7927H361.901V83.8164Z" fill="#EFA856"/>
<path opacity="0.8" d="M361.893 101.154V82.7998H360.869V101.154H361.893Z" fill="#ED963E"/>
<path opacity="0.5" d="M361.906 101.146H381.339V100.122H361.906V101.146Z" fill="#EFA856"/>
<path d="M351.047 101.142V82.7871H348.597V101.142H351.047Z" fill="#F1B873"/>
<path d="M350.277 82.7998H351.685L356.091 90.6974L360.496 82.7998H361.904L356.785 91.9771L361.904 101.154H360.496L356.091 93.2385L351.685 101.154H350.277L355.378 91.9771L350.277 82.7998Z" fill="#F1B873"/>
<path opacity="0.8" d="M361.885 82.7998H348.595V83.8236H361.885V82.7998Z" fill="#ED963E"/>
<path opacity="0.8" d="M361.885 100.132H348.595V101.156H361.885V100.132Z" fill="#ED963E"/>
<path d="M362.236 78.0439H379.147V59.6894H362.236V78.0439Z" fill="#F1B873"/>
<path d="M364.115 59.6929H365.943L371.629 67.6087L377.333 59.6929H379.161L372.543 68.8701L379.161 78.0474H377.333L371.629 70.1315L365.943 78.0474H364.115L370.715 68.8701L364.115 59.6929Z" fill="#F1CA89"/>
<path d="M379.154 78.0439H381.311V59.6894H379.154V78.0439Z" fill="#F1CA89"/>
<path d="M361.905 78.0439H364.062V59.6894H361.905V78.0439Z" fill="#F1CA89"/>
<path d="M360.863 59.6826H382.106V57.2329H360.863V59.6826Z" fill="#F1CA89"/>
<path d="M347.808 59.6802H360.879V57.2305H347.808V59.6802Z" fill="#F1B873"/>
<path d="M347.808 80.5005H360.879V78.0508H347.808V80.5005Z" fill="#F1B873"/>
<path d="M360.863 80.5005H382.106V78.0508H360.863V80.5005Z" fill="#F1CA89"/>
<path d="M349.663 78.0439H361.893V59.6894H349.663V78.0439Z" fill="#EFA856"/>
<path opacity="0.5" d="M361.901 60.7144H381.316V59.6906H361.901V60.7144Z" fill="#EFA856"/>
<path opacity="0.8" d="M361.896 78.0498V59.6953H360.872V78.0498H361.896Z" fill="#ED963E"/>
<path opacity="0.5" d="M361.906 78.0439H381.339V77.0202H361.906V78.0439Z" fill="#EFA856"/>
<path d="M351.052 78.0371V59.6826H348.602V78.0371H351.052Z" fill="#F1B873"/>
<path d="M350.277 59.6929H351.685L356.091 67.6087L360.496 59.6929H361.904L356.785 68.8701L361.904 78.0474H360.496L356.091 70.1315L351.685 78.0474H350.277L355.378 68.8701L350.277 59.6929Z" fill="#F1B873"/>
<path opacity="0.8" d="M361.885 59.6929H348.595V60.7166H361.885V59.6929Z" fill="#ED963E"/>
<path opacity="0.8" d="M361.885 77.022H348.595V78.0457H361.885V77.022Z" fill="#ED963E"/>
<path d="M382.105 80.6611H354.921C354.829 80.6611 354.756 80.588 354.756 80.4966C354.756 80.4052 354.829 80.332 354.921 80.332H382.105C382.196 80.332 382.27 80.4052 382.27 80.4966C382.27 80.588 382.196 80.6611 382.105 80.6611Z" fill="#E5A251"/>
<path d="M353.167 80.6407H348.194C348.121 80.6407 348.066 80.5859 348.066 80.5127C348.066 80.4396 348.121 80.3848 348.194 80.3848H353.167C353.24 80.3848 353.295 80.4396 353.295 80.5127C353.295 80.5859 353.258 80.6407 353.167 80.6407Z" fill="#E5A251"/>
<path d="M217.424 104.688H233.932V86.7544H217.424V104.688Z" fill="#F1B873"/>
<path d="M219.229 86.7466H221.021L226.578 94.4796L232.136 86.7466H233.927L227.474 95.7227L233.927 104.681H232.136L226.578 96.9476L221.021 104.681H219.229L225.682 95.7227L219.229 86.7466Z" fill="#F1CA89"/>
<path d="M233.916 104.688H236.036V86.7544H233.916V104.688Z" fill="#F1CA89"/>
<path d="M217.068 104.688H219.189V86.7544H217.068V104.688Z" fill="#F1CA89"/>
<path d="M216.066 86.7588H236.816V84.3639H216.066V86.7588Z" fill="#F1CA89"/>
<path d="M203.285 86.7563H216.063V84.3615H203.285V86.7563Z" fill="#F1B873"/>
<path d="M203.321 107.08H216.063V104.685H203.321V107.08Z" fill="#F1B873"/>
<path d="M216.066 107.08H236.816V104.685H216.066V107.08Z" fill="#F1CA89"/>
<path d="M205.109 104.688H217.065V86.7544H205.109V104.688Z" fill="#EFA856"/>
<path opacity="0.5" d="M217.083 87.7656H236.041V86.7601H217.083V87.7656Z" fill="#EFA856"/>
<path opacity="0.8" d="M217.077 104.683V86.749H216.072V104.683H217.077Z" fill="#ED963E"/>
<path opacity="0.5" d="M217.067 104.686H236.061V103.681H217.067V104.686Z" fill="#EFA856"/>
<path d="M206.483 104.69V86.7563H204.088V104.69H206.483Z" fill="#F1B873"/>
<path d="M205.719 86.7466H207.09L211.386 94.4796L215.7 86.7466H217.071L212.081 95.7227L217.071 104.681H215.7L211.386 96.9476L207.09 104.681H205.719L210.709 95.7227L205.719 86.7466Z" fill="#F1B873"/>
<path opacity="0.8" d="M217.071 86.7466H204.092V87.7521H217.071V86.7466Z" fill="#ED963E"/>
<path opacity="0.8" d="M217.071 103.675H204.092V104.68H217.071V103.675Z" fill="#ED963E"/>
<path d="M192.987 104.688H209.495V86.7544H192.987V104.688Z" fill="#F1B873"/>
<path d="M194.807 86.7461H196.599L202.156 94.4791L207.732 86.7461H209.505L203.052 95.7223L209.505 104.68H207.732L202.156 96.9471L196.599 104.68H194.807L201.26 95.7223L194.807 86.7461Z" fill="#F1CA89"/>
<path d="M209.499 104.688H211.619V86.7544H209.499V104.688Z" fill="#F1CA89"/>
<path d="M192.651 104.688H194.772V86.7544H192.651V104.688Z" fill="#F1CA89"/>
<path d="M191.649 86.7588H212.399V84.3639H191.649V86.7588Z" fill="#F1CA89"/>
<path d="M178.868 86.7563H191.646V84.3615H178.868V86.7563Z" fill="#F1B873"/>
<path d="M178.904 107.08H191.646V104.685H178.904V107.08Z" fill="#F1B873"/>
<path d="M191.649 107.08H212.399V104.685H191.649V107.08Z" fill="#F1CA89"/>
<path d="M180.692 104.688H192.648V86.7544H180.692V104.688Z" fill="#EFA856"/>
<path opacity="0.5" d="M192.666 87.7651H211.624V86.7597H192.666V87.7651Z" fill="#EFA856"/>
<path opacity="0.8" d="M192.658 104.678V86.7437H191.652V104.678H192.658Z" fill="#ED963E"/>
<path opacity="0.5" d="M192.65 104.686H211.644V103.681H192.65V104.686Z" fill="#EFA856"/>
<path d="M182.063 104.688V86.7539H179.669V104.688H182.063Z" fill="#F1B873"/>
<path d="M181.299 86.7461H182.67L186.985 94.4791L191.281 86.7461H192.652L187.661 95.7223L192.652 104.68H191.281L186.985 96.9471L182.67 104.68H181.299L186.29 95.7223L181.299 86.7461Z" fill="#F1B873"/>
<path opacity="0.8" d="M192.649 86.7461H179.67V87.7516H192.649V86.7461Z" fill="#ED963E"/>
<path opacity="0.8" d="M192.649 103.674H179.67V104.68H192.649V103.674Z" fill="#ED963E"/>
<path d="M167.575 104.688H184.083V86.7544H167.575V104.688Z" fill="#F1B873"/>
<path d="M169.392 86.7461H171.165L176.741 94.4791L182.299 86.7461H184.09L177.619 95.7223L184.09 104.68H182.299L176.741 96.9471L171.165 104.68H169.392L175.845 95.7223L169.392 86.7461Z" fill="#F1CA89"/>
<path d="M184.066 104.688H186.186V86.7544H184.066V104.688Z" fill="#F1CA89"/>
<path d="M167.221 104.688H169.341V86.7544H167.221V104.688Z" fill="#F1CA89"/>
<path d="M166.219 86.7588H186.968V84.3639H166.219V86.7588Z" fill="#F1CA89"/>
<path d="M153.455 86.7563H166.234V84.3615H153.455V86.7563Z" fill="#F1B873"/>
<path d="M153.492 107.08H166.234V104.685H153.492V107.08Z" fill="#F1B873"/>
<path d="M166.219 107.08H186.968V104.685H166.219V107.08Z" fill="#F1CA89"/>
<path d="M155.279 104.688H167.235V86.7544H155.279V104.688Z" fill="#EFA856"/>
<path opacity="0.5" d="M167.234 87.7651H186.192V86.7597H167.234V87.7651Z" fill="#EFA856"/>
<path opacity="0.8" d="M167.235 104.688V86.7539H166.23V104.688H167.235Z" fill="#ED963E"/>
<path opacity="0.5" d="M167.22 104.686H186.214V103.681H167.22V104.686Z" fill="#EFA856"/>
<path d="M156.641 104.678V86.7437H154.246V104.678H156.641Z" fill="#F1B873"/>
<path d="M155.864 86.7461H157.253L161.549 94.4791L165.846 86.7461H167.235L162.244 95.7223L167.235 104.68H165.846L161.549 96.9471L157.253 104.68H155.864L160.855 95.7223L155.864 86.7461Z" fill="#F1B873"/>
<path opacity="0.8" d="M167.217 86.7461H154.237V87.7516H167.217V86.7461Z" fill="#ED963E"/>
<path opacity="0.8" d="M167.217 103.674H154.237V104.68H167.217V103.674Z" fill="#ED963E"/>
<path d="M192.988 81.8525H209.496V63.9185H192.988V81.8525Z" fill="#F1B873"/>
<path d="M194.808 63.9302H196.599L202.157 71.6632L207.732 63.9302H209.506L203.052 72.8881L209.506 81.8642H207.732L202.157 74.1312L196.599 81.8642H194.808L201.261 72.8881L194.808 63.9302Z" fill="#F1CA89"/>
<path d="M209.499 81.8525H211.62V63.9185H209.499V81.8525Z" fill="#F1CA89"/>
<path d="M192.652 81.8525H194.772V63.9185H192.652V81.8525Z" fill="#F1CA89"/>
<path d="M191.65 63.9229H212.399V61.528H191.65V63.9229Z" fill="#F1CA89"/>
<path d="M178.868 63.9204H191.647V61.5255H178.868V63.9204Z" fill="#F1B873"/>
<path d="M178.905 84.2437H191.647V81.8488H178.905V84.2437Z" fill="#F1B873"/>
<path d="M191.65 84.2437H212.399V81.8488H191.65V84.2437Z" fill="#F1CA89"/>
<path d="M180.692 81.8525H192.648V63.9185H180.692V81.8525Z" fill="#EFA856"/>
<path opacity="0.5" d="M192.667 64.9268H211.625V63.9213H192.667V64.9268Z" fill="#EFA856"/>
<path opacity="0.8" d="M192.648 81.8545V63.9204H191.643V81.8545H192.648Z" fill="#ED963E"/>
<path opacity="0.5" d="M192.651 81.8501H211.645V80.8446H192.651V81.8501Z" fill="#EFA856"/>
<path d="M182.056 81.8618V63.9277H179.662V81.8618H182.056Z" fill="#F1B873"/>
<path d="M181.3 63.9302H182.671L186.985 71.6632L191.281 63.9302H192.652L187.662 72.8881L192.652 81.8642H191.281L186.985 74.1312L182.671 81.8642H181.3L186.291 72.8881L181.3 63.9302Z" fill="#F1B873"/>
<path opacity="0.8" d="M192.65 63.9302H179.67V64.9357H192.65V63.9302Z" fill="#ED963E"/>
<path opacity="0.8" d="M192.65 80.8584H179.67V81.8639H192.65V80.8584Z" fill="#ED963E"/>
<path d="M167.575 81.8525H184.083V63.9185H167.575V81.8525Z" fill="#F1B873"/>
<path d="M169.393 63.9302H171.166L176.742 71.6632L182.299 63.9302H184.091L177.619 72.8881L184.091 81.8642H182.299L176.742 74.1312L171.166 81.8642H169.393L175.846 72.8881L169.393 63.9302Z" fill="#F1CA89"/>
<path d="M184.066 81.8525H186.187V63.9185H184.066V81.8525Z" fill="#F1CA89"/>
<path d="M167.221 81.8525H169.342V63.9185H167.221V81.8525Z" fill="#F1CA89"/>
<path d="M166.22 63.9229H186.969V61.528H166.22V63.9229Z" fill="#F1CA89"/>
<path d="M153.456 63.9204H166.234V61.5255H153.456V63.9204Z" fill="#F1B873"/>
<path d="M153.492 84.2437H166.234V81.8488H153.492V84.2437Z" fill="#F1B873"/>
<path d="M166.22 84.2437H186.969V81.8488H166.22V84.2437Z" fill="#F1CA89"/>
<path d="M155.28 81.8525H167.236V63.9185H155.28V81.8525Z" fill="#EFA856"/>
<path opacity="0.5" d="M167.234 64.9268H186.192V63.9213H167.234V64.9268Z" fill="#EFA856"/>
<path opacity="0.8" d="M167.226 81.8618V63.9277H166.22V81.8618H167.226Z" fill="#ED963E"/>
<path opacity="0.5" d="M167.22 81.8501H186.215V80.8446H167.22V81.8501Z" fill="#EFA856"/>
<path d="M156.634 81.852V63.918H154.239V81.852H156.634Z" fill="#F1B873"/>
<path d="M155.865 63.9302H157.254L161.55 71.6632L165.846 63.9302H167.236L162.245 72.8881L167.236 81.8642H165.846L161.55 74.1312L157.254 81.8642H155.865L160.855 72.8881L155.865 63.9302Z" fill="#F1B873"/>
<path opacity="0.8" d="M167.217 63.9302H154.238V64.9357H167.217V63.9302Z" fill="#ED963E"/>
<path opacity="0.8" d="M167.217 80.8584H154.238V81.8639H167.217V80.8584Z" fill="#ED963E"/>
<path d="M493.616 107.988H0.38391C0.182815 107.988 0 107.823 0 107.604C0 107.385 0.164534 107.22 0.38391 107.22H493.616C493.817 107.22 494 107.385 494 107.604C494 107.823 493.835 107.988 493.616 107.988Z" fill="#1F1949"/>
<path d="M382.303 26.2114L383.693 32.2077L383.985 33.8713L384.296 32.2443L385.484 26.2114H387.788L389.031 32.2077L389.342 33.8713L389.671 32.2626L391.06 26.2114H393.291L390.347 36.6684H388.245L386.984 30.5441L386.618 28.5149L386.252 30.5441L384.991 36.6684H382.962L380 26.2114H382.303Z" fill="white"/>
<path d="M396.819 26.2114H399.287L402.998 36.6684H400.622L399.927 34.5112H396.07L395.357 36.6684H393.071L396.819 26.2114ZM396.673 32.7196H399.36L398.044 28.6063L396.673 32.7196Z" fill="white"/>
<path d="M411.024 26.4651C411.408 26.6297 411.737 26.8673 412.011 27.1964C412.231 27.4706 412.413 27.7631 412.541 28.0739C412.669 28.403 412.742 28.7686 412.742 29.1708C412.742 29.6644 412.614 30.158 412.359 30.6333C412.103 31.1086 411.7 31.456 411.115 31.6571C411.591 31.8582 411.938 32.1324 412.139 32.4797C412.34 32.8454 412.45 33.3755 412.45 34.125V34.8197C412.45 35.2951 412.468 35.6241 412.505 35.7887C412.56 36.0629 412.706 36.264 412.907 36.3919V36.6479H410.494C410.421 36.4102 410.384 36.2274 410.348 36.0812C410.293 35.7886 410.256 35.4962 410.256 35.1854L410.238 34.2165C410.238 33.54 410.11 33.1013 409.891 32.8819C409.671 32.6625 409.251 32.5528 408.647 32.5528H406.508V36.6479H404.37V26.1909H409.379C410.092 26.2092 410.64 26.3006 411.024 26.4651ZM406.508 28.0191V30.8344H408.867C409.342 30.8344 409.689 30.7795 409.927 30.6699C410.348 30.4688 410.549 30.0849 410.549 29.4998C410.549 28.86 410.348 28.4395 409.945 28.2201C409.726 28.0922 409.379 28.0373 408.94 28.0373H406.508V28.0191Z" fill="white"/>
<path d="M422.559 28.0579H417.02V30.2882H422.102V32.098H417.02V34.7854H422.815V36.6684H414.881V26.2114H422.559V28.0579Z" fill="white"/>
<path d="M424.496 36.6684V26.2114H426.672V30.1968H430.749V26.2114H432.924V36.6684H430.749V31.9884H426.672V36.6684H424.496Z" fill="white"/>
<path d="M443.071 35.7345C442.285 36.5572 441.133 36.9594 439.634 36.9594C438.135 36.9594 437.001 36.5572 436.197 35.7345C435.137 34.7291 434.606 33.3031 434.606 31.4201C434.606 29.5006 435.137 28.0563 436.197 27.1057C436.983 26.2831 438.135 25.8809 439.634 25.8809C441.133 25.8809 442.266 26.2831 443.071 27.1057C444.131 28.0746 444.661 29.5006 444.661 31.4201C444.661 33.3031 444.131 34.7473 443.071 35.7345ZM441.718 34.1441C442.23 33.5042 442.486 32.5901 442.486 31.4201C442.486 30.2501 442.23 29.336 441.718 28.6962C441.206 28.0564 440.53 27.7273 439.652 27.7273C438.793 27.7273 438.098 28.0381 437.586 28.6779C437.074 29.3178 436.818 30.2318 436.818 31.4018C436.818 32.5719 437.074 33.4859 437.586 34.1258C438.098 34.7656 438.793 35.0764 439.652 35.0764C440.511 35.113 441.206 34.7839 441.718 34.1441Z" fill="white"/>
<path d="M446.326 26.2114H448.556V32.6465C448.556 33.3595 448.647 33.8896 448.812 34.2187C449.068 34.8037 449.653 35.0962 450.53 35.0962C451.408 35.0962 451.993 34.8037 452.249 34.2187C452.413 33.8896 452.505 33.3595 452.505 32.6465V26.2114H454.735V32.6465C454.735 33.7616 454.571 34.6209 454.223 35.2424C453.583 36.3759 452.359 36.9426 450.549 36.9426C448.739 36.9426 447.514 36.3759 446.856 35.2424C446.509 34.6209 446.344 33.7616 446.344 32.6465V26.2114H446.326Z" fill="white"/>
<path d="M458.409 33.4311C458.483 33.9064 458.611 34.272 458.812 34.5097C459.177 34.9484 459.799 35.1495 460.676 35.1495C461.207 35.1495 461.627 35.0947 461.956 34.985C462.578 34.7656 462.888 34.3634 462.888 33.7784C462.888 33.4311 462.742 33.1569 462.431 32.974C462.121 32.7912 461.645 32.6267 460.987 32.4805L459.854 32.2245C458.739 31.9868 457.971 31.7126 457.55 31.4201C456.837 30.9448 456.49 30.177 456.49 29.1532C456.49 28.2209 456.837 27.4348 457.532 26.8132C458.227 26.1916 459.232 25.8809 460.567 25.8809C461.682 25.8809 462.632 26.1734 463.419 26.7584C464.205 27.3434 464.625 28.1843 464.662 29.2995H462.559C462.523 28.6779 462.23 28.2209 461.718 27.9649C461.371 27.7821 460.932 27.709 460.42 27.709C459.835 27.709 459.378 27.8187 459.031 28.0564C458.684 28.2757 458.519 28.6048 458.519 29.007C458.519 29.3726 458.684 29.6651 459.031 29.8479C459.25 29.9759 459.707 30.1222 460.42 30.2867L462.249 30.7254C463.053 30.9082 463.656 31.1642 464.058 31.4933C464.68 31.9868 464.991 32.6998 464.991 33.6322C464.991 34.5828 464.625 35.3872 463.876 36.0088C463.144 36.6486 462.084 36.9594 460.75 36.9594C459.378 36.9594 458.282 36.6486 457.495 36.027C456.709 35.4055 456.307 34.5462 456.307 33.4676H458.409V33.4311Z" fill="white"/>
<path d="M474.277 28.0579H468.738V30.2882H473.82V32.098H468.738V34.7854H474.533V36.6684H466.599V26.2114H474.277V28.0579Z" fill="white"/>
<defs>
<linearGradient id="paint0_linear_1_1188" x1="969.603" y1="67.1036" x2="956.374" y2="67.1036" gradientUnits="userSpaceOnUse">
<stop offset="0.00051751" stop-color="#333333"/>
<stop offset="0.9995" stop-color="white"/>
</linearGradient>
<linearGradient id="paint1_linear_1_1188" x1="969.601" y1="67.109" x2="956.372" y2="67.109" gradientUnits="userSpaceOnUse">
<stop offset="0.00051751" stop-color="#E1E5EF"/>
<stop offset="0.9995" stop-color="#E1E5EF"/>
</linearGradient>
</defs>
</svg>
