<svg width="28" height="52" viewBox="0 0 28 52" fill="none" xmlns="http://www.w3.org/2000/svg">
<path d="M24.8652 26.0236C24.8419 26.0002 24.8185 25.9769 24.7952 25.9301C25.3792 24.3416 25.6362 22.6363 25.496 20.9076C25.3091 18.4547 24.3279 16.0952 22.7628 14.2264C23.557 12.6378 23.9075 10.8624 23.7673 9.08699C23.5804 6.54067 22.3656 4.1345 20.4501 2.45252C19.7492 1.98531 19.0484 1.49473 18.3242 1.02752C16.7123 0.233248 14.9836 -0.0938036 13.1848 0.0230005C12.3439 0.186526 11.5262 0.373412 10.6852 0.536937C9.07334 1.12096 7.69505 2.05539 6.55037 3.34023C4.79831 5.3259 3.93396 7.96568 4.12085 10.6054C4.21429 11.7268 4.49462 12.8247 4.93848 13.8292C4.89176 13.8993 4.82167 13.946 4.77495 13.9928C2.67248 16.3756 1.62124 19.5526 1.85485 22.7297C1.94829 23.8277 2.1819 24.9023 2.55568 25.9068C2.20526 26.4207 1.87821 26.958 1.59788 27.542C1.48108 27.7756 1.36427 28.0326 1.27083 28.2662C0.336399 30.2052 -0.17754 33.0552 0.0560681 35.0876C0.242955 37.4237 0.9905 39.5728 2.29871 41.5352C4.26101 44.4553 7.368 46.511 10.8254 47.1885C14.2828 47.8659 17.9271 47.1184 20.8472 45.1561C21.8984 44.4319 22.8562 43.5675 23.6505 42.6098C23.6505 42.6098 23.6505 42.6098 23.6738 42.5864C25.239 41.0679 26.4538 38.1712 26.8509 36.1155C26.921 34.924 26.9911 33.7093 27.0612 32.5179C26.9444 30.1584 26.1968 28.0092 24.8652 26.0236Z" fill="#8CB347"/>
<path d="M5.05566 35.6949C5.05566 33.4756 5.6864 31.3498 6.78436 29.551C6.15362 28.0793 5.77985 26.4674 5.77985 24.7854C5.77985 21.0477 7.53191 17.6604 10.2418 15.4177C9.61102 13.946 9.26061 12.3575 9.26061 10.6755C9.26061 6.21359 11.7602 2.26561 15.4045 0.139778C14.6803 0.0229737 13.9561 -0.00038785 13.2086 0.0696946C12.3676 0.23322 11.55 0.420108 10.709 0.583633C9.09708 1.16765 7.7188 2.10209 6.57412 3.38693C4.82206 5.3726 3.95771 8.01237 4.14459 10.6521C4.23804 11.7735 4.51837 12.8714 4.96222 13.8759C4.9155 13.946 4.84541 13.9927 4.79869 14.0395C2.69622 16.4223 1.64499 19.5993 1.87859 22.7764C1.97204 23.8744 2.20564 24.949 2.57942 25.9535C2.229 26.4674 1.90196 27.0047 1.62163 27.5887C1.50482 27.8223 1.38802 28.0793 1.29457 28.3129C0.360142 30.2519 -0.153797 33.1019 0.0798108 35.1343C0.266697 37.4703 1.01424 39.6195 2.32245 41.5818C4.28476 44.5019 7.39174 46.5577 10.8491 47.2352C11.9471 47.4454 13.0684 47.5155 14.1897 47.4454C9.00364 46.0905 5.05566 41.2782 5.05566 35.6949Z" fill="#8CB347"/>
<path d="M10.8044 51.999L13.1405 28.6382H14.0749L16.411 51.999H10.8044Z" fill="#603E2A"/>
<path d="M13.1406 35.9755L17.5091 32.9854L17.7894 33.2657L14.7992 37.6342L13.1406 35.9755Z" fill="#603E2A"/>
<path d="M13.1429 42.7723L10.1761 38.4039L10.4331 38.1235L14.8015 41.1137L13.1429 42.7723Z" fill="#603E2A"/>
</svg>
