<svg width="986" height="88" viewBox="0 0 986 88" fill="none" xmlns="http://www.w3.org/2000/svg">
<path d="M843.007 63.0386L946.488 63.0386V20.0001L843.007 20.0001V63.0386Z" fill="#F1CA89"/>
<path d="M843.007 69.6309L946.488 69.6309V63.0293L843.007 63.0293V69.6309Z" fill="#3F423C"/>
<path d="M887.298 75.4639C887.32 75.1424 887.341 74.8209 887.341 74.478C887.341 68.4552 882.454 63.5684 876.432 63.5684C870.409 63.5684 865.522 68.4552 865.522 74.478C865.522 74.7995 865.543 75.1424 865.565 75.4639H887.298Z" fill="#688A3A"/>
<path d="M883.174 81.2682C886.891 77.5518 886.891 71.5263 883.174 67.81C879.458 64.0936 873.432 64.0936 869.716 67.81C866 71.5264 866 77.5518 869.716 81.2682C873.432 84.9845 879.458 84.9845 883.174 81.2682Z" fill="#3F423C"/>
<path d="M877.968 78.1617C879.969 77.3326 880.919 75.0381 880.09 73.0368C879.261 71.0354 876.967 70.085 874.965 70.914C872.964 71.743 872.014 74.0375 872.843 76.0389C873.672 78.0403 875.966 78.9907 877.968 78.1617Z" fill="#CAD2EA"/>
<path d="M876.451 72.3153C876.747 72.3153 876.987 72.0754 876.987 71.7795C876.987 71.4836 876.747 71.2437 876.451 71.2437C876.156 71.2437 875.916 71.4836 875.916 71.7795C875.916 72.0754 876.156 72.3153 876.451 72.3153Z" fill="#3F423C"/>
<path d="M876.987 77.3303C876.987 77.6303 876.752 77.8661 876.451 77.8661C876.151 77.8661 875.916 77.6303 875.916 77.3303C875.916 77.0302 876.151 76.7944 876.451 76.7944C876.73 76.7944 876.987 77.0302 876.987 77.3303Z" fill="#3F423C"/>
<path d="M878.403 73.1068C878.699 73.1068 878.939 72.8669 878.939 72.571C878.939 72.2751 878.699 72.0352 878.403 72.0352C878.107 72.0352 877.867 72.2751 877.867 72.571C877.867 72.8669 878.107 73.1068 878.403 73.1068Z" fill="#3F423C"/>
<path d="M874.866 76.8766C874.652 77.091 874.309 77.091 874.116 76.8766C873.901 76.6623 873.901 76.3194 874.116 76.1265C874.33 75.9336 874.673 75.9121 874.866 76.1265C875.059 76.3408 875.059 76.6837 874.866 76.8766Z" fill="#3F423C"/>
<path d="M879.216 75.0795C878.916 75.0795 878.68 74.8437 878.68 74.5436C878.68 74.2436 878.916 74.0078 879.216 74.0078C879.516 74.0078 879.751 74.2436 879.751 74.5436C879.751 74.8437 879.516 75.0795 879.216 75.0795Z" fill="#3F423C"/>
<path d="M873.665 75.0795C873.365 75.0795 873.129 74.8437 873.129 74.5436C873.129 74.2436 873.365 74.0078 873.665 74.0078C873.965 74.0078 874.201 74.2436 874.201 74.5436C874.201 74.8437 873.965 75.0795 873.665 75.0795Z" fill="#3F423C"/>
<path d="M878.039 76.8771C877.825 76.6628 877.825 76.3198 878.039 76.1269C878.253 75.934 878.596 75.9126 878.789 76.1269C879.004 76.3413 879.004 76.6842 878.789 76.8771C878.575 77.0914 878.232 77.0914 878.039 76.8771Z" fill="#3F423C"/>
<path d="M874.481 73.1073C874.777 73.1073 875.017 72.8674 875.017 72.5715C875.017 72.2755 874.777 72.0356 874.481 72.0356C874.185 72.0356 873.945 72.2755 873.945 72.5715C873.945 72.8674 874.185 73.1073 874.481 73.1073Z" fill="#3F423C"/>
<path d="M876.458 75.9795C877.251 75.9795 877.894 75.3366 877.894 74.5435C877.894 73.7504 877.251 73.1074 876.458 73.1074C875.665 73.1074 875.022 73.7504 875.022 74.5435C875.022 75.3366 875.665 75.9795 876.458 75.9795Z" fill="#3F423C"/>
<path d="M900.207 67.5163V71.7387H892.341V73.732H943.01V71.7387H935.144V67.5163H943.01V65.5229H892.341V67.5163H900.207ZM918.083 71.7387V67.5163H934.287V71.7387H918.083ZM901.043 67.5163H917.247V71.7387H901.043V67.5163Z" fill="#B2BFDF"/>
<path d="M845.184 60.7231L944.507 60.7231V21.9071L845.184 21.9071V60.7231Z" fill="#F1CA89"/>
<path d="M846.194 67.5163V71.7387H843V73.732H862.29V71.7387H857.553V67.5163H862.29V65.5229H843V67.5163H846.194ZM847.158 71.7387V67.5163H856.61V71.7387H847.158Z" fill="#B2BFDF"/>
<path d="M946.477 69.623H971.811V62.85H946.477V69.623Z" fill="#688A3A"/>
<path d="M946.488 63.0538V41.8775L947.452 32.2539C947.71 31.2036 948.695 30.4963 949.767 30.6035L969.079 32.5111C970.3 32.6397 971.415 33.3255 972.079 34.3543L981.467 49.1863C982.217 50.3652 982.603 51.7369 982.603 53.1301V71.1128C982.603 72.6346 981.746 74.0277 980.396 74.735C979.817 75.0351 979.174 75.1852 978.531 75.1852H969.014C969.014 68.4765 965.435 63.0324 958.726 63.0324L946.488 63.0538Z" fill="#82B440"/>
<path d="M964.539 76.7227H985.072V66.8847H964.539V76.7227Z" fill="#3F423C"/>
<path d="M979.879 66.8691V69.6984C979.879 71.4345 978.465 72.8277 976.75 72.8277H966.355V76.9857H984.273V66.8906L979.879 66.8691Z" fill="#688A3A"/>
<path d="M972.079 34.355C971.908 35.4267 972.143 36.4983 972.744 37.3985L979.131 47.0222C979.667 47.8152 980.545 48.2868 981.488 48.2868C981.488 48.3082 972.936 34.5264 972.079 34.355Z" fill="#CAD2EA"/>
<path d="M946.488 41.8569C947.345 43.7431 947.795 45.7793 947.795 47.8369V63.6977H945.094V41.8569H946.488Z" fill="#3F423C"/>
<path d="M969.998 75.1832C970.02 74.8617 970.041 74.5402 970.041 74.1972C970.041 68.1744 965.155 63.2876 959.132 63.2876C953.109 63.2876 948.222 68.1744 948.222 74.1972C948.222 74.5187 948.243 74.8617 948.265 75.1832H969.998Z" fill="#688A3A"/>
<path d="M968.426 76.7647C969.633 71.6498 966.466 66.5241 961.351 65.3164C956.236 64.1086 951.111 67.276 949.903 72.3909C948.695 77.5059 951.862 82.6314 956.977 83.8392C962.092 85.047 967.218 81.8796 968.426 76.7647Z" fill="#3F423C"/>
<path d="M962.982 75.4796C963.479 73.3714 962.174 71.2589 960.066 70.7611C957.958 70.2632 955.845 71.5687 955.347 73.6769C954.849 75.7851 956.155 77.8977 958.263 78.3955C960.371 78.8933 962.484 77.5878 962.982 75.4796Z" fill="#CAD2EA"/>
<path d="M959.684 71.7795C959.684 72.0796 959.448 72.3153 959.148 72.3153C958.848 72.3153 958.613 72.0796 958.613 71.7795C958.613 71.4794 958.848 71.2437 959.148 71.2437C959.448 71.2437 959.684 71.4794 959.684 71.7795Z" fill="#3F423C"/>
<path d="M959.684 77.3303C959.684 77.6303 959.448 77.8661 959.148 77.8661C958.848 77.8661 958.613 77.6303 958.613 77.3303C958.613 77.0302 958.848 76.7944 959.148 76.7944C959.448 76.7944 959.684 77.0302 959.684 77.3303Z" fill="#3F423C"/>
<path d="M961.483 72.9568C961.269 73.1712 960.926 73.1712 960.733 72.9568C960.519 72.7425 960.519 72.3996 960.733 72.2066C960.947 71.9923 961.29 71.9923 961.483 72.2066C961.676 72.421 961.698 72.7425 961.483 72.9568Z" fill="#3F423C"/>
<path d="M957.562 76.8781C957.347 77.0924 957.005 77.0924 956.812 76.8781C956.597 76.6638 956.597 76.3208 956.812 76.1279C957.026 75.935 957.369 75.9136 957.562 76.1279C957.776 76.3423 957.776 76.6852 957.562 76.8781Z" fill="#3F423C"/>
<path d="M961.912 75.0795C961.612 75.0795 961.376 74.8437 961.376 74.5436C961.376 74.2436 961.612 74.0078 961.912 74.0078C962.212 74.0078 962.447 74.2436 962.447 74.5436C962.447 74.8437 962.212 75.0795 961.912 75.0795Z" fill="#3F423C"/>
<path d="M956.361 75.0795C956.061 75.0795 955.825 74.8437 955.825 74.5436C955.825 74.2436 956.061 74.0078 956.361 74.0078C956.661 74.0078 956.897 74.2436 956.897 74.5436C956.897 74.8437 956.661 75.0795 956.361 75.0795Z" fill="#3F423C"/>
<path d="M960.735 76.8821C960.521 76.6678 960.521 76.3248 960.735 76.1319C960.949 75.9176 961.292 75.9176 961.485 76.1319C961.678 76.3463 961.699 76.6892 961.485 76.8821C961.271 77.0964 960.949 77.0964 960.735 76.8821Z" fill="#3F423C"/>
<path d="M957.177 73.1088C957.473 73.1088 957.713 72.8689 957.713 72.5729C957.713 72.277 957.473 72.0371 957.177 72.0371C956.881 72.0371 956.641 72.277 956.641 72.5729C956.641 72.8689 956.881 73.1088 957.177 73.1088Z" fill="#3F423C"/>
<path d="M959.154 75.9746C959.947 75.9746 960.59 75.3317 960.59 74.5386C960.59 73.7455 959.947 73.1025 959.154 73.1025C958.36 73.1025 957.718 73.7455 957.718 74.5386C957.718 75.3317 958.36 75.9746 959.154 75.9746Z" fill="#3F423C"/>
<path d="M981.891 65.4544H983.219C983.391 65.4544 983.541 65.3043 983.541 65.1329V60.3318C983.541 60.1603 983.391 60.0103 983.219 60.0103H981.891C981.269 60.0103 980.776 60.5032 980.776 61.1248V64.3184C980.776 64.94 981.269 65.4544 981.891 65.4544Z" fill="white"/>
<path d="M951.715 35.5314C951.715 34.8027 952.358 34.224 953.086 34.3097L967.04 35.8315C968.068 35.9601 968.99 36.5388 969.526 37.3961L976.149 47.77C976.535 48.3701 975.977 49.1417 975.292 48.9488H965.325C964.832 48.9488 964.339 48.7988 963.91 48.5416L952.786 41.5114C952.143 41.1041 951.736 40.3754 951.736 39.6038V35.5314H951.715Z" fill="#CAD2EA"/>
<mask id="mask0_1_350" style="mask-type:alpha" maskUnits="userSpaceOnUse" x="956" y="33" width="14" height="18">
<path d="M956.368 33.769L963.056 50.4443H969.593L963.999 34.9265L956.368 33.769Z" fill="url(#paint0_linear_1_350)"/>
</mask>
<g mask="url(#mask0_1_350)">
<path d="M956.367 33.7744L963.054 50.4497H969.591L963.997 34.9318L956.367 33.7744Z" fill="url(#paint1_linear_1_350)"/>
<path opacity="0.54" d="M951.715 35.5319L965.989 37.2466C966.933 37.3537 967.768 37.8681 968.283 38.6612L975.57 49.5923H977.756L968.369 35.3604L951.715 33.5386V35.5319" fill="#8296C9"/>
</g>
<path d="M978.142 65.5404H969.954C969.504 65.5404 969.054 65.4118 968.668 65.1546L967.254 64.2329C964.489 62.4539 961.295 61.5109 957.994 61.5109H951.007C950.193 61.5109 949.528 60.8464 949.528 60.032V34.0117C949.528 33.5616 949.721 33.1544 950.043 32.8543C950.364 32.5542 950.814 32.4256 951.243 32.4685L967.511 34.2689C968.861 34.4189 970.061 35.1477 970.812 36.2622L978.828 48.2007C979.149 48.6722 979.321 49.2295 979.321 49.8082V64.3401C979.342 65.0045 978.806 65.5404 978.142 65.5404ZM951.093 32.6614C950.771 32.6614 950.45 32.79 950.193 33.0043C949.914 33.2615 949.743 33.6259 949.743 34.0117V60.032C949.743 60.7393 950.321 61.318 951.029 61.318H958.016C961.338 61.318 964.575 62.2825 967.382 64.0829L968.797 65.0045C969.161 65.2403 969.568 65.3475 969.976 65.3475H978.163C978.699 65.3475 979.149 64.8974 979.149 64.3615V49.8296C979.149 49.2938 978.999 48.7794 978.699 48.3293L970.683 36.3908C969.954 35.3191 968.818 34.6333 967.532 34.4832L951.264 32.6828C951.179 32.6614 951.136 32.6614 951.093 32.6614Z" fill="#3F423C"/>
<path d="M954.627 51.5457H957.371C957.778 51.5457 958.099 51.3314 958.099 51.0742V50.4526H952.569L952.955 50.9027C953.298 51.31 953.941 51.5457 954.627 51.5457Z" fill="#CAD2EA"/>
<path d="M952.87 50.6886H957.799C957.949 50.6886 958.099 50.56 958.099 50.3886V49.617C958.099 49.4669 957.971 49.3169 957.799 49.3169H952.87C952.719 49.3169 952.569 49.4455 952.569 49.617V50.3886C952.591 50.56 952.719 50.6886 952.87 50.6886Z" fill="#3F423C"/>
<path d="M973.683 61.8331H976.32C976.77 61.8331 977.134 61.4688 977.134 61.0187V60.8472C977.134 60.3971 976.77 60.0327 976.32 60.0327H973.683C973.233 60.0327 972.869 60.3971 972.869 60.8472V61.0187C972.847 61.4688 973.233 61.8331 973.683 61.8331Z" fill="white"/>
<path d="M974.663 48.1979C974.663 48.7337 975.092 49.1624 975.628 49.1624C976.164 49.1624 976.592 48.7337 976.592 48.1979C976.592 47.6621 976.164 47.2334 975.628 47.2334C975.092 47.2334 974.663 47.6621 974.663 48.1979Z" fill="#688A3A"/>
<path d="M974.471 51.7362H974.943C975.414 51.7362 975.779 51.3504 975.779 50.9003V45.5205C975.779 45.0489 975.393 44.6846 974.943 44.6846H974.471V51.7362Z" fill="#3F423C"/>
<path d="M300.675 64.5059H291.369V76.0414H300.675V64.5059Z" fill="#F1CA89"/>
<path d="M307.823 64.5059H300.675V76.0414H307.823V64.5059Z" fill="#EFA856"/>
<path d="M297.494 64.5059H295.191V66.8093H297.494V64.5059Z" fill="#F2F3F7"/>
<path d="M300.675 52.9692H291.369V64.5048H300.675V52.9692Z" fill="#F1CA89"/>
<path d="M307.823 52.9692H300.675V64.5048H307.823V52.9692Z" fill="#F1B873"/>
<path d="M297.494 52.9692H295.191V55.2727H297.494V52.9692Z" fill="#F2F3F7"/>
<path d="M300.675 64.5789H292.065C292.028 64.5789 292.01 64.5424 292.01 64.5241C292.01 64.5058 292.047 64.4692 292.065 64.4692H300.675C300.712 64.4692 300.73 64.5058 300.73 64.5241C300.73 64.5424 300.712 64.5789 300.675 64.5789Z" fill="#E5A251"/>
<path d="M307.841 64.5789H301.388C301.351 64.5789 301.333 64.5424 301.333 64.5241C301.333 64.5058 301.37 64.4692 301.388 64.4692H307.841C307.878 64.4692 307.896 64.5058 307.896 64.5241C307.896 64.5424 307.878 64.5789 307.841 64.5789Z" fill="#E5A251"/>
<path d="M317.13 64.5059H307.824V76.0414H317.13V64.5059Z" fill="#F1CA89"/>
<path d="M324.276 64.5059H317.128V76.0414H324.276V64.5059Z" fill="#F1B873"/>
<path d="M319.667 64.9976H317.62V67.9409H319.667V64.9976Z" fill="#EFA856"/>
<path d="M313.949 64.5059H311.646V66.8093H313.949V64.5059Z" fill="#F2F3F7"/>
<path d="M317.166 56.1328H310.402V64.5057H317.166V56.1328Z" fill="#F1CA89"/>
<path d="M322.359 56.1328H317.167V64.5057H322.359V56.1328Z" fill="#F1B873"/>
<path d="M314.844 56.1328H313.162V57.8147H314.844V56.1328Z" fill="#F2F3F7"/>
<path d="M317.13 64.5789H308.52C308.483 64.5789 308.465 64.5424 308.465 64.5241C308.465 64.5058 308.502 64.4692 308.52 64.4692H317.13C317.167 64.4692 317.185 64.5058 317.185 64.5241C317.185 64.5424 317.167 64.5789 317.13 64.5789Z" fill="#E5A251"/>
<path d="M324.296 64.5789H317.843C317.806 64.5789 317.788 64.5424 317.788 64.5241C317.788 64.5058 317.825 64.4692 317.843 64.4692H324.296C324.333 64.4692 324.351 64.5058 324.351 64.5241C324.351 64.5424 324.333 64.5789 324.296 64.5789Z" fill="#E5A251"/>
<path d="M309.409 58.2896H304.564V67.9421H309.409V58.2896Z" fill="#F1CA89"/>
<path d="M311.11 58.2896H308.441V67.9421H311.11V58.2896Z" fill="#F1B873"/>
<path d="M307.18 58.2896H306.138V59.7155H307.18V58.2896Z" fill="#F2F3F7"/>
<path d="M304.567 58.7466H304.074V67.9421H304.567V58.7466Z" fill="#EFA856"/>
<path d="M309.542 67.9653H302.778V76.0457H309.542V67.9653Z" fill="#F1CA89"/>
<path d="M312.923 67.9448H309.523V76.0435H312.923V67.9448Z" fill="#EFA856"/>
<path d="M308.773 68.0194H302.777C302.741 68.0194 302.722 68.0011 302.722 67.9645C302.722 67.928 302.741 67.9097 302.777 67.9097H308.773C308.81 67.9097 308.828 67.928 308.828 67.9645C308.828 68.0011 308.792 68.0194 308.773 68.0194Z" fill="#E5A251"/>
<path d="M306.797 68.0205H305.5V69.5196H306.797V68.0205Z" fill="#F2F3F7"/>
<path d="M302.761 68.6191H302.121V76.0414H302.761V68.6191Z" fill="#E5A251"/>
<path d="M330.769 76.0396H287.04V77.4655H330.769V76.0396Z" fill="#343766"/>
<path d="M295.727 80.6772C296.001 79.5177 295.283 78.3559 294.123 78.0821C292.964 77.8083 291.802 78.5263 291.528 79.6858C291.254 80.8452 291.972 82.0071 293.132 82.2809C294.291 82.5547 295.453 81.8367 295.727 80.6772Z" fill="#343766"/>
<path d="M293.617 81.2285C294.213 81.2285 294.696 80.7456 294.696 80.1499C294.696 79.5542 294.213 79.0713 293.617 79.0713C293.021 79.0713 292.538 79.5542 292.538 80.1499C292.538 80.7456 293.021 81.2285 293.617 81.2285Z" fill="#CAD2EA"/>
<path d="M293.619 80.5368C293.107 80.5368 292.686 80.1163 292.686 79.6045V77.4473H294.551V79.6045C294.551 80.1163 294.131 80.5368 293.619 80.5368Z" fill="#8296C9"/>
<path d="M325.018 82.14C326.118 81.6841 326.641 80.4221 326.185 79.3214C325.729 78.2207 324.467 77.698 323.367 78.1539C322.266 78.6099 321.743 79.8718 322.199 80.9725C322.655 82.0732 323.917 82.596 325.018 82.14Z" fill="#343766"/>
<path d="M324.18 81.227C324.776 81.227 325.259 80.7441 325.259 80.1484C325.259 79.5527 324.776 79.0698 324.18 79.0698C323.584 79.0698 323.101 79.5527 323.101 80.1484C323.101 80.7441 323.584 81.227 324.18 81.227Z" fill="#CAD2EA"/>
<path d="M324.184 80.5339C323.672 80.5339 323.252 80.1134 323.252 79.6015V77.4443H325.116V79.6015C325.116 80.1134 324.696 80.5339 324.184 80.5339Z" fill="#8296C9"/>
<path d="M296.341 76.8423L289.34 59.676C289.23 59.4018 288.956 59.219 288.645 59.219H282.027C281.808 59.219 281.643 59.0545 281.643 58.8351C281.643 58.6157 281.808 58.4512 282.027 58.4512H288.645C289.285 58.4512 289.888 58.8351 290.107 59.4018L297.109 76.568L296.341 76.8423Z" fill="#343766"/>
<path d="M272.469 54.1004L271.519 54.8865C271.519 54.8865 270.733 53.552 270.641 52.7842C270.641 52.7842 270.879 55.0145 271.043 56.0017C271.208 57.062 275.376 57.0072 275.376 57.0072C275.376 57.0072 274.096 56.3856 272.469 54.1004Z" fill="#F4C54E"/>
<path d="M275.047 52.4391C275.541 53.2618 276.821 54.8523 276.821 54.8523L275.632 52.6219C275.431 52.2563 275.212 51.8907 274.956 51.5616L273.365 49.4775L275.011 52.3477C275.011 52.366 275.029 52.4026 275.047 52.4391Z" fill="#F4C54E"/>
<path d="M275.085 41.818C275.085 41.818 277.042 44.9075 275.268 45.3463C273.495 45.7668 271.831 44.0849 272.051 42.6224C272.27 41.1599 273.934 39.7156 275.085 41.818Z" fill="#FFACAD"/>
<path d="M275.596 42.7673C275.596 42.7673 272.982 43.0964 272.47 42.0909C272.47 42.0909 274.189 40.9209 274.956 41.0488C275.706 41.1585 275.596 42.7673 275.596 42.7673Z" fill="#C17276"/>
<path d="M272.086 43.354C272.086 43.354 272.854 45.4746 272.817 47.3393C272.817 47.3393 274.298 47.9061 275.139 47.6318C275.98 47.3576 273.933 43.9573 273.933 43.9573L272.086 43.354Z" fill="#FFACAD"/>
<path d="M274.698 45.4004C274.698 45.4004 274.406 45.4004 273.602 45.0713C273.602 45.0713 273.894 45.8208 274.936 45.9305C274.936 45.9122 274.808 45.5832 274.698 45.4004Z" fill="#C17276"/>
<path d="M273.069 41.8892L272.977 43.114C272.959 43.2603 272.904 43.4065 272.795 43.5162C272.795 43.5162 272.721 43.1506 272.557 43.1689C272.392 43.1871 272.063 43.8453 272.813 44.1012L272.776 44.7228C272.776 44.8873 272.685 45.0336 272.557 45.1067C272.557 45.1067 271.716 44.0098 271.588 43.4248C271.588 43.4431 272.21 42.4376 273.069 41.8892Z" fill="#343766"/>
<path d="M275.482 41.4662C275.482 41.4662 275.683 42.3803 275.463 42.49C275.463 42.49 275.006 41.6125 274.787 41.3565C274.769 41.3383 275.189 41.2834 275.482 41.4662Z" fill="#343766"/>
<path d="M271.587 43.4425C271.587 43.4425 273.086 41.0293 275.335 41.1939C275.335 41.1939 275.042 39.5303 272.885 40.2067C270.71 40.9014 271.587 43.4425 271.587 43.4425Z" fill="#F4C54E"/>
<path d="M272.795 42.0885C272.795 42.0885 273.91 39.4194 275.866 39.6022C276.835 39.6936 275.482 41.4487 275.482 41.4487C275.482 41.4487 274.422 41.1744 272.795 42.0885Z" fill="#F9DD89"/>
<path d="M272.468 46.6054C272.468 46.6054 274.68 45.6365 276.599 46.971L279.543 50.5359L278.318 52.9125L277.587 56.4773H270.841L270.603 52.0715C270.603 52.0532 268.245 48.5615 272.468 46.6054Z" fill="#82B53F"/>
<path d="M276.709 47.1182C276.709 47.1182 278.446 49.4765 278.775 52.0176C279.104 54.5587 278.775 52.0176 278.775 52.0176L278.19 53.4984L277.459 49.6044L276.709 47.1182Z" fill="#F4C54E"/>
<path d="M276.71 47.1139C276.564 46.8945 276.363 46.7117 276.107 46.6203L275.96 46.5654C275.96 46.5654 277.057 49.6002 277.277 51.3734L275.942 51.6111C275.942 51.6111 273.547 47.5526 272.176 46.7482L271.518 47.1504C271.518 47.1504 275.339 50.7702 275.247 54.1522C275.156 57.5343 270.732 54.1888 270.732 54.1888L270.129 62.5434C269.8 65.9803 270.11 69.4903 270.11 69.4903L269.013 80.4043L269.946 80.6602C269.946 80.6602 273.73 72.7261 274.352 69.9108C274.388 69.7828 274.406 69.6366 274.443 69.4903C274.571 69.8742 276.162 80.9527 276.162 80.9527L277.13 80.9345C277.13 80.9345 278.904 72.3788 278.849 69.4903C278.812 67.9364 279.525 51.6477 276.71 47.1139Z" fill="#F38844"/>
<path d="M274.424 69.4711L275.722 63.877C275.722 63.877 275.832 68.3011 275.905 69.4528C275.978 70.6045 275.302 75.0469 275.302 75.0469L274.424 69.4711Z" fill="#343766"/>
<path d="M270.603 52.0527L272.925 55.5445C272.925 55.5445 271.28 54.5756 270.731 54.1734L270.603 52.0527Z" fill="#F4C54E"/>
<path d="M268.943 80.2959L270.113 80.5518L269.93 81.1003C269.93 81.1003 271.173 81.5025 271.667 82.3251L268.705 81.7401L268.943 80.2959Z" fill="#1F1949"/>
<path d="M276.074 80.8615L277.262 80.8433L277.207 81.41C277.207 81.41 278.487 81.6476 279.145 82.3241H276.165L276.074 80.8615Z" fill="#1F1949"/>
<path d="M275.738 53.8398C275.738 53.8398 276.067 55.1744 276.159 55.2658C276.25 55.3572 283.636 57.3681 283.636 57.3681L283.179 58.465C283.179 58.465 274.422 57.7886 274.038 57.295C273.819 57.0025 272.246 54.4431 272.246 54.4431L275.738 53.8398Z" fill="#FFACAD"/>
<path d="M275.886 53.969L272.796 56.0531L271.845 53.7679L275.703 52.6162L275.886 53.969Z" fill="#C17276"/>
<path d="M283.622 57.3521L285.084 58.1199C285.084 58.1199 284.847 59.2167 284.353 59.1985C283.859 59.1802 283 58.9425 283 58.9425L283.165 58.4307C283.165 58.4489 282.47 57.4617 283.622 57.3521Z" fill="#FFACAD"/>
<path d="M276.016 53.8281L271.939 54.5411L270.604 52.0731C270.604 52.0731 268.922 49.0384 271.518 47.1554C273.2 45.9123 276.016 53.8281 276.016 53.8281Z" fill="#82B53F"/>
<path d="M279.436 50.7734L281.629 53.735L287.351 58.4516H285.615L280.368 55.5449L278.448 54.0092L278.32 52.8941L279.436 50.7734Z" fill="#FFACAD"/>
<path d="M280.076 51.3586L279.052 54.8504L277.571 53.6072L279.271 49.8047L280.076 51.3586Z" fill="#C17276"/>
<path d="M399.893 48.2026L397.553 50.1039H392.141L393.256 51.4567L399.07 52.2063L400.88 51.0545L401.026 50.2319L399.893 48.2026Z" fill="#C17276"/>
<path d="M393.202 51.7984C392.489 51.0854 391.886 50.3725 391.483 49.7692C390.972 49.0196 390.862 48.5809 391.118 48.3249C391.374 48.069 391.813 48.197 392.562 48.6906C393.165 49.0928 393.878 49.7143 394.591 50.409C395.304 51.122 395.908 51.835 396.31 52.4383C396.822 53.1878 396.931 53.6266 396.675 53.8825C396.602 53.9556 396.493 53.9922 396.365 53.9922C395.469 54.0105 393.622 52.2006 393.202 51.7984ZM393.568 51.4328C394.957 52.8222 395.981 53.4437 396.291 53.4986C396.237 53.1878 395.615 52.164 394.226 50.7747C392.836 49.3853 391.813 48.7637 391.502 48.7088C391.557 49.0196 392.16 50.0434 393.568 51.4328Z" fill="#343766"/>
<path d="M392.085 56.9754L394.334 50.6866L393.731 50.1016L391.299 56.9754H392.085Z" fill="#343766"/>
<path d="M413.181 52.2231H398.172L397.807 54.0878V66.3912H405.211V60.8702H413.108L413.181 52.2231Z" fill="#343766"/>
<path d="M412.578 52.2056H403.218L399.799 60.8709H408.026L412.578 52.2056Z" fill="#F4C54E"/>
<path d="M400.054 59.0245H408.591L410.145 53.9971C410.474 52.9368 411.462 52.2056 412.577 52.2056L409.889 60.8709L399.231 60.8892V59.8289C399.231 59.3901 399.597 59.0245 400.054 59.0245Z" fill="#F9DD89"/>
<path d="M406.547 51.5847L407.425 52.316C407.425 52.316 408.156 51.0546 408.247 50.3599C408.247 50.3599 408.01 52.4622 407.882 53.3763C407.735 54.3818 403.823 54.3087 403.823 54.3087C403.823 54.3087 405.011 53.7237 406.547 51.5847Z" fill="#F4C54E"/>
<path d="M404.134 50.03C403.677 50.7978 402.489 52.2969 402.489 52.2969L403.604 50.2128C403.787 49.8655 404.006 49.5364 404.244 49.2256L405.743 47.2695L404.207 49.9569C404.171 49.9752 404.152 49.9935 404.134 50.03Z" fill="#F4C54E"/>
<path d="M402.872 40.4891C402.872 40.4891 401.94 43.798 403.658 43.7066C405.377 43.6152 406.419 41.6408 405.834 40.3977C405.23 39.1362 403.347 38.2953 402.872 40.4891Z" fill="#DA8C8D"/>
<path d="M402.672 41.4774C402.672 41.4774 405.104 41.0752 405.305 40.0332C405.305 40.0332 403.44 39.4482 402.8 39.759C402.142 40.0697 402.672 41.4774 402.672 41.4774Z" fill="#C17276"/>
<path d="M405.98 41.0728C405.98 41.0728 405.87 43.1934 406.4 44.8387C406.4 44.8387 405.23 45.7345 404.389 45.7162C403.548 45.6979 404.499 42.0965 404.499 42.0965L405.98 41.0728Z" fill="#DA8C8D"/>
<path d="M403.056 42.0988C403.056 42.0988 403.714 42.0074 403.915 42.2451C404.116 42.4827 404.226 42.8301 404.226 42.8301L403.129 42.3548L403.056 42.0988Z" fill="#343766"/>
<path d="M403.055 42.0972L402.89 42.0241C402.744 41.9692 402.598 42.0424 402.543 42.1886L402.488 42.3349L403.146 42.3531L403.055 42.0972Z" fill="#343766"/>
<path d="M404.168 43.5977C404.168 43.5977 404.424 43.5246 405.064 43.0127C405.064 43.0127 405.009 43.7622 404.095 44.1279C404.095 44.1461 404.132 43.7988 404.168 43.5977Z" fill="#C17276"/>
<path d="M404.698 40.0132L405.1 41.0918C405.155 41.2198 405.246 41.3477 405.374 41.4026C405.374 41.4026 405.338 41.0552 405.484 41.0187C405.63 40.9821 406.106 41.494 405.502 41.9327L405.703 42.4812C405.758 42.6274 405.868 42.7371 406.014 42.7737C406.014 42.7737 406.471 41.5671 406.435 41.0004C406.453 41.0187 405.612 40.2874 404.698 40.0132Z" fill="#343766"/>
<path d="M402.413 40.2883C402.413 40.2883 402.486 41.1476 402.705 41.2024C402.705 41.2024 402.888 40.2883 403.016 39.9958C403.016 39.9776 402.632 40.0507 402.413 40.2883Z" fill="#343766"/>
<path d="M406.451 41.0193C406.451 41.0193 404.459 39.246 402.484 40.0138C402.484 40.0138 402.301 38.4416 404.422 38.4782C406.543 38.5147 406.451 41.0193 406.451 41.0193Z" fill="#F4C54E"/>
<path d="M404.99 40.123C404.99 40.123 403.765 39.3004 402.065 39.9951C401.205 40.3424 402.43 40.2875 402.43 40.2875C402.43 40.2875 403.289 39.7391 404.99 40.123Z" fill="#F9DD89"/>
<path d="M406.546 44.5652C406.546 44.5652 404.48 43.6511 402.67 44.9125L399.709 47.8741L401.061 50.4701L401.756 53.8155H408.081L408.264 50.3603C408.264 50.3603 410.513 46.3933 406.546 44.5652Z" fill="#F9DD89"/>
<path d="M408.265 50.3594L406.821 51.8036L406.546 51.5842L405.157 53.2661H405.852L408.393 52.3338L408.265 50.3594Z" fill="#F4C54E"/>
<path d="M402.561 45.042C402.561 45.042 400.934 47.254 400.624 49.6306C400.313 52.0072 400.624 49.6306 400.624 49.6306L401.172 51.02L401.867 47.382L402.561 45.042Z" fill="#F4C54E"/>
<path d="M400.606 56.3559C400.697 51.3468 401.063 47.4894 402.58 45.0397C402.708 44.8203 402.909 44.6741 403.147 44.5827L403.293 44.5278C403.293 44.5278 402.269 47.3615 402.068 49.0251L403.311 49.2444C403.311 49.2444 405.651 45.4602 406.931 44.7106L407.498 45.058C407.498 45.058 403.878 48.4583 403.969 51.621C404.061 54.802 408.211 51.6576 408.211 51.6576L408.558 56.301C408.595 56.685 408.558 57.0689 408.485 57.4345C408.156 59.0616 406.931 60.3412 405.322 60.7252L398.43 62.0414L392.434 69.2443L391.483 68.769L394.262 60.7069C394.829 59.0798 396.108 57.8184 397.754 57.2882L400.606 56.3559Z" fill="#39548B"/>
<path d="M400.606 56.3555L402.799 56.5017L398.211 57.1233L400.606 56.3555Z" fill="#343766"/>
<path d="M396.476 66.3892H414.19V60.8682H396.476V66.3892Z" fill="#343766"/>
<path d="M412.615 67.4533V56.978H418.465C419.27 56.978 419.91 57.6362 419.91 58.4405V79.8663H399.745H389.069V67.4167L412.615 67.4533Z" fill="#F9DD89"/>
<path d="M417.498 71.0693H420.88V73.5922C421.337 74.5245 421.593 75.6397 421.593 76.8645C421.593 78.0894 421.337 79.2046 420.88 80.1369V82.6597H417.498C415.231 82.6597 413.385 80.0638 413.385 76.8645C413.385 73.6653 415.231 71.0693 417.498 71.0693Z" fill="#1F1949"/>
<path d="M420.899 82.6597C423.17 82.6597 425.012 80.0651 425.012 76.8645C425.012 73.6639 423.17 71.0693 420.899 71.0693C418.627 71.0693 416.785 73.6639 416.785 76.8645C416.785 80.0651 418.627 82.6597 420.899 82.6597Z" fill="#343766"/>
<path d="M422.599 76.8642C422.599 75.3469 421.777 74.1038 420.716 73.9758C420.771 73.9758 420.826 73.9575 420.881 73.9575C422.014 73.9575 422.929 75.2555 422.929 76.846C422.929 78.4364 422.014 79.7344 420.881 79.7344C420.826 79.7344 420.771 79.7344 420.716 79.7162C421.777 79.6248 422.599 78.3816 422.599 76.8642Z" fill="#8296C9"/>
<path d="M420.718 79.752C421.758 79.752 422.601 78.4588 422.601 76.8635C422.601 75.2683 421.758 73.9751 420.718 73.9751C419.678 73.9751 418.835 75.2683 418.835 76.8635C418.835 78.4588 419.678 79.752 420.718 79.752Z" fill="#CAD2EA"/>
<path d="M416.09 67.4541H419.911V63.3225H416.09V67.4541Z" fill="#F4C54E"/>
<path d="M390.295 68.4224H397.516C399.819 68.4224 402.05 69.3364 403.677 70.9818C405.304 72.6088 406.236 74.8391 406.236 77.1426V79.8848H390.313V68.4224H390.295Z" fill="#F4C54E"/>
<path d="M396.072 71.0693H399.454V73.5922C399.911 74.5245 400.167 75.6397 400.167 76.8645C400.167 78.0894 399.911 79.2046 399.454 80.1369V82.6597H396.072C393.805 82.6597 391.959 80.0638 391.959 76.8645C391.959 73.6653 393.805 71.0693 396.072 71.0693Z" fill="#1F1949"/>
<path d="M399.455 82.6597C401.727 82.6597 403.568 80.0651 403.568 76.8645C403.568 73.6639 401.727 71.0693 399.455 71.0693C397.183 71.0693 395.342 73.6639 395.342 76.8645C395.342 80.0651 397.183 82.6597 399.455 82.6597Z" fill="#343766"/>
<path d="M401.173 76.8642C401.173 75.3469 400.351 74.1038 399.291 73.9758C399.345 73.9758 399.4 73.9575 399.455 73.9575C400.589 73.9575 401.503 75.2555 401.503 76.846C401.503 78.4364 400.589 79.7344 399.455 79.7344C399.4 79.7344 399.345 79.7344 399.291 79.7162C400.333 79.6248 401.173 78.3816 401.173 76.8642Z" fill="#8296C9"/>
<path d="M399.292 79.752C400.332 79.752 401.175 78.4588 401.175 76.8635C401.175 75.2683 400.332 73.9751 399.292 73.9751C398.252 73.9751 397.409 75.2683 397.409 76.8635C397.409 78.4588 398.252 79.752 399.292 79.752Z" fill="#CAD2EA"/>
<path d="M390.295 69.792H397.077C398.174 69.792 399.07 68.8962 399.07 67.7993H390.295V69.792Z" fill="#F9DD89"/>
<path d="M413.164 67.4463H414.188V60.865H413.164V67.4463Z" fill="#343766"/>
<path d="M395.577 52.2974L401.957 54.7836C402.305 54.9299 402.689 54.9664 403.073 54.9116C403.566 54.8385 404.023 54.5825 404.352 54.1986L406.564 51.6027L404.316 49.6831L402.488 52.2974L396.674 51.3467C396.674 51.3467 395.34 50.6886 395.12 50.5972C395.011 50.5606 394.809 50.5972 394.627 50.652C394.389 50.7069 394.261 50.9445 394.316 51.1822C394.371 51.4381 394.48 51.7489 394.608 51.8403C394.809 52.0049 395.577 52.2974 395.577 52.2974Z" fill="#DA8C8D"/>
<path d="M403.969 49.9214C404.134 50.0311 405.907 52.8098 405.907 52.8098L406.803 51.3839L404.445 49.2998L403.969 49.9214Z" fill="#C17276"/>
<path d="M391.683 50.0478C391.683 50.0478 392.012 49.993 392.25 50.1209C392.488 50.2672 393.31 51.1081 393.31 51.1081C393.31 51.1081 392.999 51.492 392.652 51.492C392.305 51.492 391.683 51.1447 391.592 50.9436C391.5 50.7425 391.683 50.0478 391.683 50.0478Z" fill="#C17276"/>
<path d="M412.157 35.8623L412.888 36.9775C413.035 37.1968 413.108 37.4528 413.108 37.7087V60.8712H414.186V35.8623H412.157Z" fill="#343766"/>
<path d="M384.225 35.5721L380.916 49.6122V67.4548H416.053V38.04C416.053 37.3454 415.87 36.6507 415.523 36.0474C414.7 34.6214 413.183 33.7622 411.538 33.7622H386.511C385.432 33.7622 384.481 34.5117 384.225 35.5721ZM397.991 35.7183H400.002C400.24 35.7183 400.423 35.9377 400.386 36.1571L398.905 44.5299L397.79 35.956C397.754 35.8463 397.845 35.7183 397.991 35.7183ZM402.69 36.2119C402.726 35.9925 402.909 35.8463 403.128 35.8463L412.123 35.8828C412.817 35.8828 413.457 36.2302 413.841 36.8152C414.061 37.1443 414.189 37.5464 414.189 37.9486V60.8918H408.631C407.26 60.8918 406.145 62.007 406.145 63.3781V66.4128H397.388L402.69 36.2119ZM382.799 49.6487L385.779 37.126C385.98 36.3033 386.712 35.7183 387.571 35.7183H395.158C395.395 35.7183 395.596 35.9011 395.633 36.1388L397.808 50.6542L394.975 66.4311L382.799 56.9796V49.6487V49.6487Z" fill="#8296C9"/>
<path d="M397.992 35.7173H394.775L397.81 50.6532L399.4 41.677L397.992 35.7173Z" fill="#343766"/>
<path d="M396.675 56.978L394.975 66.4295L390.295 66.3929V56.978H396.675Z" fill="#CAD2EA"/>
<path d="M373.365 78.5981H381.573V37.7392H373.365V78.5981Z" fill="#343766"/>
<path d="M374.257 78.606H375.153V39.2096H374.257V78.606Z" fill="#1F1949"/>
<path d="M372.778 39.2075H383.472V37.7267H372.778V39.2075Z" fill="#F9DD89"/>
<path d="M371.166 39.2075H373.506V37.7267H371.166V39.2075Z" fill="#F4C54E"/>
<path d="M374.03 59.5854H372.092V78.5981H374.03V59.5854Z" fill="#CAD2EA"/>
<path d="M375.163 59.5854H374.029V78.5981H375.163V59.5854Z" fill="#8296C9"/>
<path d="M382.127 79.8628H390.336V40.119H382.127V79.8628Z" fill="#343766"/>
<path d="M383.02 79.853H383.916V41.5352H383.02V79.853Z" fill="#1F1949"/>
<path d="M381.54 41.5493H392.235V40.1234H381.54V41.5493Z" fill="#F9DD89"/>
<path d="M379.946 41.5493H382.286V40.1234H379.946V41.5493Z" fill="#F4C54E"/>
<path d="M382.789 61.3613H380.851V78.6007H382.789V61.3613Z" fill="#B2BFDF"/>
<path d="M382.789 61.3613V78.6007H345.971V79.8621H383.923V78.6007V61.3613H382.789Z" fill="#CAD2EA"/>
<path d="M345.976 79.8569H354.623V78.6138H345.976V79.8569Z" fill="#B2BFDF"/>
<path d="M362.236 76.1455H379.147V57.791H362.236V76.1455Z" fill="#F1B873"/>
<path d="M364.115 57.7998H365.943L371.629 65.6974L377.333 57.7998H379.161L372.543 66.9771L379.161 76.1543H377.333L371.629 68.2385L365.943 76.1543H364.115L370.715 66.9771L364.115 57.7998Z" fill="#F1CA89"/>
<path d="M379.154 76.1455H381.311V57.791H379.154V76.1455Z" fill="#F1CA89"/>
<path d="M361.905 76.1455H364.062V57.791H361.905V76.1455Z" fill="#F1CA89"/>
<path d="M360.863 57.8022H382.106V55.3525H360.863V57.8022Z" fill="#F1CA89"/>
<path d="M347.808 57.7998H360.879V55.3501H347.808V57.7998Z" fill="#F1B873"/>
<path d="M347.808 78.6025H360.879V76.1528H347.808V78.6025Z" fill="#F1B873"/>
<path d="M360.863 78.6025H382.106V76.1528H360.863V78.6025Z" fill="#F1CA89"/>
<path d="M349.663 76.1455H361.893V57.791H349.663V76.1455Z" fill="#EFA856"/>
<path opacity="0.5" d="M361.901 58.8164H381.316V57.7927H361.901V58.8164Z" fill="#EFA856"/>
<path opacity="0.8" d="M361.893 76.1543V57.7998H360.869V76.1543H361.893Z" fill="#ED963E"/>
<path opacity="0.5" d="M361.906 76.1455H381.339V75.1217H361.906V76.1455Z" fill="#EFA856"/>
<path d="M351.047 76.1416V57.7871H348.597V76.1416H351.047Z" fill="#F1B873"/>
<path d="M350.277 57.7998H351.685L356.091 65.6974L360.496 57.7998H361.904L356.785 66.9771L361.904 76.1543H360.496L356.091 68.2385L351.685 76.1543H350.277L355.378 66.9771L350.277 57.7998Z" fill="#F1B873"/>
<path opacity="0.8" d="M361.885 57.7998H348.595V58.8236H361.885V57.7998Z" fill="#ED963E"/>
<path opacity="0.8" d="M361.885 75.1318H348.595V76.1556H361.885V75.1318Z" fill="#ED963E"/>
<path d="M362.236 53.0439H379.147V34.6894H362.236V53.0439Z" fill="#F1B873"/>
<path d="M364.115 34.6929H365.943L371.629 42.6087L377.333 34.6929H379.161L372.543 43.8701L379.161 53.0474H377.333L371.629 45.1315L365.943 53.0474H364.115L370.715 43.8701L364.115 34.6929Z" fill="#F1CA89"/>
<path d="M379.154 53.0439H381.311V34.6894H379.154V53.0439Z" fill="#F1CA89"/>
<path d="M361.905 53.0439H364.062V34.6894H361.905V53.0439Z" fill="#F1CA89"/>
<path d="M360.863 34.6826H382.106V32.2329H360.863V34.6826Z" fill="#F1CA89"/>
<path d="M347.808 34.6802H360.879V32.2305H347.808V34.6802Z" fill="#F1B873"/>
<path d="M347.808 55.5005H360.879V53.0508H347.808V55.5005Z" fill="#F1B873"/>
<path d="M360.863 55.5005H382.106V53.0508H360.863V55.5005Z" fill="#F1CA89"/>
<path d="M349.663 53.0439H361.893V34.6894H349.663V53.0439Z" fill="#EFA856"/>
<path opacity="0.5" d="M361.901 35.7144H381.316V34.6906H361.901V35.7144Z" fill="#EFA856"/>
<path opacity="0.8" d="M361.896 53.0498V34.6953H360.872V53.0498H361.896Z" fill="#ED963E"/>
<path opacity="0.5" d="M361.906 53.0439H381.339V52.0202H361.906V53.0439Z" fill="#EFA856"/>
<path d="M351.052 53.0371V34.6826H348.602V53.0371H351.052Z" fill="#F1B873"/>
<path d="M350.277 34.6929H351.685L356.091 42.6087L360.496 34.6929H361.904L356.785 43.8701L361.904 53.0474H360.496L356.091 45.1315L351.685 53.0474H350.277L355.378 43.8701L350.277 34.6929Z" fill="#F1B873"/>
<path opacity="0.8" d="M361.885 34.6929H348.595V35.7166H361.885V34.6929Z" fill="#ED963E"/>
<path opacity="0.8" d="M361.885 52.022H348.595V53.0457H361.885V52.022Z" fill="#ED963E"/>
<path d="M382.105 55.6611H354.921C354.829 55.6611 354.756 55.588 354.756 55.4966C354.756 55.4052 354.829 55.332 354.921 55.332H382.105C382.196 55.332 382.27 55.4052 382.27 55.4966C382.27 55.588 382.196 55.6611 382.105 55.6611Z" fill="#E5A251"/>
<path d="M353.167 55.6407H348.194C348.121 55.6407 348.066 55.5859 348.066 55.5127C348.066 55.4396 348.121 55.3848 348.194 55.3848H353.167C353.24 55.3848 353.295 55.4396 353.295 55.5127C353.295 55.5859 353.258 55.6407 353.167 55.6407Z" fill="#E5A251"/>
<path d="M217.424 79.6885H233.932V61.7544H217.424V79.6885Z" fill="#F1B873"/>
<path d="M219.229 61.7466H221.021L226.578 69.4796L232.136 61.7466H233.927L227.474 70.7227L233.927 79.6806H232.136L226.578 71.9476L221.021 79.6806H219.229L225.682 70.7227L219.229 61.7466Z" fill="#F1CA89"/>
<path d="M233.916 79.6885H236.036V61.7544H233.916V79.6885Z" fill="#F1CA89"/>
<path d="M217.068 79.6885H219.189V61.7544H217.068V79.6885Z" fill="#F1CA89"/>
<path d="M216.066 61.7588H236.816V59.3639H216.066V61.7588Z" fill="#F1CA89"/>
<path d="M203.285 61.7563H216.063V59.3615H203.285V61.7563Z" fill="#F1B873"/>
<path d="M203.321 82.0801H216.063V79.6852H203.321V82.0801Z" fill="#F1B873"/>
<path d="M216.066 82.0801H236.816V79.6852H216.066V82.0801Z" fill="#F1CA89"/>
<path d="M205.109 79.6885H217.065V61.7544H205.109V79.6885Z" fill="#EFA856"/>
<path opacity="0.5" d="M217.083 62.7656H236.041V61.7601H217.083V62.7656Z" fill="#EFA856"/>
<path opacity="0.8" d="M217.077 79.6831V61.749H216.072V79.6831H217.077Z" fill="#ED963E"/>
<path opacity="0.5" d="M217.067 79.686H236.061V78.6806H217.067V79.686Z" fill="#EFA856"/>
<path d="M206.483 79.6904V61.7563H204.088V79.6904H206.483Z" fill="#F1B873"/>
<path d="M205.719 61.7466H207.09L211.386 69.4796L215.7 61.7466H217.071L212.081 70.7227L217.071 79.6806H215.7L211.386 71.9476L207.09 79.6806H205.719L210.709 70.7227L205.719 61.7466Z" fill="#F1B873"/>
<path opacity="0.8" d="M217.071 61.7466H204.092V62.7521H217.071V61.7466Z" fill="#ED963E"/>
<path opacity="0.8" d="M217.071 78.6748H204.092V79.6803H217.071V78.6748Z" fill="#ED963E"/>
<path d="M192.987 79.6885H209.495V61.7544H192.987V79.6885Z" fill="#F1B873"/>
<path d="M194.807 61.7461H196.599L202.156 69.4791L207.732 61.7461H209.505L203.052 70.7223L209.505 79.6801H207.732L202.156 71.9471L196.599 79.6801H194.807L201.26 70.7223L194.807 61.7461Z" fill="#F1CA89"/>
<path d="M209.499 79.6885H211.619V61.7544H209.499V79.6885Z" fill="#F1CA89"/>
<path d="M192.651 79.6885H194.772V61.7544H192.651V79.6885Z" fill="#F1CA89"/>
<path d="M191.649 61.7588H212.399V59.3639H191.649V61.7588Z" fill="#F1CA89"/>
<path d="M178.868 61.7563H191.646V59.3615H178.868V61.7563Z" fill="#F1B873"/>
<path d="M178.904 82.0796H191.646V79.6847H178.904V82.0796Z" fill="#F1B873"/>
<path d="M191.649 82.0796H212.399V79.6847H191.649V82.0796Z" fill="#F1CA89"/>
<path d="M180.692 79.6885H192.648V61.7544H180.692V79.6885Z" fill="#EFA856"/>
<path opacity="0.5" d="M192.666 62.7651H211.624V61.7597H192.666V62.7651Z" fill="#EFA856"/>
<path opacity="0.8" d="M192.658 79.6777V61.7437H191.652V79.6777H192.658Z" fill="#ED963E"/>
<path opacity="0.5" d="M192.65 79.686H211.644V78.6806H192.65V79.686Z" fill="#EFA856"/>
<path d="M182.063 79.688V61.7539H179.669V79.688H182.063Z" fill="#F1B873"/>
<path d="M181.299 61.7461H182.67L186.985 69.4791L191.281 61.7461H192.652L187.661 70.7223L192.652 79.6801H191.281L186.985 71.9471L182.67 79.6801H181.299L186.29 70.7223L181.299 61.7461Z" fill="#F1B873"/>
<path opacity="0.8" d="M192.649 61.7461H179.67V62.7516H192.649V61.7461Z" fill="#ED963E"/>
<path opacity="0.8" d="M192.649 78.6743H179.67V79.6798H192.649V78.6743Z" fill="#ED963E"/>
<path d="M167.575 79.6885H184.083V61.7544H167.575V79.6885Z" fill="#F1B873"/>
<path d="M169.392 61.7461H171.165L176.741 69.4791L182.299 61.7461H184.09L177.619 70.7223L184.09 79.6801H182.299L176.741 71.9471L171.165 79.6801H169.392L175.845 70.7223L169.392 61.7461Z" fill="#F1CA89"/>
<path d="M184.066 79.6885H186.186V61.7544H184.066V79.6885Z" fill="#F1CA89"/>
<path d="M167.221 79.6885H169.341V61.7544H167.221V79.6885Z" fill="#F1CA89"/>
<path d="M166.219 61.7588H186.968V59.3639H166.219V61.7588Z" fill="#F1CA89"/>
<path d="M153.455 61.7563H166.234V59.3615H153.455V61.7563Z" fill="#F1B873"/>
<path d="M153.492 82.0796H166.234V79.6847H153.492V82.0796Z" fill="#F1B873"/>
<path d="M166.219 82.0796H186.968V79.6847H166.219V82.0796Z" fill="#F1CA89"/>
<path d="M155.279 79.6885H167.235V61.7544H155.279V79.6885Z" fill="#EFA856"/>
<path opacity="0.5" d="M167.234 62.7651H186.192V61.7597H167.234V62.7651Z" fill="#EFA856"/>
<path opacity="0.8" d="M167.235 79.688V61.7539H166.23V79.688H167.235Z" fill="#ED963E"/>
<path opacity="0.5" d="M167.22 79.686H186.214V78.6806H167.22V79.686Z" fill="#EFA856"/>
<path d="M156.641 79.6777V61.7437H154.246V79.6777H156.641Z" fill="#F1B873"/>
<path d="M155.864 61.7461H157.253L161.549 69.4791L165.846 61.7461H167.235L162.244 70.7223L167.235 79.6801H165.846L161.549 71.9471L157.253 79.6801H155.864L160.855 70.7223L155.864 61.7461Z" fill="#F1B873"/>
<path opacity="0.8" d="M167.217 61.7461H154.237V62.7516H167.217V61.7461Z" fill="#ED963E"/>
<path opacity="0.8" d="M167.217 78.6743H154.237V79.6798H167.217V78.6743Z" fill="#ED963E"/>
<path d="M192.988 56.8525H209.496V38.9185H192.988V56.8525Z" fill="#F1B873"/>
<path d="M194.808 38.9302H196.599L202.157 46.6632L207.732 38.9302H209.506L203.052 47.8881L209.506 56.8642H207.732L202.157 49.1312L196.599 56.8642H194.808L201.261 47.8881L194.808 38.9302Z" fill="#F1CA89"/>
<path d="M209.499 56.8525H211.62V38.9185H209.499V56.8525Z" fill="#F1CA89"/>
<path d="M192.652 56.8525H194.772V38.9185H192.652V56.8525Z" fill="#F1CA89"/>
<path d="M191.65 38.9229H212.399V36.528H191.65V38.9229Z" fill="#F1CA89"/>
<path d="M178.868 38.9204H191.647V36.5255H178.868V38.9204Z" fill="#F1B873"/>
<path d="M178.905 59.2437H191.647V56.8488H178.905V59.2437Z" fill="#F1B873"/>
<path d="M191.65 59.2437H212.399V56.8488H191.65V59.2437Z" fill="#F1CA89"/>
<path d="M180.692 56.8525H192.648V38.9185H180.692V56.8525Z" fill="#EFA856"/>
<path opacity="0.5" d="M192.667 39.9268H211.625V38.9213H192.667V39.9268Z" fill="#EFA856"/>
<path opacity="0.8" d="M192.648 56.8545V38.9204H191.643V56.8545H192.648Z" fill="#ED963E"/>
<path opacity="0.5" d="M192.651 56.8501H211.645V55.8446H192.651V56.8501Z" fill="#EFA856"/>
<path d="M182.056 56.8618V38.9277H179.662V56.8618H182.056Z" fill="#F1B873"/>
<path d="M181.3 38.9302H182.671L186.985 46.6632L191.281 38.9302H192.652L187.662 47.8881L192.652 56.8642H191.281L186.985 49.1312L182.671 56.8642H181.3L186.291 47.8881L181.3 38.9302Z" fill="#F1B873"/>
<path opacity="0.8" d="M192.65 38.9302H179.67V39.9357H192.65V38.9302Z" fill="#ED963E"/>
<path opacity="0.8" d="M192.65 55.8584H179.67V56.8639H192.65V55.8584Z" fill="#ED963E"/>
<path d="M167.575 56.8525H184.083V38.9185H167.575V56.8525Z" fill="#F1B873"/>
<path d="M169.393 38.9302H171.166L176.742 46.6632L182.299 38.9302H184.091L177.619 47.8881L184.091 56.8642H182.299L176.742 49.1312L171.166 56.8642H169.393L175.846 47.8881L169.393 38.9302Z" fill="#F1CA89"/>
<path d="M184.066 56.8525H186.187V38.9185H184.066V56.8525Z" fill="#F1CA89"/>
<path d="M167.221 56.8525H169.342V38.9185H167.221V56.8525Z" fill="#F1CA89"/>
<path d="M166.22 38.9229H186.969V36.528H166.22V38.9229Z" fill="#F1CA89"/>
<path d="M153.456 38.9204H166.234V36.5255H153.456V38.9204Z" fill="#F1B873"/>
<path d="M153.492 59.2437H166.234V56.8488H153.492V59.2437Z" fill="#F1B873"/>
<path d="M166.22 59.2437H186.969V56.8488H166.22V59.2437Z" fill="#F1CA89"/>
<path d="M155.28 56.8525H167.236V38.9185H155.28V56.8525Z" fill="#EFA856"/>
<path opacity="0.5" d="M167.234 39.9268H186.192V38.9213H167.234V39.9268Z" fill="#EFA856"/>
<path opacity="0.8" d="M167.226 56.8618V38.9277H166.22V56.8618H167.226Z" fill="#ED963E"/>
<path opacity="0.5" d="M167.22 56.8501H186.215V55.8446H167.22V56.8501Z" fill="#EFA856"/>
<path d="M156.634 56.852V38.918H154.239V56.852H156.634Z" fill="#F1B873"/>
<path d="M155.865 38.9302H157.254L161.55 46.6632L165.846 38.9302H167.236L162.245 47.8881L167.236 56.8642H165.846L161.55 49.1312L157.254 56.8642H155.865L160.855 47.8881L155.865 38.9302Z" fill="#F1B873"/>
<path opacity="0.8" d="M167.217 38.9302H154.238V39.9357H167.217V38.9302Z" fill="#ED963E"/>
<path opacity="0.8" d="M167.217 55.8584H154.238V56.8639H167.217V55.8584Z" fill="#ED963E"/>
<path d="M493.616 82.988H0.38391C0.182815 82.988 0 82.8235 0 82.6041C0 82.3847 0.164534 82.2202 0.38391 82.2202H493.616C493.817 82.2202 494 82.3847 494 82.6041C494 82.8235 493.835 82.988 493.616 82.988Z" fill="#1F1949"/>
<path d="M382.303 1.21143L383.693 7.20773L383.985 8.87134L384.296 7.24429L385.484 1.21143H387.788L389.031 7.20773L389.342 8.87134L389.671 7.26258L391.06 1.21143H393.291L390.347 11.6684H388.245L386.984 5.54412L386.618 3.51489L386.252 5.54412L384.991 11.6684H382.962L380 1.21143H382.303Z" fill="white"/>
<path d="M396.819 1.21143H399.287L402.998 11.6684H400.622L399.927 9.51119H396.07L395.357 11.6684H393.071L396.819 1.21143ZM396.673 7.71961H399.36L398.044 3.6063L396.673 7.71961Z" fill="white"/>
<path d="M411.024 1.46514C411.408 1.62967 411.737 1.86733 412.011 2.19639C412.231 2.47062 412.413 2.76312 412.541 3.0739C412.669 3.40296 412.742 3.76859 412.742 4.17078C412.742 4.66438 412.614 5.15798 412.359 5.6333C412.103 6.10861 411.7 6.45597 411.115 6.65706C411.591 6.85816 411.938 7.13238 412.139 7.47972C412.34 7.84535 412.45 8.37551 412.45 9.12505V9.81974C412.45 10.2951 412.468 10.6241 412.505 10.7887C412.56 11.0629 412.706 11.264 412.907 11.3919V11.6479H410.494C410.421 11.4102 410.384 11.2274 410.348 11.0812C410.293 10.7886 410.256 10.4962 410.256 10.1854L410.238 9.21646C410.238 8.54004 410.11 8.10128 409.891 7.88191C409.671 7.66253 409.251 7.55284 408.647 7.55284H406.508V11.6479H404.37V1.19092H409.379C410.092 1.2092 410.64 1.30061 411.024 1.46514ZM406.508 3.01906V5.8344H408.867C409.342 5.8344 409.689 5.77955 409.927 5.66986C410.348 5.46877 410.549 5.08485 410.549 4.49985C410.549 3.86 410.348 3.43953 409.945 3.22015C409.726 3.09218 409.379 3.03733 408.94 3.03733H406.508V3.01906Z" fill="white"/>
<path d="M422.559 3.05785H417.02V5.28819H422.102V7.09804H417.02V9.78541H422.815V11.6684H414.881V1.21143H422.559V3.05785Z" fill="white"/>
<path d="M424.496 11.6684V1.21143H426.672V5.19678H430.749V1.21143H432.924V11.6684H430.749V6.98835H426.672V11.6684H424.496Z" fill="white"/>
<path d="M443.071 10.7345C442.285 11.5572 441.133 11.9594 439.634 11.9594C438.135 11.9594 437.001 11.5572 436.197 10.7345C435.137 9.72906 434.606 8.30311 434.606 6.42012C434.606 4.50057 435.137 3.05635 436.197 2.10572C436.983 1.28305 438.135 0.880859 439.634 0.880859C441.133 0.880859 442.266 1.28305 443.071 2.10572C444.131 3.07463 444.661 4.50057 444.661 6.42012C444.661 8.30311 444.131 9.74734 443.071 10.7345ZM441.718 9.14405C442.23 8.50421 442.486 7.59013 442.486 6.42012C442.486 5.25011 442.23 4.33605 441.718 3.6962C441.206 3.05635 440.53 2.72729 439.652 2.72729C438.793 2.72729 438.098 3.03806 437.586 3.67791C437.074 4.31776 436.818 5.23183 436.818 6.40184C436.818 7.57185 437.074 8.48593 437.586 9.12578C438.098 9.76563 438.793 10.0764 439.652 10.0764C440.511 10.113 441.206 9.7839 441.718 9.14405Z" fill="white"/>
<path d="M446.326 1.21143H448.556V7.64648C448.556 8.35945 448.647 8.88962 448.812 9.21869C449.068 9.80369 449.653 10.0962 450.53 10.0962C451.408 10.0962 451.993 9.80369 452.249 9.21869C452.413 8.88962 452.505 8.35945 452.505 7.64648V1.21143H454.735V7.64648C454.735 8.76165 454.571 9.62087 454.223 10.2424C453.583 11.3759 452.359 11.9426 450.549 11.9426C448.739 11.9426 447.514 11.3759 446.856 10.2424C446.509 9.62087 446.344 8.76165 446.344 7.64648V1.21143H446.326Z" fill="white"/>
<path d="M458.409 8.43108C458.483 8.90639 458.611 9.27202 458.812 9.50968C459.177 9.94844 459.799 10.1495 460.676 10.1495C461.207 10.1495 461.627 10.0947 461.956 9.98499C462.578 9.76562 462.888 9.36343 462.888 8.77843C462.888 8.43108 462.742 8.15685 462.431 7.97404C462.121 7.79123 461.645 7.6267 460.987 7.48045L459.854 7.22451C458.739 6.98685 457.971 6.71262 457.55 6.42012C456.837 5.94481 456.49 5.17699 456.49 4.15323C456.49 3.22088 456.837 2.43479 457.532 1.81322C458.227 1.19165 459.232 0.880859 460.567 0.880859C461.682 0.880859 462.632 1.17336 463.419 1.75836C464.205 2.34337 464.625 3.18432 464.662 4.29948H462.559C462.523 3.67792 462.23 3.22088 461.718 2.96494C461.371 2.78213 460.932 2.709 460.42 2.709C459.835 2.709 459.378 2.81869 459.031 3.05635C458.684 3.27573 458.519 3.60479 458.519 4.00699C458.519 4.37261 458.684 4.66511 459.031 4.84793C459.25 4.9759 459.707 5.12215 460.42 5.28668L462.249 5.72543C463.053 5.90824 463.656 6.16419 464.058 6.49325C464.68 6.98685 464.991 7.69983 464.991 8.63218C464.991 9.58281 464.625 10.3872 463.876 11.0088C463.144 11.6486 462.084 11.9594 460.75 11.9594C459.378 11.9594 458.282 11.6486 457.495 11.027C456.709 10.4055 456.307 9.54624 456.307 8.46764H458.409V8.43108Z" fill="white"/>
<path d="M474.277 3.05785H468.738V5.28819H473.82V7.09804H468.738V9.78541H474.533V11.6684H466.599V1.21143H474.277V3.05785Z" fill="white"/>
<defs>
<linearGradient id="paint0_linear_1_350" x1="969.603" y1="42.1036" x2="956.374" y2="42.1036" gradientUnits="userSpaceOnUse">
<stop offset="0.00051751" stop-color="#333333"/>
<stop offset="0.9995" stop-color="white"/>
</linearGradient>
<linearGradient id="paint1_linear_1_350" x1="969.601" y1="42.109" x2="956.372" y2="42.109" gradientUnits="userSpaceOnUse">
<stop offset="0.00051751" stop-color="#E1E5EF"/>
<stop offset="0.9995" stop-color="#E1E5EF"/>
</linearGradient>
</defs>
</svg>
