<svg width="17" height="31" viewBox="0 0 17 31" fill="none" xmlns="http://www.w3.org/2000/svg">
<path d="M14.8233 15.5138C14.8094 15.4999 14.7955 15.486 14.7815 15.4581C15.1297 14.5111 15.2829 13.4945 15.1993 12.464C15.0879 11.0017 14.503 9.59511 13.5699 8.48099C14.0434 7.53399 14.2523 6.47558 14.1688 5.41717C14.0574 3.89919 13.3332 2.46477 12.1912 1.46206C11.7734 1.18353 11.3556 0.891078 10.9239 0.612549C9.96298 0.13905 8.93242 -0.0559206 7.86009 0.0137116C7.35874 0.111197 6.87131 0.222608 6.36996 0.320093C5.40903 0.668254 4.58737 1.22531 3.90498 1.99127C2.86049 3.17501 2.34522 4.7487 2.45663 6.32239C2.51233 6.99086 2.67945 7.6454 2.94405 8.24424C2.9162 8.28602 2.87442 8.31387 2.84657 8.34173C1.59319 9.76222 0.966497 11.6562 1.10576 13.5502C1.16147 14.2048 1.30073 14.8454 1.52356 15.4442C1.31466 15.7506 1.11969 16.0709 0.95257 16.4191C0.882938 16.5583 0.813306 16.7115 0.757601 16.8508C0.200543 18.0067 -0.10584 19.7057 0.0334248 20.9173C0.144836 22.31 0.590482 23.5912 1.37036 24.761C2.54018 26.5018 4.3924 27.7273 6.45352 28.1312C8.51463 28.5351 10.6872 28.0894 12.428 26.9196C13.0547 26.4879 13.6256 25.9726 14.0991 25.4016C14.0991 25.4016 14.0991 25.4016 14.1131 25.3877C15.0461 24.4825 15.7703 22.7556 16.0071 21.5301C16.0488 20.8198 16.0906 20.0956 16.1324 19.3854C16.0628 17.9788 15.6171 16.6976 14.8233 15.5138Z" fill="#8CB347"/>
<path d="M3.0138 21.2789C3.0138 19.9559 3.38981 18.6886 4.04435 17.6163C3.66834 16.7389 3.44552 15.778 3.44552 14.7753C3.44552 12.547 4.49 10.5277 6.10547 9.19075C5.72945 8.31339 5.52056 7.36639 5.52056 6.36369C5.52056 3.70373 7.01069 1.35017 9.18321 0.0828586C8.75149 0.0132264 8.31977 -0.00070047 7.87412 0.0410789C7.37277 0.138564 6.88535 0.249976 6.384 0.347461C5.42307 0.695622 4.60141 1.25268 3.91901 2.01863C2.87453 3.20238 2.35925 4.77607 2.47067 6.34976C2.52637 7.01823 2.69349 7.67277 2.95809 8.27161C2.93024 8.31339 2.88846 8.34124 2.8606 8.36909C1.60722 9.78959 0.980535 11.6836 1.1198 13.5776C1.17551 14.2321 1.31477 14.8727 1.53759 15.4716C1.3287 15.778 1.13373 16.0983 0.966609 16.4464C0.896977 16.5857 0.827344 16.7389 0.771639 16.8782C0.214581 18.034 -0.0918016 19.7331 0.0474629 20.9447C0.158874 22.3373 0.604522 23.6185 1.3844 24.7884C2.55422 26.5292 4.40644 27.7547 6.46755 28.1586C7.1221 28.2839 7.79057 28.3257 8.45904 28.2839C5.36737 27.4762 3.0138 24.6073 3.0138 21.2789Z" fill="#8CB347"/>
<path d="M6.44067 31.0002L7.83332 17.0737H8.39038L9.78302 31.0002H6.44067Z" fill="#603E2A"/>
<path d="M7.83344 21.4481L10.4377 19.6655L10.6048 19.8326L8.82221 22.4369L7.83344 21.4481Z" fill="#603E2A"/>
<path d="M7.8347 25.4989L6.06604 22.8947L6.21923 22.7275L8.82348 24.5101L7.8347 25.4989Z" fill="#603E2A"/>
</svg>
