<svg width="175" height="105" viewBox="0 0 175 105" fill="none" xmlns="http://www.w3.org/2000/svg">
<path d="M77.9338 63.8839H63.6623V71.3272H49.3308V57.7992H32.4475V77.8574H16.1018V83.9101H9.56977V90.3828H77.9338V63.8839Z" fill="#D1D1ED"/>
<path d="M137.687 67.5C139.255 67.2796 140.848 67.4215 142.363 67.9163C143.877 68.4111 145.28 69.2479 146.481 70.3726C147.681 71.4973 148.652 72.8849 149.332 74.4457C150.011 76.0065 150.383 77.7058 150.424 79.4337C151.977 78.9354 153.622 78.8973 155.192 79.3235C156.762 79.7496 158.2 80.6247 159.358 81.8588C160.515 83.1578 161.343 84.7623 161.763 86.5158C162.183 88.2693 162.18 90.1119 161.754 91.8637C157.044 93.4062 152.162 94.2276 147.246 94.3043C142.603 94.3347 137.729 92.6696 134.752 88.7787C133.347 86.9112 132.407 84.6791 132.022 82.298C131.119 76.8881 133.727 70.8973 137.687 67.5Z" fill="#82B641"/>
<path d="M60.8479 66.6107C57.6794 65.6423 54.2237 65.2963 51.1346 66.5388C48.0456 67.7812 45.4406 70.8891 45.3284 74.4804C42.5986 72.8361 38.9427 72.3644 36.1129 73.7875C34.6995 74.5147 33.4588 75.5892 32.4878 76.9271C31.5167 78.265 30.8415 79.8302 30.5149 81.5004C29.244 80.9211 27.3814 81.6513 26.2305 82.4774C25.6572 82.8973 25.1848 83.4619 24.8532 84.1236C24.5216 84.7852 24.3406 85.5244 24.3255 86.2787C22.2261 85.038 19.8516 84.4627 17.4693 84.6174C15.0843 84.7934 12.8593 85.9922 11.2785 87.9529C10.5097 88.937 9.9796 90.1167 9.73708 91.3835C9.49456 92.6504 9.54739 93.9635 9.89071 95.2021C24.3245 95.1552 38.8837 94.3408 53.3195 94.2961C56.5124 94.2854 59.9002 94.215 62.5891 92.333C66.3401 89.7027 67.6051 84.1398 66.7735 79.3567C65.9419 74.5736 63.3067 70.6727 60.8479 66.6107Z" fill="#668736"/>
<path d="M60.8851 68.8657C61.4213 67.2523 60.6697 65.4449 59.6221 64.1662C58.5746 62.8876 57.2335 61.9229 56.2177 60.6128C54.728 58.6892 54.0606 56.1831 52.9414 53.9791C51.8222 51.7752 49.8972 49.6992 47.5934 49.8319C48.331 50.8307 47.9556 52.2922 47.7738 53.5591C47.592 54.826 47.2834 56.1255 47.5637 57.3711C47.8883 58.8102 48.9427 59.9183 49.4785 61.2822C50.449 63.7526 49.5959 66.6596 50.2438 69.2526C50.5709 70.3877 51.1296 71.4267 51.8775 72.2913C52.6255 73.1559 53.5434 73.8234 54.5617 74.2436C56.6136 75.0667 58.8351 75.2462 60.9753 74.7617C61.5861 72.457 61.7202 71.084 60.8851 68.8657Z" fill="#6E933A"/>
<path opacity="0.2" d="M58.9859 69.3803C57.3237 69.0643 55.7877 67.6897 54.7728 65.6073C54.6402 65.3349 54.5208 65.0545 54.4067 64.771C54.4284 64.7437 54.445 64.712 54.4554 64.6777C54.8701 63.2202 55.0824 61.7029 55.0853 60.1766C55.0824 60.1059 55.0547 60.0392 55.008 59.9903C54.9613 59.9415 54.8991 59.9142 54.8344 59.9142C54.7698 59.9142 54.7076 59.9415 54.6609 59.9903C54.6142 60.0392 54.5865 60.1059 54.5836 60.1766C54.5811 61.4636 54.4241 62.7446 54.1167 63.9869C53.7583 62.876 53.4524 61.7456 53.2002 60.6003C53.1213 60.265 53.0423 59.9298 52.9609 59.5961C52.9355 59.4927 52.9097 59.3888 52.8839 59.2854C52.9095 59.2529 52.9275 59.2142 52.9365 59.1724C53.1385 58.1351 53.2913 57.0871 53.3942 56.0325C53.3977 55.9967 53.3948 55.9605 53.3855 55.926C53.3762 55.8914 53.3607 55.8592 53.3401 55.8312C53.3194 55.8032 53.2938 55.7799 53.2649 55.7627C53.236 55.7455 53.2042 55.7346 53.1715 55.7309C53.1054 55.7238 53.0394 55.7454 52.9878 55.7909C52.9361 55.8365 52.9028 55.9024 52.8951 55.9744C52.8219 56.7206 52.7215 57.4727 52.5972 58.213C52.1829 56.5697 51.4649 55.0367 50.4875 53.7087C50.4434 53.656 50.3823 53.6241 50.3171 53.6199C50.2519 53.6156 50.1878 53.6393 50.1383 53.6859C50.0888 53.7325 50.0579 53.7984 50.0521 53.8695C50.0463 53.9406 50.0661 54.0114 50.1073 54.0668C50.6636 54.7901 51.1208 55.5981 51.4644 56.4653C50.8882 56.2217 50.2985 56.0184 49.6988 55.8566C49.6668 55.848 49.6335 55.8464 49.6009 55.8518C49.5683 55.8573 49.5371 55.8697 49.5089 55.8883C49.4807 55.907 49.4561 55.9316 49.4366 55.9606C49.417 55.9896 49.4029 56.0226 49.3951 56.0576C49.3872 56.0926 49.3857 56.1289 49.3907 56.1646C49.3957 56.2002 49.407 56.2344 49.4241 56.2652C49.4411 56.2961 49.4636 56.3229 49.4901 56.3443C49.5167 56.3656 49.5468 56.381 49.5788 56.3896C50.2905 56.5807 50.9874 56.8321 51.6632 57.1417C51.6845 57.1506 51.7068 57.1561 51.7295 57.1582C52.0212 58.0026 52.2703 58.8638 52.4758 59.7379C52.5573 60.07 52.6353 60.4031 52.7147 60.7373C52.7942 61.0715 52.8726 61.4041 52.9545 61.7388C52.1336 61.3774 51.321 60.9761 50.5357 60.5374C50.5064 60.521 50.4744 60.5111 50.4416 60.5082C50.4088 60.5053 50.3757 60.5095 50.3444 60.5205C50.313 60.5316 50.284 60.5493 50.2589 60.5726C50.2338 60.596 50.2132 60.6245 50.1982 60.6565C50.1832 60.6886 50.1741 60.7236 50.1714 60.7595C50.1688 60.7954 50.1726 60.8315 50.1827 60.8658C50.1928 60.9 50.209 60.9318 50.2304 60.9592C50.2517 60.9866 50.2778 61.0092 50.3071 61.0256C51.2212 61.5358 52.1583 61.995 53.1149 62.4013C53.117 62.4016 53.1191 62.4016 53.1213 62.4013C53.41 63.5999 53.8151 64.7613 54.3297 65.8658C54.5724 66.3651 54.8544 66.8403 55.1725 67.2862C53.9049 67.3289 52.6489 67.0117 51.5268 66.3657C51.4977 66.3487 51.4659 66.3382 51.4332 66.3346C51.4004 66.3311 51.3673 66.3347 51.3358 66.3451C51.3043 66.3555 51.275 66.3727 51.2495 66.3955C51.2241 66.4183 51.203 66.4464 51.1875 66.4782C51.172 66.5099 51.1623 66.5447 51.1591 66.5805C51.1558 66.6163 51.1591 66.6525 51.1686 66.6869C51.1782 66.7214 51.1939 66.7534 51.2147 66.7813C51.2356 66.8091 51.2613 66.8322 51.2903 66.8491C52.3007 67.4325 53.4153 67.7677 54.5564 67.8314C54.8883 67.8501 55.2209 67.8451 55.5522 67.8165C55.5619 67.8152 55.5715 67.8132 55.581 67.8107C56.4445 68.8954 57.6121 69.6372 58.9016 69.9202C58.9104 69.9245 58.9201 69.9245 58.9304 69.9245C58.9951 69.9299 59.0592 69.9075 59.1092 69.8623C59.1591 69.817 59.1911 69.7523 59.1983 69.6817C59.2055 69.6112 59.1874 69.5404 59.1478 69.4842C59.1082 69.4279 59.0502 69.3907 58.9859 69.3803V69.3803Z" fill="black"/>
<path d="M66.7654 77.148C66.5344 74.4591 64.3574 72.4342 62.0799 71.3805C59.8025 70.3268 57.2989 69.9361 55.0492 68.8136C51.7461 67.165 49.2557 64.0849 46.3094 61.7669C43.3632 59.4489 39.3455 57.9011 36.1463 59.7777C37.8095 60.6598 38.1727 63.0157 38.6923 64.9542C39.212 66.8927 39.5698 68.9676 40.7353 70.5362C42.0821 72.3484 44.2631 73.1532 45.8639 74.7032C48.7629 77.5105 49.3347 82.2744 51.85 85.4931C54.0694 88.3324 57.6508 89.6473 61.0631 89.4373C64.4753 89.2273 67.7262 87.6368 70.5155 85.4787C69.97 81.7504 69.3173 79.6963 66.7654 77.148Z" fill="#82B641"/>
<path opacity="0.2" d="M64.3777 79.2726C61.8161 80.0407 58.7841 79.2071 56.0611 76.9887C55.7043 76.6983 55.3621 76.3859 55.0262 76.0651C55.0403 76.0105 55.0443 75.9534 55.0379 75.8972C54.733 73.5177 54.1035 71.2017 53.1704 69.0263C53.1261 68.9226 53.0459 68.8423 52.9474 68.8032C52.849 68.7642 52.7403 68.7694 52.6454 68.8179C52.5505 68.8664 52.4772 68.9541 52.4414 69.0618C52.4057 69.1694 52.4105 69.2882 52.4548 69.392C53.2416 71.2263 53.805 73.1655 54.1307 75.16C52.9378 73.8406 51.8078 72.4547 50.7453 71.008C50.4268 70.5884 50.1075 70.1703 49.7874 69.7539C49.6899 69.6254 49.5876 69.497 49.4867 69.368C49.5031 69.3032 49.5051 69.235 49.4925 69.1692C49.1429 67.544 48.7168 65.9397 48.2158 64.3626C48.1816 64.2543 48.1094 64.1654 48.0151 64.1153C47.9209 64.0652 47.8123 64.0581 47.7133 64.0956C47.6142 64.133 47.5329 64.212 47.4871 64.315C47.4413 64.4181 47.4348 64.5368 47.469 64.6451C47.8244 65.7644 48.1422 66.9055 48.4211 68.0563C46.769 66.0949 44.9113 64.2869 42.65 63.1874C42.6024 63.1627 42.5509 63.1487 42.4983 63.1462C42.4457 63.1437 42.3933 63.1526 42.3439 63.1726C42.2946 63.1926 42.2494 63.2231 42.211 63.2624C42.1726 63.3017 42.1418 63.349 42.1203 63.4016C42.0989 63.4541 42.0873 63.5108 42.0861 63.5683C42.085 63.6258 42.0944 63.683 42.1138 63.7365C42.1332 63.7899 42.1621 63.8387 42.1989 63.8797C42.2358 63.9208 42.2797 63.9534 42.3282 63.9757C43.5643 64.5972 44.7113 65.4118 45.7332 66.3939C44.763 66.469 43.7981 66.6114 42.8445 66.8203C42.7936 66.8315 42.7453 66.8536 42.7023 66.8852C42.6593 66.9169 42.6224 66.9575 42.5937 67.0047C42.565 67.0519 42.5451 67.1049 42.5352 67.1605C42.5252 67.2162 42.5254 67.2734 42.5357 67.329C42.5459 67.3846 42.5661 67.4374 42.5951 67.4844C42.624 67.5315 42.6611 67.5718 42.7043 67.6032C42.7475 67.6345 42.796 67.6563 42.8469 67.6672C42.8978 67.6781 42.9501 67.6779 43.0009 67.6667C44.1319 67.4174 45.279 67.265 46.4317 67.2109C46.4672 67.208 46.5021 67.1997 46.5355 67.1864C47.4687 68.1743 48.3519 69.2171 49.181 70.3103C49.5008 70.7234 49.8177 71.1412 50.135 71.5591C50.4523 71.977 50.7687 72.3922 51.0914 72.809C49.7002 72.8959 48.2968 72.9193 46.9094 72.8697C46.8565 72.8657 46.8033 72.8733 46.7531 72.8923C46.7029 72.9112 46.6567 72.941 46.6173 72.9798C46.5779 73.0187 46.546 73.0659 46.5237 73.1186C46.5013 73.1712 46.4889 73.2283 46.4871 73.2863C46.4854 73.3443 46.4944 73.4021 46.5135 73.4563C46.5327 73.5104 46.5617 73.5597 46.5987 73.6014C46.6357 73.643 46.68 73.676 46.7289 73.6985C46.7779 73.721 46.8305 73.7324 46.8836 73.7321C48.4987 73.7887 50.1155 73.7558 51.7275 73.6335C51.7314 73.6335 51.7339 73.6335 51.7378 73.6335C52.8859 75.1298 54.1769 76.4878 55.5888 77.6843C56.2419 78.2146 56.9359 78.682 57.6629 79.0813C55.883 80.0715 53.8986 80.5404 51.9035 80.442C51.799 80.436 51.6966 80.4756 51.6188 80.5522C51.541 80.6288 51.4942 80.736 51.4887 80.8503C51.4832 80.9646 51.5194 81.0766 51.5895 81.1616C51.6595 81.2467 51.7576 81.2979 51.8621 81.3039C53.6577 81.3949 55.4498 81.0566 57.1135 80.3125C57.5982 80.0958 58.0695 79.8448 58.5243 79.561C58.5373 79.5518 58.5498 79.5418 58.5618 79.5311C60.4567 80.4436 62.5743 80.6452 64.5849 80.1046C64.6015 80.1 64.6177 80.0943 64.6337 80.0876C64.7263 80.0455 64.8008 79.9665 64.8421 79.8665C64.8834 79.7666 64.8883 79.6532 64.8559 79.5495C64.8235 79.4457 64.7562 79.3592 64.6677 79.3077C64.5792 79.2562 64.476 79.2435 64.3792 79.2721L64.3777 79.2726Z" fill="black"/>
<path d="M56.7081 90.3828H143.839V31.1953H56.7081V90.3828Z" fill="#6C71BD"/>
<path d="M113.216 90.3828H135.266V41.3691H113.216V90.3828Z" fill="#46497A"/>
<path d="M67.2456 78.2505H94.4384V41.3694H67.2456V78.2505Z" fill="#46497A"/>
<g style="mix-blend-mode:multiply" opacity="0.2">
<path d="M68.6223 76.8711H93.1116V42.8426H68.6223V76.8711Z" fill="#46497A"/>
</g>
<g style="mix-blend-mode:multiply" opacity="0.2">
<path d="M115.843 72.7671H133.151V44.3942H115.843V72.7671Z" fill="#46497A"/>
</g>
<g style="mix-blend-mode:multiply" opacity="0.2">
<path d="M125.42 88.6631H133.151V74.4844H125.42V88.6631Z" fill="#46497A"/>
</g>
<g style="mix-blend-mode:multiply" opacity="0.2">
<path d="M115.844 88.6631H123.574V74.4844H115.844V88.6631Z" fill="#46497A"/>
</g>
<path d="M54.3358 32.647H146.807V26.3715H54.3358V32.647Z" fill="#46497A"/>
<path d="M80.0377 76.8711H81.618V42.8426H80.0377V76.8711Z" fill="#46497A"/>
<path d="M68.6222 60.9917H93.5171V59.2659H68.6222V60.9917Z" fill="#46497A"/>
<path d="M56.7088 26.3711H100.274V3.7396H56.7088V26.3711Z" fill="#6C71BD"/>
<path d="M54.2907 3.73975H105.739V0.000253916H54.2907V3.73975Z" fill="#46497A"/>
<path d="M3.30647 97.6035H171.694C172.127 97.6039 172.557 97.5108 172.958 97.3295C173.359 97.1483 173.724 96.8825 174.031 96.5473C174.338 96.2121 174.581 95.814 174.748 95.3758C174.914 94.9377 175 94.468 175 93.9935V93.9935C175 93.5191 174.914 93.0493 174.748 92.6111C174.581 92.1728 174.338 91.7747 174.031 91.4395C173.724 91.1042 173.359 90.8383 172.958 90.6571C172.557 90.4758 172.127 90.3827 171.694 90.383H3.30647C2.87254 90.3827 2.4428 90.4758 2.04178 90.6571C1.64077 90.8383 1.27632 91.1042 0.96928 91.4395C0.662239 91.7747 0.418615 92.1728 0.252304 92.6111C0.0859937 93.0493 0.000258856 93.5191 2.89083e-06 93.9935V93.9935C0.000322847 94.468 0.0860989 94.9377 0.252438 95.3758C0.418777 95.814 0.662424 96.2121 0.969459 96.5473C1.27649 96.8825 1.6409 97.1483 2.04189 97.3295C2.44288 97.5108 2.87258 97.6039 3.30647 97.6035V97.6035Z" fill="#D1D1ED"/>
<path d="M26.3585 76.6664L26.1364 76.998L31.9775 81.6537L32.1996 81.3221L26.3585 76.6664Z" fill="#965A1A"/>
<path d="M83.2902 94.178C83.2922 95.8218 82.8482 97.4293 82.0145 98.7972C81.1807 100.165 79.9946 101.232 78.6062 101.862C77.2178 102.493 75.6896 102.659 74.2148 102.34C72.7401 102.02 71.3851 101.23 70.3213 100.068C69.2575 98.9068 68.5328 97.4263 68.2387 95.8143C67.9447 94.2022 68.0946 92.531 68.6694 91.0121C69.2443 89.4932 70.2183 88.1949 71.4682 87.2814C72.7181 86.3679 74.1877 85.8803 75.6911 85.8803C76.6883 85.8796 77.676 86.0936 78.5976 86.5102C79.5192 86.9267 80.3567 87.5377 81.0624 88.3083C81.768 89.0788 82.328 89.9937 82.7102 91.0009C83.0924 92.008 83.2895 93.0876 83.2902 94.178V94.178Z" fill="#494948"/>
<path d="M82.1582 94.1779C82.1598 95.577 81.7819 96.9451 81.0722 98.1093C80.3625 99.2734 79.353 100.181 78.1713 100.718C76.9897 101.255 75.689 101.396 74.4338 101.124C73.1787 100.852 72.0255 100.179 71.1201 99.1907C70.2147 98.2021 69.5979 96.942 69.3477 95.57C69.0975 94.1979 69.2251 92.7756 69.7144 91.4829C70.2036 90.1901 71.0326 89.0851 72.0964 88.3077C73.1602 87.5302 74.411 87.1152 75.6905 87.1152C76.5393 87.1145 77.38 87.2967 78.1644 87.6512C78.9489 88.0058 79.6618 88.5259 80.2624 89.1817C80.863 89.8376 81.3395 90.6164 81.6648 91.4737C81.9901 92.3309 82.1577 93.2498 82.1582 94.1779V94.1779Z" fill="#6D6C6C"/>
<path d="M80.4404 94.1784C80.4418 95.2059 80.1643 96.2108 79.6432 97.0658C79.1221 97.9209 78.3808 98.5877 77.513 98.9819C76.6452 99.3761 75.6899 99.4801 74.7681 99.2805C73.8463 99.081 72.9993 98.5869 72.3343 97.8609C71.6694 97.1349 71.2163 96.2095 71.0325 95.2018C70.8486 94.1942 70.9423 93.1496 71.3016 92.2001C71.6609 91.2507 72.2697 90.4392 73.051 89.8682C73.8322 89.2972 74.7508 88.9924 75.6906 88.9924C76.3139 88.9919 76.9312 89.1256 77.5072 89.386C78.0832 89.6464 78.6067 90.0282 79.0478 90.5098C79.4889 90.9914 79.8389 91.5632 80.0778 92.1927C80.3168 92.8221 80.44 93.4969 80.4404 94.1784V94.1784Z" fill="#8A8888"/>
<path d="M78.0813 94.1811C78.0814 94.6566 77.9525 95.1215 77.7109 95.517C77.4694 95.9125 77.126 96.2207 76.7242 96.4028C76.3224 96.5848 75.8802 96.6325 75.4536 96.5398C75.0271 96.4471 74.6352 96.2181 74.3276 95.8819C74.02 95.5457 73.8106 95.1173 73.7257 94.6509C73.6408 94.1844 73.6843 93.701 73.8507 93.2616C74.0171 92.8223 74.299 92.4467 74.6606 92.1825C75.0222 91.9183 75.4474 91.7773 75.8823 91.7773C76.1711 91.777 76.4571 91.8391 76.724 91.9598C76.9908 92.0805 77.2333 92.2576 77.4375 92.4808C77.6417 92.7041 77.8037 92.9691 77.9142 93.2609C78.0246 93.5526 78.0814 93.8653 78.0813 94.1811V94.1811Z" fill="#494948"/>
<path d="M42.8205 94.1779C42.8227 95.8219 42.3788 97.4296 41.545 98.7976C40.7112 100.166 39.525 101.232 38.1365 101.863C36.748 102.494 35.2197 102.66 33.7448 102.341C32.2699 102.021 30.9148 101.231 29.8509 100.069C28.787 98.9075 28.0622 97.4269 27.7681 95.8147C27.4741 94.2025 27.624 92.5311 28.199 91.0121C28.7739 89.4931 29.7481 88.1947 30.9981 87.2812C32.2481 86.3677 33.7179 85.8801 35.2215 85.8802C37.2355 85.8788 39.1675 86.7522 40.5926 88.3083C42.0177 89.8644 42.8191 91.9758 42.8205 94.1779V94.1779Z" fill="#494948"/>
<path d="M41.6892 94.1779C41.6908 95.577 41.3129 96.9451 40.6032 98.1093C39.8936 99.2734 38.884 100.181 37.7023 100.718C36.5207 101.255 35.22 101.396 33.9648 101.124C32.7097 100.852 31.5565 100.179 30.6511 99.1907C29.7458 98.2021 29.1289 96.942 28.8787 95.57C28.6285 94.1979 28.7561 92.7756 29.2454 91.4829C29.7346 90.1901 30.5636 89.0851 31.6274 88.3077C32.6912 87.5302 33.942 87.1152 35.2215 87.1152C36.0703 87.1145 36.911 87.2967 37.6954 87.6512C38.4799 88.0058 39.1928 88.5259 39.7934 89.1817C40.394 89.8376 40.8705 90.6164 41.1958 91.4737C41.5211 92.3309 41.6888 93.2498 41.6892 94.1779V94.1779Z" fill="#6D6C6C"/>
<path d="M39.9709 94.1785C39.9722 95.2059 39.6947 96.2106 39.1736 97.0655C38.6525 97.9204 37.9112 98.587 37.0435 98.9811C36.1757 99.3752 35.2206 99.4791 34.2989 99.2795C33.3772 99.0799 32.5303 98.5859 31.8655 97.8599C31.2007 97.1339 30.7477 96.2086 30.5639 95.2011C30.3802 94.1936 30.4738 93.1491 30.8331 92.1998C31.1924 91.2505 31.8011 90.4391 32.5823 89.8681C33.3635 89.2972 34.282 88.9925 35.2216 88.9925C35.8449 88.992 36.4621 89.1257 37.0381 89.3861C37.6142 89.6465 38.1376 90.0283 38.5786 90.5099C39.0197 90.9915 39.3696 91.5633 39.6085 92.1928C39.8474 92.8223 39.9706 93.497 39.9709 94.1785V94.1785Z" fill="#8A8888"/>
<path d="M37.4209 94.1811C37.421 94.6566 37.2921 95.1215 37.0505 95.517C36.809 95.9125 36.4656 96.2207 36.0638 96.4028C35.662 96.5848 35.2198 96.6325 34.7932 96.5398C34.3667 96.4471 33.9748 96.2181 33.6672 95.8819C33.3596 95.5457 33.1502 95.1173 33.0653 94.6509C32.9804 94.1844 33.0239 93.701 33.1903 93.2616C33.3567 92.8223 33.6386 92.4467 34.0002 92.1825C34.3618 91.9183 34.787 91.7773 35.2219 91.7773C35.5107 91.777 35.7967 91.8391 36.0636 91.9598C36.3304 92.0805 36.5729 92.2576 36.7771 92.4808C36.9813 92.7041 37.1433 92.9691 37.2538 93.2609C37.3642 93.5526 37.421 93.8653 37.4209 94.1811V94.1811Z" fill="#494948"/>
<path d="M35.2344 76.8843H34.5695V79.0099H35.2344V76.8843Z" fill="#965A1A"/>
<path d="M38.8226 76.8843H38.1577V79.0099H38.8226V76.8843Z" fill="#965A1A"/>
<path d="M51.3005 77.4707C51.3005 77.4707 35.822 77.7905 34.7028 77.8438C33.5836 77.8971 33.2575 78.1578 33.3866 78.6433C33.4676 78.9413 33.4505 79.2611 32.9426 79.882C32.3942 80.5432 31.8096 81.1674 31.1921 81.7512C29.815 82.9968 41.6696 91.9384 42.2478 92.4777C43.4469 93.597 44.3829 94.4573 44.3829 94.4573C44.3829 94.4573 61.9131 94.4775 63.8098 94.4775C65.7066 94.4775 72.2308 86.981 73.076 82.9014C69.9134 80.9954 68.4632 76.6553 67.7963 75.004C67.1295 73.3528 65.1099 67.5298 64.9461 66.8492C64.7823 66.1686 63.4052 66.5982 63.9951 68.0666C64.5849 69.535 66.8809 76.409 67.2084 77.9121C67.6382 79.9192 67.3938 82.0285 66.5196 83.855C65.3818 86.1712 64.0305 88.3543 62.4868 90.3703C61.9623 91.0147 60.7807 91.4086 59.2077 91.4086H51.6676C50.3884 91.4086 47.3588 88.7622 47.2409 85.5733C47.0454 80.2743 51.3005 77.4707 51.3005 77.4707Z" fill="#E89225"/>
<path d="M24.3983 92.0249C24.3983 92.0249 25.0617 83.7758 32.1032 80.9919C37.3088 78.9351 42.8659 81.5431 44.7773 86.7206C46.0257 90.0982 45.1165 93.8243 44.8026 94.6526C41.6897 95.338 26.6748 93.9672 24.3983 92.0249Z" fill="#FCBA30"/>
<path d="M64.9367 94.4269H43.7671C43.6198 94.4269 43.4785 94.4909 43.3743 94.6048C43.2701 94.7187 43.2116 94.8732 43.2116 95.0343C43.2116 95.1953 43.2701 95.3498 43.3743 95.4637C43.4785 95.5776 43.6198 95.6416 43.7671 95.6416H64.9367C65.084 95.6416 65.2253 95.5776 65.3295 95.4637C65.4337 95.3498 65.4922 95.1953 65.4922 95.0343C65.4922 94.8732 65.4337 94.7187 65.3295 94.6048C65.2253 94.4909 65.084 94.4269 64.9367 94.4269V94.4269Z" fill="#FCBA30"/>
<path d="M42.5647 77.798C41.0472 77.7447 40.919 75.9144 42.474 75.8345C44.029 75.7545 51.9674 76.4618 52.5801 76.5135C53.1929 76.5652 53.1626 77.774 52.3588 77.7847C51.0017 77.8012 44.5038 77.8631 42.5647 77.798Z" fill="#FCBA30"/>
<path d="M40.554 77.3445H24.1011C24.0427 77.3466 23.9846 77.3359 23.9301 77.3129C23.8756 77.29 23.8259 77.2553 23.7839 77.2109C23.742 77.1665 23.7086 77.1134 23.6858 77.0546C23.663 76.9958 23.6512 76.9326 23.6512 76.8688C23.6512 76.8049 23.663 76.7417 23.6858 76.6829C23.7086 76.6242 23.742 76.571 23.7839 76.5266C23.8259 76.4822 23.8756 76.4475 23.9301 76.4246C23.9846 76.4017 24.0427 76.3909 24.1011 76.3931H40.554C40.6124 76.3909 40.6705 76.4017 40.725 76.4246C40.7795 76.4475 40.8292 76.4822 40.8712 76.5266C40.9132 76.571 40.9466 76.6242 40.9694 76.6829C40.9922 76.7417 41.0039 76.8049 41.0039 76.8688C41.0039 76.9326 40.9922 76.9958 40.9694 77.0546C40.9466 77.1134 40.9132 77.1665 40.8712 77.2109C40.8292 77.2553 40.7795 77.29 40.725 77.3129C40.6705 77.3359 40.6124 77.3466 40.554 77.3445V77.3445Z" fill="#965A1A"/>
<path d="M67.5521 65.8666V70.2798C68.5958 70.1353 68.5958 66.011 67.5521 65.8666Z" fill="#A7D4F5"/>
<path d="M65.469 68.0733C65.4696 68.5769 65.6272 69.0652 65.9159 69.4575C66.2045 69.8499 66.6069 70.1229 67.0566 70.2314V65.9142C66.6068 66.0228 66.2042 66.2959 65.9156 66.6885C65.6269 67.0811 65.4693 67.5696 65.469 68.0733V68.0733Z" fill="#FCBA30"/>
<path d="M67.4963 65.86C67.3487 65.8602 67.2016 65.878 67.0576 65.9133V70.2343C67.2016 70.2694 67.3487 70.2873 67.4963 70.2876C67.5151 70.2866 67.5339 70.2841 67.5524 70.2801V65.8669C67.5338 65.8633 67.5151 65.861 67.4963 65.86V65.86Z" fill="#A0A09F"/>
<path d="M71.5691 82.9979C79.6103 79.9406 82.1261 88.3028 82.1261 88.3028C82.1261 88.3028 77.8681 87.2368 74.6147 89.6886C70.8808 92.506 68.9801 94.7733 66.1767 93.8779C65.6366 92.5907 66.6452 84.8697 71.5691 82.9979Z" fill="#FCBA30"/>
<path d="M65.4277 67.9333C65.4279 68.1722 65.3633 68.4058 65.2421 68.6045C65.1208 68.8033 64.9483 68.9583 64.7465 69.0498C64.5447 69.1414 64.3226 69.1655 64.1082 69.119C63.8939 69.0725 63.697 68.9576 63.5424 68.7887C63.3878 68.6199 63.2825 68.4047 63.2398 68.1703C63.1971 67.936 63.219 67.6931 63.3025 67.4724C63.3861 67.2516 63.5277 67.0629 63.7094 66.9302C63.891 66.7974 64.1046 66.7266 64.3231 66.7266C64.4681 66.7264 64.6118 66.7575 64.7458 66.8181C64.8798 66.8787 65.0016 66.9675 65.1041 67.0796C65.2067 67.1917 65.2881 67.3248 65.3436 67.4712C65.3992 67.6177 65.4277 67.7747 65.4277 67.9333V67.9333Z" fill="#3F3E3E"/>
<path d="M64.8567 67.9335C64.8573 68.0495 64.8263 68.1632 64.7677 68.2601C64.7092 68.3569 64.6256 68.4325 64.5277 68.4774C64.4298 68.5223 64.3219 68.5343 64.2177 68.5121C64.1135 68.4898 64.0176 68.4342 63.9424 68.3524C63.8671 68.2705 63.8157 68.166 63.7948 68.0522C63.7739 67.9384 63.7843 67.8204 63.8248 67.713C63.8653 67.6057 63.934 67.514 64.0223 67.4494C64.1105 67.3848 64.2143 67.3504 64.3205 67.3504C64.3907 67.35 64.4604 67.3648 64.5254 67.394C64.5904 67.4231 64.6495 67.466 64.6993 67.5202C64.7491 67.5743 64.7887 67.6387 64.8157 67.7097C64.8427 67.7806 64.8566 67.8566 64.8567 67.9335V67.9335Z" fill="#2E2E2D"/>
<path d="M44.779 86.7232C44.1415 85.0031 43.0801 83.5101 41.7128 82.4102C43.1913 88.5572 34.7421 96.9519 24.5653 90.9264C24.4913 91.2889 24.4357 91.6557 24.3986 92.0249C26.675 93.9677 41.6899 95.3385 44.8029 94.6531C45.1168 93.8248 46.0259 90.0987 44.779 86.7232Z" fill="#FECC69"/>
<path d="M35.0424 80.3155C37.0759 80.1249 39.1125 80.6419 40.8611 81.7927C42.6098 82.9435 43.9811 84.6692 44.779 86.7232C46.0259 90.0986 45.1168 93.8248 44.8029 94.6531C41.6899 95.3385 26.675 93.9677 24.3986 92.0254" stroke="#8C6520" stroke-width="1.139" stroke-miterlimit="10"/>
<path d="M71.9025 82.8774C71.7923 82.9158 71.6816 82.9552 71.5695 82.9978C66.6461 84.8703 65.6366 92.5918 66.1772 93.8784C68.324 94.5644 69.9428 93.3939 72.2603 91.5428C70.3192 90.6655 68.9635 87.1856 71.9025 82.8774Z" fill="#FECC69"/>
<path d="M73.4767 67.8614C71.8305 68.1081 70.2262 69.3426 70.5894 75.1298C70.935 80.6405 71.2377 84.0452 71.6823 86.2454C72.0011 87.8284 75.7507 87.8716 75.6571 85.6485C75.5459 83.1082 75.2057 75.9256 75.2057 75.9256L73.4767 67.8614Z" fill="#161616"/>
<path d="M68.5144 101.337C68.5144 101.337 70.9746 101.444 71.3573 101.497C71.7399 101.551 76.0077 102.536 76.0789 103.728L71.9023 104.026C70.5705 104.121 67.73 104.472 67.3367 104.35C67.2159 104.259 67.1282 104.125 67.0887 103.971C67.0492 103.817 67.0605 103.653 67.1207 103.507C67.4195 102.751 68.2794 101.342 68.5144 101.337Z" fill="#28101C"/>
<path d="M76.0796 103.728L67.3369 104.351L67.3757 105.001L76.1184 104.379L76.0796 103.728Z" fill="#14060D"/>
<path d="M71.4854 85.7229L68.4933 101.277L71.8797 101.557C71.8797 101.557 75.2949 86.58 75.6425 84.9943C74.2371 84.8062 71.4854 85.7229 71.4854 85.7229Z" fill="#161616"/>
<path d="M68.4036 100.097L72.2722 100.381C72.3367 100.386 72.3969 100.418 72.4394 100.471C72.482 100.525 72.5035 100.594 72.4991 100.665L72.4472 101.51C72.4429 101.581 72.4131 101.646 72.3644 101.693C72.3158 101.739 72.2522 101.763 72.1877 101.758L68.3191 101.474C68.2546 101.469 68.1944 101.437 68.1519 101.384C68.1093 101.33 68.0878 101.261 68.0922 101.19L68.1441 100.345C68.1484 100.275 68.1782 100.209 68.2269 100.162C68.2755 100.116 68.3391 100.092 68.4036 100.097V100.097Z" fill="#0A0A0A"/>
<path d="M78.6318 84.9561C78.3354 83.4744 77.7056 80.3793 77.2454 78.1231C77.1925 77.3486 77.0617 76.5829 76.8555 75.8397C77.047 75.3596 77.0962 74.826 76.9963 74.3138V74.3111C76.9963 74.285 76.9924 74.2578 76.9905 74.2205C76.9656 73.9007 76.952 73.5809 76.9359 73.2611C76.8915 72.3998 76.8155 71.5518 76.7097 70.6969C76.4748 68.7989 75.3302 67.104 73.3949 67.484C71.2535 67.904 70.2703 70.9053 70.5379 72.9472C70.555 73.0762 70.5774 73.203 70.6042 73.3288C70.7486 74.6146 71.0708 75.869 71.5596 77.0491C72.3303 79.0212 73.529 80.8995 73.5675 82.854C73.5652 83.1496 73.6205 83.4424 73.7296 83.7129C73.8386 83.9834 73.9991 84.2255 74.2002 84.4231C74.4084 85.1256 74.6087 85.7375 74.8057 86.2683C75.3628 87.7719 79.0661 87.1307 78.6318 84.9561Z" fill="#282828"/>
<path d="M74.2953 100.938C74.2953 100.938 76.7434 101.226 77.1226 101.311C77.5019 101.396 81.697 102.687 81.6941 103.883L77.5087 103.872C76.176 103.868 73.3165 104.009 72.9339 103.857C72.8189 103.758 72.7395 103.618 72.7095 103.461C72.6796 103.305 72.701 103.142 72.7701 103.001C73.1147 102.268 74.0599 100.926 74.2953 100.938Z" fill="#391526"/>
<path d="M81.6941 103.886L72.9338 103.857L72.932 104.509L81.6923 104.538L81.6941 103.886Z" fill="#270B17"/>
<path d="M74.5316 85.7906L73.9612 101.674L77.3428 101.332C77.3428 101.332 78.4186 85.9425 78.519 84.3163C77.1054 84.3867 74.5316 85.7906 74.5316 85.7906Z" fill="#282828"/>
<path d="M77.6761 101.47L73.8179 101.896C73.7543 101.902 73.6912 101.88 73.6421 101.836C73.593 101.791 73.5618 101.728 73.5551 101.658L73.4776 100.814C73.4719 100.744 73.4913 100.675 73.5318 100.621C73.5723 100.567 73.6305 100.532 73.694 100.525L77.5523 100.098C77.6159 100.092 77.6793 100.113 77.7288 100.157C77.7783 100.201 77.81 100.265 77.817 100.334L77.8936 101.181C77.8993 101.25 77.8797 101.32 77.839 101.374C77.7983 101.428 77.7398 101.462 77.6761 101.47V101.47Z" fill="#0A0A0A"/>
<path d="M80.4439 50.144L78.3259 48.4658L76.6643 50.9654L78.7823 52.6437L80.4439 50.144Z" fill="#E1A57C"/>
<path d="M83.336 62.9646C85.6851 63.9913 88.21 64.4481 90.7362 64.3034C91.5361 64.106 92.3492 63.9795 93.1677 63.925C93.0511 63.7237 92.89 63.5576 92.6992 63.4422C92.5085 63.3268 92.2943 63.2657 92.0763 63.2646C90.3638 63.1458 89.4206 62.9288 88.0732 62.7482C86.7754 62.5783 85.5071 62.203 84.308 61.6342C83.6636 61.2762 83.0476 60.8601 82.4664 60.3902L81.1122 61.8293C81.828 62.2647 82.5712 62.6441 83.336 62.9646V62.9646Z" fill="#E1A57C"/>
<path d="M75.031 52.0918C76.0235 51.4704 77.228 51.9159 78.1303 54.0426C79.0326 56.1692 80.3127 58.4878 82.8378 59.9807C82.615 61.1714 81.0317 62.0908 81.0317 62.0908C81.0317 62.0908 77.2504 60.3362 75.9708 58.0033C74.2998 54.9567 74.039 52.7138 75.031 52.0918Z" fill="#5D7C2C"/>
<path d="M75.6401 74.3799C75.8068 74.461 75.8083 74.4329 75.7398 74.3985C75.7301 74.3953 75.7213 74.3911 75.7115 74.3879C75.688 74.3868 75.6641 74.3837 75.6401 74.3799Z" fill="#F38844"/>
<path d="M79.2906 58.7997C79.1473 61.2654 78.4303 66.3747 78.1758 68.1394C78.2671 69.0851 78.2077 70.0408 78.0003 70.9643C79.0674 72.4764 77.5733 75.006 75.7404 74.3989L75.7185 74.3888H75.7122C75.6985 74.3845 75.6854 74.3776 75.6722 74.3733C75.6601 74.3688 75.6477 74.3654 75.6351 74.3632L75.5796 74.3515C75.602 74.3637 75.6225 74.3733 75.6405 74.3845C75.6113 74.3845 75.5825 74.3792 75.5533 74.3776C75.212 74.3589 74.8708 74.3493 74.5296 74.3355C73.6037 74.3283 72.6805 74.2249 71.7725 74.0269C70.8083 73.7817 69.5428 73.0488 69.3893 71.8368C69.2996 71.2161 69.3649 70.5803 69.5783 69.9968C69.7917 69.4133 70.1452 68.9036 70.6016 68.5216C70.8258 65.5507 71.7013 59.1121 72.5627 56.2702C73.5761 52.9272 75.3631 50.0266 77.332 50.6588C80.5581 51.6981 79.4656 55.7905 79.2906 58.7997Z" fill="#F38844"/>
<path d="M77.6343 49.402C77.6343 49.402 81.8001 52.6368 83.0446 51.5628C83.2323 51.4029 83.7524 49.9307 84.0732 48.8584C84.547 47.2738 84.9126 45.1807 84.6518 43.7485C84.2204 41.382 81.9668 37.9687 79.8746 38.5945C77.7824 39.2202 72.998 41.9566 77.6343 49.402Z" fill="#EFC1A1"/>
<path d="M83.6934 45.6356L83.6841 45.6287L83.8104 45.3441C84.3285 46.0116 84.9014 46.6258 85.5219 47.1792C84.1911 48.4051 82.9997 47.1152 83.395 45.5301C83.4998 45.5447 83.601 45.5808 83.6934 45.6367C83.7631 45.6863 83.7528 45.6703 83.6934 45.6356Z" fill="#EFC1A1"/>
<path d="M84.8867 42.6952C84.8867 42.6952 86.6703 41.1495 84.9632 39.8303C85.4473 41.2209 84.7468 41.9026 84.7468 41.9026C84.7644 41.7472 84.7532 41.5896 84.7139 41.439C84.6745 41.2884 84.6078 41.1481 84.5177 41.0264C84.4928 41.7555 84.097 41.666 83.5077 40.8132C82.9183 39.9604 82.7068 39.4514 81.9585 38.9626C81.0787 38.3208 80.0024 38.0855 78.9645 38.3081C78.2388 38.4051 77.5387 38.6622 76.9066 39.0637C76.2745 39.4653 75.7235 40.003 75.2871 40.6442C74.1025 42.2384 74.3209 44.5724 74.8396 45.8846C75.481 47.3386 76.3354 48.6682 77.369 49.8208C78.1392 49.4967 78.5341 47.2432 78.7914 46.1431C79.3013 45.2125 80.1841 45.77 80.5297 45.0334C80.6713 44.6128 80.7364 44.1659 80.7213 43.718C82.1837 44.4807 85.419 44.2681 86.0474 41.682C85.7516 42.1284 85.3504 42.4787 84.8867 42.6952Z" fill="#020202"/>
<path d="M78.5358 45.61C78.7059 46.3695 79.3956 47.2089 79.8519 47.0885C80.3082 46.968 80.5436 46.2549 80.3745 45.4948C80.2053 44.7348 79.7534 43.7621 79.1558 43.9614C78.8911 44.1119 78.6836 44.36 78.5701 44.6617C78.4566 44.9635 78.4444 45.2994 78.5358 45.61Z" fill="#EFC1A1"/>
<path d="M84.1956 44.1478C84.2239 44.4874 84.3009 45.7127 83.4254 45.7521C82.5499 45.7916 82.8624 44.3259 82.8624 44.3259C82.8624 44.3259 83.7959 44.1734 84.1956 44.1478Z" fill="url(#paint0_linear_1_1824)"/>
<path d="M83.9975 44.0593C83.0582 43.9885 82.3592 44.4607 83.2283 44.4682C84.0975 44.4756 84.4879 44.0951 83.9975 44.0593Z" fill="url(#paint1_linear_1_1824)"/>
<path d="M83.1527 45.6304C83.4272 45.1012 83.9644 45.3357 83.9293 45.7983" stroke="#452F20" stroke-width="0.444" stroke-miterlimit="10"/>
<path d="M88.4876 56.5626L88.5103 64.8203L97.25 64.7916L97.2274 56.534L88.4876 56.5626Z" fill="#8D715F"/>
<path d="M91.5906 58.5267L92.6859 58.5342L92.6937 57.3403L91.5979 57.3317L91.5906 58.5267ZM92.6006 58.4409L91.6774 58.4345L91.6837 57.4256L92.6099 57.4325L92.6006 58.4409Z" fill="#50443D"/>
<path d="M91.7788 57.5255L92.51 57.5308C92.5094 57.6285 92.4759 57.7225 92.4161 57.795C92.3562 57.8675 92.2741 57.9134 92.1854 57.9241V58.2621H92.3145L92.3116 58.3569L91.9665 58.3543V58.261H92.0966L92.0996 57.9236C92.0107 57.912 91.9289 57.8649 91.8697 57.7915C91.8105 57.718 91.7782 57.6233 91.7788 57.5255Z" fill="#50443D"/>
<path d="M90.3792 58.5174L91.474 58.5259L91.4823 57.3309L90.3875 57.3229L90.3792 58.5174ZM91.3892 58.4321L90.463 58.4251L90.4723 57.4167L91.3985 57.4242L91.3892 58.4321Z" fill="#50443D"/>
<path d="M91.0444 58.3569C91.0848 58.3571 91.1237 58.3398 91.1525 58.3089C91.1813 58.278 91.1978 58.2359 91.1985 58.1917C91.1982 58.1815 91.1944 58.1717 91.1878 58.1645C91.1812 58.1573 91.1723 58.1531 91.1629 58.1528C91.1582 58.1527 91.1535 58.1536 91.1491 58.1555C91.1447 58.1573 91.1406 58.1602 91.1373 58.1638C91.1339 58.1675 91.1312 58.1718 91.1294 58.1766C91.1277 58.1814 91.1268 58.1865 91.1268 58.1917C91.1263 58.2152 91.1174 58.2376 91.102 58.254C91.0866 58.2705 91.066 58.2797 91.0444 58.2796C91.023 58.2792 91.0026 58.2696 90.9877 58.2528C90.9727 58.2361 90.9644 58.2135 90.9645 58.1901L90.9684 57.5191C90.9685 57.5139 90.9677 57.5087 90.966 57.5039C90.9642 57.4991 90.9616 57.4947 90.9583 57.491C90.955 57.4874 90.951 57.4844 90.9466 57.4825C90.9422 57.4805 90.9376 57.4795 90.9328 57.4796C90.9235 57.48 90.9148 57.4843 90.9082 57.4915C90.9017 57.4987 90.898 57.5084 90.8977 57.5185L90.8933 58.1901C90.8933 58.2341 90.9092 58.2763 90.9375 58.3075C90.9658 58.3387 91.0042 58.3565 91.0444 58.3569V58.3569Z" fill="#50443D"/>
<path d="M90.5649 57.9192C90.5697 57.8162 90.6106 57.7192 90.6792 57.6484C90.7477 57.5776 90.8386 57.5384 90.9329 57.5391C91.0273 57.5396 91.1178 57.58 91.1855 57.6519C91.2532 57.7237 91.2928 57.8214 91.2961 57.9245V57.9245C91.2962 57.9257 91.296 57.927 91.2955 57.9282C91.295 57.9293 91.2942 57.9303 91.2932 57.9309C91.2932 57.9309 91.2883 57.9309 91.2868 57.9309C91.2835 57.9197 91.277 57.9101 91.2682 57.9035C91.2593 57.8968 91.2488 57.8935 91.2381 57.8941C91.2276 57.8943 91.2175 57.8979 91.2088 57.9043C91.2001 57.9108 91.1934 57.9198 91.1893 57.9303L91.1879 57.9399L91.184 57.9271C91.1806 57.9161 91.174 57.9066 91.1652 57.9001C91.1564 57.8935 91.1459 57.8903 91.1352 57.8909C91.1247 57.8903 91.1142 57.8934 91.1054 57.8998C91.0966 57.9063 91.09 57.9157 91.0865 57.9266L91.085 57.9399L91.0816 57.9266C91.0779 57.9158 91.0713 57.9064 91.0625 57.8998C91.0538 57.8933 91.0435 57.8898 91.0329 57.8898C91.0223 57.8892 91.0118 57.8923 91.003 57.8988C90.9942 57.9052 90.9876 57.9146 90.9841 57.9256L90.9812 57.9399L90.9778 57.925C90.9743 57.9141 90.9677 57.9047 90.9589 57.8982C90.9501 57.8918 90.9396 57.8887 90.929 57.8893C90.9185 57.8886 90.9081 57.8917 90.8993 57.898C90.8905 57.9044 90.8838 57.9137 90.8803 57.9245L90.8793 57.9399L90.8754 57.9256C90.8721 57.9145 90.8657 57.9048 90.8572 57.8978C90.8486 57.8908 90.8383 57.8869 90.8276 57.8866C90.8171 57.886 90.8066 57.8891 90.7978 57.8956C90.789 57.902 90.7824 57.9114 90.7789 57.9224L90.774 57.9341L90.7711 57.924C90.7676 57.913 90.761 57.9036 90.7522 57.8972C90.7434 57.8907 90.7329 57.8876 90.7223 57.8882C90.7118 57.8876 90.7014 57.8906 90.6926 57.897C90.6838 57.9033 90.6772 57.9126 90.6736 57.9234L90.6721 57.9357L90.6678 57.9229C90.6644 57.9119 90.6578 57.9023 90.649 57.8958C90.6402 57.8892 90.6296 57.886 90.619 57.8866C90.6085 57.886 90.5981 57.889 90.5893 57.8954C90.5805 57.9017 90.5738 57.911 90.5703 57.9218C90.5703 57.9245 90.5668 57.925 90.5649 57.9218C90.5629 57.9186 90.5649 57.9229 90.5649 57.9208C90.5649 57.9186 90.5649 57.9197 90.5649 57.9192Z" fill="#50443D"/>
<path d="M89.0969 58.5071L90.1908 58.5156L90.1981 57.3212L89.1042 57.3132L89.0969 58.5071ZM90.1065 58.4218L89.1803 58.4144L89.1891 57.407L90.1128 57.4139L90.1065 58.4218Z" fill="#50443D"/>
<path d="M89.2814 57.87L89.6484 57.4745L90.0126 57.8759L89.9278 57.967L89.7084 57.7245L89.704 58.3662H89.5856L89.5899 57.7266L89.3662 57.9627L89.2814 57.87Z" fill="#50443D"/>
<path d="M84.5423 63.9041C85.2189 64.2399 85.8819 65.6199 91.5964 65.1114C92.2836 65.1255 92.9697 65.0462 93.6389 64.8753C93.6389 64.8753 93.5653 63.3296 92.3496 63.4154C91.2651 63.5832 90.1673 63.6249 89.0748 63.5396C87.813 63.3693 86.5871 62.9652 85.4495 62.3446C84.8178 61.9402 84.2205 61.4746 83.6649 60.9535L82.3926 62.6484C83.0777 63.1284 83.7966 63.5483 84.5423 63.9041V63.9041Z" fill="#EFC1A1"/>
<path d="M76.4053 51.5546C77.3451 50.8132 78.5058 51.2971 79.4062 53.7313C80.3065 56.1655 81.571 58.8097 84.0142 60.4716C83.8192 61.852 82.3212 62.9521 82.3212 62.9521C82.3212 62.9521 78.6701 61.0179 77.4056 58.3561C75.7531 54.8794 75.465 52.296 76.4053 51.5546Z" fill="#82B440"/>
<path d="M81.8048 46.9385L79.8696 44.9621" stroke="#D8E4EE" stroke-width="0.569" stroke-miterlimit="10"/>
<path d="M80.7958 50.3125L76.6343 48.5856" stroke="#D8E4EE" stroke-width="0.569" stroke-miterlimit="10"/>
<path d="M75.0018 47.801C75.0018 47.801 72.1745 41.1572 76.9668 38.5668C81.759 35.9765 84.3202 41.4642 84.3202 41.4642L80.3162 43.8184C80.3162 43.8184 80.3902 44.5113 80.4429 45.5661C80.4912 46.5405 80.3361 48.2865 78.8606 48.8382C77.2437 49.4426 75.6521 48.8814 75.0018 47.801Z" fill="#F38844"/>
<path d="M74.222 42.7642C74.1005 44.4875 74.3684 46.217 75.0019 47.8005C75.6517 48.8814 77.2433 49.4426 78.8617 48.8382C80.3358 48.2866 80.4908 46.5405 80.4425 45.5683C80.4401 45.515 80.4372 45.467 80.4342 45.4169C79.2777 45.5932 78.0991 45.4419 77.0113 44.9774C75.9236 44.513 74.9632 43.7509 74.222 42.7642V42.7642Z" fill="#82B440"/>
<path d="M75.0018 47.8005C75.0018 47.8005 75.9173 49.4757 78.2985 48.9875C78.9268 48.8789 79.4949 48.5164 79.8904 47.9716C80.2858 47.4268 80.4797 46.7395 80.4336 46.0459C80.4353 45.3015 80.396 44.5577 80.3162 43.8185L84.3202 41.4616" stroke="#0A0909" stroke-width="1.154" stroke-linecap="round" stroke-linejoin="round"/>
<path d="M84.7038 45.6168C84.3874 46.0513 83.9741 46.3896 83.5037 46.5991C82.9056 46.8171 82.2632 46.8446 81.6513 46.6785C80.9508 47.592 80.438 49.8541 80.6964 50.4622C81.3983 50.9888 82.2043 51.3261 83.0484 51.4467C83.115 51.4546 83.1824 51.4471 83.2463 51.4247C83.3101 51.4023 83.3689 51.3654 83.4189 51.3166C84.4918 50.2629 85.6125 47.5425 85.571 47.1699C85.5252 46.7792 84.7706 46.1194 84.7038 45.6168Z" fill="#D8E4EE"/>
<path d="M81.8494 47.0085C82.2621 47.1011 82.688 47.099 83.1 47.0024C83.512 46.9058 83.9011 46.7168 84.2428 46.4472C84.4418 46.2743 84.6218 46.0766 84.7791 45.8583C84.7425 45.7828 84.717 45.7015 84.7035 45.6173C84.3872 46.0516 83.9741 46.3897 83.5038 46.5991C82.9058 46.8171 82.2633 46.8447 81.6515 46.6785C80.95 47.591 80.4377 49.8531 80.6946 50.4628C81.397 50.9894 82.2035 51.3266 83.0481 51.4467C83.1138 51.4544 83.1803 51.4472 83.2433 51.4253C83.3063 51.4035 83.3645 51.3676 83.4142 51.3199C82.9433 51.2031 81.4458 50.8039 80.99 50.3519C80.7818 49.5967 81.3361 47.5905 81.8494 47.0085Z" fill="#A4C0D4"/>
<path d="M116.311 98.2678C116.268 98.8605 111.144 98.4426 111.085 98.2539C111.034 98.085 111.621 97.948 112.249 97.7865C112.328 97.7662 112.407 97.7455 112.486 97.7241C113.197 97.5387 113.829 97.0925 114.275 96.4599C114.804 95.7211 115.286 92.3558 115.286 92.3558L117.188 92.7438C117.188 92.7438 116.081 95.6263 115.97 96.5718C115.921 96.9982 116.195 97.2791 116.262 97.6506C116.304 97.853 116.32 98.0606 116.311 98.2678V98.2678Z" fill="#B77446"/>
<path d="M116.311 98.2679C116.303 98.3784 116.262 98.4831 116.195 98.5664C116.128 98.6496 116.038 98.707 115.939 98.73H114.525C114.351 98.7051 114.174 98.7051 113.999 98.73H111.713C111.296 98.5855 111.122 98.3707 111.086 98.2503C111.035 98.0813 111.622 97.9443 112.25 97.7823L112.258 97.7951C112.812 98.09 113.428 98.2158 114.042 98.1591C114.859 98.076 115.695 97.7104 116.259 97.6485C116.302 97.8515 116.319 98.0598 116.311 98.2679V98.2679Z" fill="#C13D4C"/>
<path d="M114.611 94.7783C114.907 94.9881 115.234 95.1411 115.577 95.2308C115.915 95.327 116.27 95.3218 116.606 95.2159C116.606 95.2159 119.985 85.9509 119.793 82.8174C119.788 82.7422 119.786 82.6623 119.785 82.5775C119.796 81.8729 119.86 81.1705 119.974 80.477C120.02 80.1716 120.072 79.8518 120.13 79.5208C120.266 78.749 120.433 77.916 120.618 77.069C120.699 76.6959 120.783 76.318 120.869 75.9412C121.719 72.2374 122.758 68.5864 122.758 68.5864C122.758 68.5864 116.659 66.4113 116.314 68.4436C115.905 71.3124 115.78 74.221 115.94 77.1191C116.094 80.5606 116.011 84.01 115.692 87.4379C115.479 89.9079 115.117 92.36 114.611 94.7783V94.7783Z" fill="#263238"/>
<path d="M119.785 82.5801C119.796 81.8755 119.86 81.173 119.974 80.4795C120.019 80.1741 120.072 79.8543 120.13 79.5234C120.266 78.7516 120.433 77.9185 120.618 77.0716C120.699 76.6985 120.783 76.3206 120.869 75.9438C120.749 74.8138 120.652 74.0383 120.652 74.0383C119.901 75.2863 119.431 76.7108 119.28 78.1954C119.13 79.68 119.302 81.1825 119.785 82.5801V82.5801Z" fill="#1D2628"/>
<path d="M124.005 98.2683C123.961 98.861 118.837 98.4431 118.779 98.2544C118.728 98.0855 119.315 97.9485 119.943 97.787C120.023 97.7667 120.102 97.7459 120.181 97.7246C120.89 97.5322 121.361 96.9587 121.97 96.4588C122.546 95.9855 122.143 93.6872 122.143 93.6872L123.932 92.9922C123.932 92.9922 123.662 95.3016 123.662 96.5723C123.662 96.9987 123.887 97.2796 123.954 97.6511C123.996 97.8534 124.013 98.061 124.005 98.2683V98.2683Z" fill="#B77446"/>
<path d="M124.005 98.2679C123.997 98.3785 123.956 98.4833 123.889 98.5666C123.821 98.6498 123.731 98.7072 123.632 98.73H122.218C122.043 98.705 121.866 98.705 121.69 98.73H119.405C118.988 98.5855 118.814 98.3707 118.779 98.2503C118.727 98.0813 119.315 97.9443 119.943 97.7823L119.951 97.7951C120.504 98.09 121.121 98.2157 121.734 98.1591C122.552 98.076 123.388 97.7104 123.952 97.6485C123.995 97.8514 124.013 98.0598 124.005 98.2679V98.2679Z" fill="#C13D4C"/>
<path d="M119.084 67.8616C119.084 67.8616 121.068 78.659 121.403 84.5358C121.738 90.4126 122.158 95.2778 122.158 95.2778C122.456 95.3845 122.77 95.4318 123.084 95.4174C123.406 95.3965 123.723 95.3259 124.027 95.2079C124.027 95.2079 125.993 86.3661 125.342 82.827C124.691 79.2879 125.233 76.0239 125.546 73.0886C125.994 68.878 124.269 66.9224 123.065 65.5894C121.846 64.2409 119.084 67.8616 119.084 67.8616Z" fill="#263238"/>
<path d="M117.678 48.0861C117.483 46.3273 117.983 43.5152 121.197 43.9645C124.41 44.4138 125.423 47.8623 124.774 49.3952C124.126 50.9281 125.707 51.298 126.204 52.947C126.63 54.3632 126.779 56.1221 127.471 56.9115C129.693 59.4581 125.333 63.3687 122.705 62.5442C117.917 61.0411 117.3 60.8167 117.47 56.7095C117.557 54.6047 119.057 53.7892 118.104 53.1805C115.805 51.7094 118.124 52.0639 117.678 48.0861Z" fill="#263238"/>
<path d="M119.608 50.3136C119.608 50.3136 119.974 52.6348 118.65 53.7301L119.603 55.2881L121.516 55.1858L122.4 52.6892C122.4 52.6892 122.128 52.6306 121.999 49.5189L119.608 50.3136Z" fill="#E5A98F"/>
<path d="M118.984 50.4909C118.984 50.4909 121.846 51.1198 122.177 49.1664C122.507 47.213 123.1 45.9802 121.286 45.4967C119.473 45.0133 118.99 45.6865 118.735 46.3085C118.479 46.9305 118.25 50.2772 118.984 50.4909Z" fill="#FFBE9D"/>
<path d="M118.384 52.6323C120.258 52.1695 122.219 52.3826 123.973 53.24C123.973 53.24 122.448 62.7747 123.103 64.5949C123.501 65.7065 123.804 66.8564 124.008 68.0295L116.895 68.126C116.895 68.126 116.992 61.8798 116.666 59.6695C116.34 57.4591 118.384 52.6323 118.384 52.6323Z" fill="#E5A98F"/>
<path d="M123.969 63.8503C123.931 63.6929 123.903 63.5326 123.887 63.3706C123.807 62.3532 123.919 61.3286 124.217 60.3608L124.23 60.3171C124.237 60.2926 124.246 60.2558 124.257 60.2078V60.2035C124.267 60.1598 124.278 60.1076 124.291 60.0474C124.295 60.0277 124.299 60.0069 124.303 59.9845C124.486 59.0891 124.888 56.8398 124.994 56.5344C125.043 56.3742 125.079 56.2098 125.103 56.043C125.212 55.3608 125.261 54.2841 124.898 53.8337C124.395 53.2075 122.616 52.7432 122.616 52.7432C122.265 53.3444 121.126 54.8294 119.633 54.5607C118.769 54.4056 118.636 52.5716 118.636 52.5716C118.236 52.6009 117.843 52.6998 117.471 52.8647C117.471 52.8647 115.248 54.3795 112.106 59.2031C112.009 59.3566 111.769 59.339 111.189 59.2159C110.451 59.0592 108.944 59.0795 106.67 58.7144C106.67 58.7144 106.591 58.7762 106.572 59.048C106.561 59.3099 106.527 59.57 106.47 59.8246C107.476 60.3305 108.508 60.7717 109.56 61.1459C110.124 61.341 110.713 61.5238 111.275 61.6608C111.754 61.7848 112.242 61.8645 112.733 61.899C114.099 61.2296 115.317 60.2482 116.307 59.0208C116.409 60.7968 116.636 63.0908 116.497 64.7655C116.417 65.7195 115.82 68.9276 115.97 69.4622C116.28 70.5756 118.68 70.6332 120.825 70.517C120.874 70.517 120.918 70.5117 120.965 70.5085C121.297 70.4882 121.624 70.4552 121.928 70.4189C122.396 70.3651 122.861 70.2841 123.321 70.1764C123.792 70.0701 124.252 69.9093 124.692 69.6967C124.99 69.568 125.242 69.3351 125.407 69.0342C125.201 67.8238 124.209 65.1876 123.969 63.8503Z" fill="#E8505B"/>
<path d="M120.383 45.0093C120.383 45.0093 120.333 45.6712 121.273 46.7953C122.214 47.9194 121.991 49.9219 121.991 49.9219C121.991 49.9219 123.577 46.6658 122.731 45.6259C121.885 44.5861 120.383 45.0093 120.383 45.0093Z" fill="#263238"/>
<path d="M121.533 44.1487C121.533 44.1487 120.11 43.6285 118.699 45.1481C118.09 45.8026 118.182 47.0893 118.508 47.8354C118.508 47.8354 119.008 46.2365 119.921 45.8868C120.835 45.5372 121.533 44.1487 121.533 44.1487Z" fill="#263238"/>
<path d="M119.302 66.9323C119.707 68.4354 119.943 69.673 120.963 70.5093C121.295 70.4885 121.621 70.456 121.926 70.4197C122.395 70.3658 122.86 70.2847 123.321 70.1767C123.792 70.0704 124.252 69.9096 124.692 69.697C124.99 69.5683 125.242 69.3354 125.407 69.0345C125.201 67.8246 124.209 65.1879 123.969 63.8506C123.947 63.7348 123.931 63.6177 123.92 63.4999C123.843 62.4418 123.943 61.3771 124.216 60.3584V60.3584C124.23 60.3051 124.243 60.2566 124.256 60.2054V60.2012C124.264 60.1681 124.276 60.1153 124.29 60.045C124.294 60.0253 124.298 60.0045 124.302 59.9821C124.469 59.1314 124.897 56.4702 125.006 56.1227C125.04 56.0129 124.957 55.5204 124.993 55.288L124.257 54.6927C124.257 54.6927 119.343 56.9845 118.261 60.1436C117.179 63.3027 118.719 64.7753 119.302 66.9323Z" fill="#C13D4C"/>
<path d="M109.558 61.1467C110.585 61.5341 111.65 61.7871 112.731 61.9004C114.112 61.2232 115.342 60.2276 116.338 58.9817C116.413 58.6166 116.484 58.0042 116.08 58.1822C115.513 58.4285 113.412 61.3738 112.617 61.4356C111.593 61.4088 110.572 61.3123 109.558 61.1467V61.1467Z" fill="#C13D4C"/>
<path d="M113.44 60.3074C114.888 61.0905 116.402 61.7195 117.961 62.1857C118.513 62.3395 119.076 62.4383 119.644 62.481C121.289 61.8842 122.696 60.6854 123.626 59.0868C126.522 54.2195 124.385 53.4462 124.385 53.4462C124.385 53.4462 122.161 54.9609 119.02 59.7845C118.91 59.953 118.634 59.9151 117.92 59.7574C117.156 59.5889 115.637 59.6097 113.541 59.2734C113.507 59.3887 113.488 59.5088 113.484 59.63C113.437 60.2291 113.44 60.3074 113.44 60.3074Z" fill="#E8505B"/>
<path d="M111.191 59.2163C110.46 59.0607 108.906 59.0484 106.669 58.695C106.478 58.6307 106.293 58.5505 106.114 58.4552C105.634 58.1935 104.356 58.0186 104.084 58.2979C103.812 58.5772 104.37 59.7109 105.537 59.7455C105.851 59.7522 106.166 59.7805 106.477 59.8303C107.48 60.3341 108.509 60.7735 109.558 61.1463C110.122 61.3413 110.71 61.5242 111.273 61.6611C111.452 60.8535 111.424 60.0075 111.191 59.2163V59.2163Z" fill="#FFBE9D"/>
<path d="M117.961 62.1855C117.781 61.8125 117.683 61.3985 117.676 60.9768C117.669 60.555 117.752 60.1373 117.92 59.7572C117.156 59.5888 115.628 59.5163 113.532 59.18V59.1837C113.236 59.1015 112.948 58.9874 112.673 58.8431C112.162 58.5633 110.797 58.3773 110.507 58.6752C110.217 58.9732 110.814 60.1842 112.059 60.2209C112.51 60.2225 112.96 60.2773 113.401 60.3846C114.872 61.1223 116.398 61.7248 117.961 62.1855V62.1855Z" fill="#FFBE9D"/>
<path d="M120.474 47.7C120.509 47.7 120.542 47.7151 120.567 47.7421C120.592 47.7691 120.606 47.8057 120.606 47.8439C120.606 47.8821 120.592 47.9187 120.567 47.9456C120.542 47.9726 120.509 47.9878 120.474 47.9878C120.439 47.9878 120.406 47.9726 120.381 47.9456C120.356 47.9187 120.342 47.8821 120.342 47.8439C120.342 47.8057 120.356 47.7691 120.381 47.7421C120.406 47.7151 120.439 47.7 120.474 47.7Z" fill="#263238"/>
<path d="M118.981 47.4363C119.016 47.4363 119.049 47.4515 119.074 47.4785C119.099 47.5054 119.113 47.542 119.113 47.5802C119.113 47.6184 119.099 47.655 119.074 47.682C119.049 47.709 119.016 47.7241 118.981 47.7241C118.946 47.7241 118.913 47.709 118.888 47.682C118.863 47.655 118.849 47.6184 118.849 47.5802C118.849 47.542 118.863 47.5054 118.888 47.4785C118.913 47.4515 118.946 47.4363 118.981 47.4363Z" fill="#263238"/>
<path d="M119.293 48.4576C119.201 48.6644 119.135 48.7544 119.201 48.844C119.267 48.9335 119.399 49.078 119.464 49.078C119.53 49.078 119.443 49.087 119.38 48.9714C119.317 48.8557 119.25 48.8354 119.244 48.7091C119.238 48.5828 119.356 48.5114 119.333 48.4576" fill="#263238"/>
<path d="M120.905 47.7241C120.905 47.7241 120.649 47.431 120.515 47.4363C120.46 47.4449 120.403 47.4406 120.349 47.4235" fill="#263238"/>
<path d="M118.598 47.4897C118.598 47.4897 118.854 47.1961 118.989 47.2019C119.045 47.2104 119.102 47.206 119.156 47.1891" fill="#263238"/>
<path d="M118.981 49.4375C119.034 49.5566 119.119 49.6544 119.226 49.7168C119.332 49.7791 119.454 49.8028 119.574 49.7845L119.991 49.7131C119.716 49.6657 119.443 49.6007 119.174 49.5185" fill="#263238"/>
<path d="M121.834 64.9403C121.858 64.9344 121.882 64.9333 121.907 64.9296C121.904 64.8475 121.902 64.7654 121.902 64.6823C121.902 64.6444 121.916 64.6081 121.941 64.5813C121.965 64.5545 121.998 64.5395 122.033 64.5395C122.068 64.5395 122.101 64.5545 122.125 64.5813C122.15 64.6081 122.164 64.6444 122.164 64.6823C122.164 64.7559 122.164 64.8294 122.164 64.903C122.209 64.9014 122.253 64.8992 122.297 64.8992C122.331 64.8992 122.365 64.9143 122.389 64.9411C122.414 64.968 122.428 65.0044 122.428 65.0423C122.428 65.0803 122.414 65.1167 122.389 65.1435C122.365 65.1704 122.331 65.1854 122.297 65.1854C122.261 65.1854 122.225 65.1854 122.189 65.1854C122.189 65.1966 122.189 65.2078 122.192 65.219C122.222 65.3986 121.971 65.4765 121.94 65.2952C121.936 65.2675 121.936 65.2387 121.932 65.2116C121.922 65.2116 121.913 65.2116 121.903 65.2158C121.741 65.2553 121.669 64.9797 121.834 64.9403Z" fill="white"/>
<path d="M121.496 68.8246C121.462 68.7675 121.423 68.714 121.381 68.6647C121.264 68.532 121.448 68.33 121.565 68.4632C121.624 68.5301 121.676 68.6029 121.721 68.6807C121.747 68.6663 121.773 68.6537 121.8 68.6428C121.833 68.6346 121.867 68.6406 121.896 68.6594C121.925 68.6782 121.946 68.7085 121.955 68.7439C121.964 68.7794 121.96 68.8172 121.945 68.8496C121.929 68.882 121.902 68.9064 121.87 68.9179C121.857 68.9221 121.847 68.9301 121.834 68.9349C121.845 68.9662 121.855 68.998 121.862 69.0303C121.9 69.2083 121.648 69.2851 121.61 69.106C121.61 69.1007 121.607 69.0959 121.606 69.0906C121.604 69.0852 121.6 69.0943 121.598 69.097C121.477 69.2249 121.292 69.0234 121.413 68.8955C121.44 68.8703 121.467 68.8467 121.496 68.8246V68.8246Z" fill="white"/>
<path d="M122.099 57.0448C122.205 56.9755 122.302 56.9003 122.402 56.8316C122.398 56.7394 122.396 56.6477 122.396 56.5544C122.396 56.5165 122.41 56.4802 122.435 56.4534C122.459 56.4266 122.492 56.4116 122.527 56.4116C122.562 56.4116 122.595 56.4266 122.619 56.4534C122.644 56.4802 122.658 56.5165 122.658 56.5544C122.658 56.6029 122.658 56.6514 122.658 56.6999C122.721 56.6785 122.787 56.6661 122.853 56.6632C123.021 56.6573 123.021 56.9424 122.853 56.9483C122.79 56.9523 122.729 56.968 122.672 56.9947C122.676 57.0517 122.678 57.1093 122.685 57.1663C122.711 57.3454 122.459 57.4232 122.433 57.242C122.429 57.2111 122.429 57.1796 122.425 57.1487C122.361 57.1978 122.297 57.2484 122.23 57.2916C122.2 57.3102 122.165 57.3152 122.132 57.3054C122.098 57.2957 122.07 57.2719 122.053 57.2394C122.035 57.2069 122.03 57.1682 122.039 57.1318C122.048 57.0953 122.069 57.0641 122.099 57.0448Z" fill="white"/>
<path d="M117.355 55.8076C117.388 55.7927 117.423 55.7804 117.457 55.7666V55.4777C117.457 55.4398 117.47 55.4035 117.495 55.3767C117.519 55.3499 117.553 55.3348 117.587 55.3348C117.622 55.3348 117.655 55.3499 117.68 55.3767C117.704 55.4035 117.718 55.4398 117.718 55.4777V55.6765C117.772 55.66 117.826 55.6413 117.882 55.6301C118.046 55.5949 118.117 55.87 117.951 55.903C117.872 55.92 117.795 55.9419 117.718 55.9686V56.1247C117.718 56.1626 117.704 56.199 117.68 56.2257C117.655 56.2525 117.622 56.2676 117.587 56.2676C117.553 56.2676 117.519 56.2525 117.495 56.2257C117.47 56.199 117.457 56.1626 117.457 56.1247V56.0714C117.446 56.0762 117.435 56.0794 117.424 56.0842C117.266 56.1509 117.2 55.8748 117.355 55.8076Z" fill="white"/>
<path d="M116.77 64.321C116.783 64.2838 116.799 64.2481 116.819 64.2144C116.799 64.1329 116.783 64.0498 116.77 63.9671C116.738 63.7875 116.989 63.7113 117.022 63.8915C117.03 63.9346 117.038 63.9799 117.047 64.0252C117.062 64.0194 117.076 64.0114 117.092 64.006C117.108 64.001 117.126 63.9997 117.143 64.002C117.16 64.0044 117.176 64.0104 117.191 64.0197C117.222 64.0385 117.244 64.0698 117.253 64.1065C117.262 64.1433 117.258 64.1825 117.241 64.2157C117.224 64.2488 117.195 64.2731 117.161 64.2832C117.148 64.2832 117.136 64.2901 117.123 64.2949C117.137 64.3298 117.154 64.3633 117.174 64.3951C117.27 64.5497 117.043 64.6899 116.948 64.5385C116.938 64.5225 116.931 64.5044 116.922 64.4852C116.833 64.5076 116.729 64.4383 116.77 64.321Z" fill="white"/>
<path d="M117.067 69.0043C117.097 68.9723 117.128 68.943 117.158 68.9121C117.121 68.8209 117.083 68.7298 117.046 68.6376C116.981 68.4702 117.206 68.3247 117.272 68.4937C117.304 68.5741 117.337 68.6536 117.37 68.7335C117.388 68.7213 117.404 68.7053 117.423 68.6941C117.569 68.6067 117.704 68.854 117.555 68.9403C117.53 68.9567 117.506 68.9745 117.483 68.9936C117.522 69.08 117.559 69.1658 117.602 69.2495C117.617 69.282 117.619 69.3195 117.61 69.3543C117.6 69.3891 117.579 69.4186 117.55 69.4368C117.521 69.455 117.487 69.4606 117.455 69.4523C117.423 69.444 117.394 69.4226 117.376 69.3923C117.34 69.323 117.309 69.2495 117.279 69.1802C117.269 69.1892 117.26 69.1962 117.252 69.2057C117.227 69.2303 117.194 69.2435 117.161 69.2426C117.127 69.2417 117.096 69.2268 117.072 69.2009C117.048 69.1751 117.034 69.1402 117.034 69.1037C117.033 69.0671 117.045 69.0315 117.067 69.0043V69.0043Z" fill="white"/>
<path d="M114.426 57.2245C114.447 57.2096 114.469 57.1952 114.492 57.1808C114.476 57.1477 114.456 57.1169 114.433 57.0891C114.321 56.9527 114.505 56.7501 114.618 56.8876C114.654 56.9326 114.686 56.9822 114.712 57.0353C114.742 57.0255 114.774 57.0278 114.803 57.0418C114.831 57.0558 114.854 57.0805 114.868 57.1115C114.881 57.1425 114.884 57.1777 114.875 57.2107C114.867 57.2436 114.848 57.2722 114.822 57.2911L114.788 57.3146C114.788 57.3378 114.784 57.3609 114.774 57.3815C114.764 57.4021 114.749 57.4194 114.731 57.4317C114.713 57.444 114.692 57.4509 114.671 57.4517C114.649 57.4525 114.628 57.4471 114.61 57.4361C114.593 57.4478 114.576 57.459 114.558 57.4707C114.417 57.572 114.286 57.3247 114.426 57.2245Z" fill="white"/>
<defs>
<linearGradient id="paint0_linear_1_1824" x1="5919.49" y1="-1123.07" x2="5919.23" y2="-1121.68" gradientUnits="userSpaceOnUse">
<stop stop-color="#BA916C"/>
<stop offset="1" stop-color="#BA916C" stop-opacity="0"/>
</linearGradient>
<linearGradient id="paint1_linear_1_1824" x1="5997.86" y1="-529.532" x2="5996.56" y2="-529.532" gradientUnits="userSpaceOnUse">
<stop stop-color="#4A332B"/>
<stop offset="1" stop-color="#382723"/>
</linearGradient>
</defs>
</svg>
