<svg width="296" height="40" viewBox="0 0 296 40" fill="none" xmlns="http://www.w3.org/2000/svg">
<path d="M0 20C0 8.95433 8.95433 0 20 0C31.0457 0 40 8.95433 40 20C40 31.0457 31.0457 40 20 40C8.95433 40 0 31.0457 0 20Z" fill="#FF0000"/>
<path d="M30.2195 15.0623C29.9742 14.1198 29.2513 13.3776 28.3334 13.1257C26.6699 12.668 19.9987 12.668 19.9987 12.668C19.9987 12.668 13.3275 12.668 11.6639 13.1257C10.7459 13.3776 10.023 14.1198 9.7777 15.0623C9.33203 16.7706 9.33203 20.3346 9.33203 20.3346C9.33203 20.3346 9.33203 23.8986 9.7777 25.607C10.023 26.5495 10.7459 27.2916 11.6639 27.5436C13.3275 28.0013 19.9987 28.0013 19.9987 28.0013C19.9987 28.0013 26.6699 28.0013 28.3334 27.5436C29.2513 27.2916 29.9742 26.5495 30.2195 25.607C30.6654 23.8986 30.6654 20.3346 30.6654 20.3346C30.6654 20.3346 30.6654 16.7706 30.2195 15.0623Z" fill="white"/>
<path d="M18 24.0007V17.334L23.3333 20.6674L18 24.0007Z" fill="#FF0000"/>
<path d="M84 40C95.0457 40 104 31.0457 104 20C104 8.9543 95.0457 0 84 0C72.9543 0 64 8.9543 64 20C64 31.0457 72.9543 40 84 40Z" fill="url(#paint0_linear_1_968)"/>
<path d="M91.0811 14.5899C91.9392 14.5899 92.6348 13.8942 92.6348 13.0361C92.6348 12.178 91.9392 11.4824 91.0811 11.4824C90.223 11.4824 89.5273 12.178 89.5273 13.0361C89.5273 13.8942 90.223 14.5899 91.0811 14.5899Z" fill="white"/>
<path d="M84.1714 13.4746C80.5726 13.4746 77.6445 16.4025 77.6445 20.0014C77.6445 23.6002 80.5726 26.5281 84.1714 26.5281C87.7702 26.5281 90.6981 23.6002 90.6981 20.0014C90.6981 16.4025 87.7702 13.4746 84.1714 13.4746ZM84.1714 24.1822C81.866 24.1822 79.9904 22.3068 79.9904 20.0014C79.9904 17.696 81.866 15.8206 84.1714 15.8206C86.4767 15.8206 88.3521 17.696 88.3521 20.0014C88.3521 22.3068 86.4768 24.1822 84.1714 24.1822Z" fill="white"/>
<path d="M89.354 33.2525H78.7731C74.3835 33.2525 70.8125 29.6815 70.8125 25.292V14.7106C70.8125 10.321 74.3835 6.75 78.7731 6.75H89.354C93.7436 6.75 97.315 10.321 97.315 14.7106V25.292C97.315 29.6815 93.7436 33.2525 89.354 33.2525ZM78.7731 9.2433C75.7582 9.2433 73.3058 11.6957 73.3058 14.7106V25.292C73.3058 28.3068 75.7582 30.7592 78.7731 30.7592H89.354C92.3689 30.7592 94.8217 28.3068 94.8217 25.292V14.7106C94.8217 11.6957 92.3689 9.2433 89.354 9.2433H78.7731V9.2433Z" fill="white"/>
<path d="M148 40C136.972 40 128 31.028 128 20C128 8.97195 136.972 0 148 0C159.028 0 168 8.97195 168 20C168 31.028 159.028 40 148 40Z" fill="#007BBC"/>
<path d="M159.307 21.5228V28.9906C159.307 29.1751 159.158 29.3247 158.973 29.3247H155.118C154.934 29.3247 154.784 29.1751 154.784 28.9906V22.0456C154.784 20.2179 154.131 18.9697 152.493 18.9697C151.243 18.9697 150.501 19.8101 150.173 20.6237C150.054 20.9145 150.023 21.3183 150.023 21.7262V28.9903C150.023 29.1748 149.874 29.3244 149.689 29.3244H145.835C145.65 29.3244 145.5 29.1753 145.501 28.9902C145.51 27.1409 145.549 18.1671 145.509 16.0579C145.506 15.8711 145.656 15.7198 145.843 15.7198H149.689C149.874 15.7198 150.024 15.8694 150.024 16.0539V17.6477C150.014 17.6629 150.002 17.6778 149.994 17.6923H150.024V17.6477C150.625 16.7228 151.697 15.4004 154.1 15.4004C157.076 15.4004 159.307 17.3448 159.307 21.5228ZM138.811 29.3247H142.664C142.849 29.3247 142.999 29.1751 142.999 28.9906V16.0539C142.999 15.8694 142.849 15.7198 142.664 15.7198H138.811C138.626 15.7198 138.477 15.8694 138.477 16.0539V28.9906C138.477 29.1751 138.626 29.3247 138.811 29.3247Z" fill="white"/>
<path d="M140.601 13.989C141.938 13.989 143.022 12.905 143.022 11.5677C143.022 10.2305 141.938 9.14648 140.601 9.14648C139.264 9.14648 138.18 10.2305 138.18 11.5677C138.18 12.905 139.264 13.989 140.601 13.989Z" fill="white"/>
<g clip-path="url(#clip0_1_968)">
<path d="M225.875 33.8537C233.54 26.1896 233.54 13.7636 225.875 6.09948C218.211 -1.56464 205.785 -1.56464 198.121 6.09947C190.457 13.7636 190.457 26.1896 198.121 33.8537C205.785 41.5178 218.211 41.5178 225.875 33.8537Z" fill="#3C5A99"/>
<path d="M211.598 21.0887C211.585 20.9948 211.572 20.9009 211.559 20.8067C211.597 20.233 211.513 19.6417 211.807 19.1055C211.899 19.1853 211.992 19.2652 212.085 19.3451C212.699 19.8527 212.184 20.5141 212.322 21.0866C212.243 21.0909 212.164 21.0935 212.085 21.0943C211.923 21.0925 211.76 21.0906 211.598 21.0887Z" fill="#A2B1CE"/>
<path d="M212.436 19.6471C212.307 19.9673 212.179 20.2876 212.05 20.6079C211.878 20.2701 210.944 19.9336 212.049 19.5938C212.178 19.6115 212.307 19.6293 212.436 19.6471Z" fill="#E8ECF3"/>
<path d="M211.624 19.0996C211.786 19.1015 211.948 19.1033 212.111 19.1052C212.19 19.3545 212.27 19.6038 212.349 19.8531C212.084 20.0283 212.338 20.1853 212.367 20.3502C212.281 20.4364 212.195 20.5228 212.109 20.609C211.903 20.71 211.863 20.8956 211.86 21.0998C211.364 20.4823 211.711 19.7654 211.624 19.0996Z" fill="#A7B5D1"/>
<path fill-rule="evenodd" clip-rule="evenodd" d="M208.746 20.197V32.2171C208.746 32.39 208.886 32.5302 209.059 32.5302H213.523C213.696 32.5302 213.836 32.39 213.836 32.2171V20.0012H217.072C217.235 20.0012 217.37 19.8766 217.384 19.7145L217.695 16.0338C217.711 15.8512 217.567 15.6943 217.383 15.6943H213.836V13.083C213.836 12.4709 214.332 11.9748 214.944 11.9748H217.438C217.611 11.9748 217.751 11.8346 217.751 11.6617V7.98104C217.751 7.80816 217.611 7.66797 217.438 7.66797H213.224C210.751 7.66797 208.746 9.67276 208.746 12.1458V15.6943H206.514C206.341 15.6943 206.201 15.8345 206.201 16.0075V19.6881C206.201 19.861 206.341 20.0012 206.514 20.0012H208.746V20.197H208.746Z" fill="white"/>
</g>
<g clip-path="url(#clip1_1_968)">
<path d="M289.842 33.8204C297.488 26.1747 297.488 13.7785 289.842 6.13275C282.196 -1.51298 269.8 -1.51299 262.154 6.13274C254.509 13.7785 254.509 26.1747 262.154 33.8204C269.8 41.4661 282.196 41.4661 289.842 33.8204Z" fill="#33CCFF"/>
<path d="M287.888 12.4238C287.122 12.7704 286.279 12.9808 285.452 13.1197C285.844 13.0538 286.423 12.3431 286.654 12.0558C287.007 11.6175 287.3 11.118 287.465 10.5787C287.486 10.5365 287.502 10.4836 287.46 10.4517C287.407 10.4307 287.373 10.4415 287.331 10.4625C286.408 10.9571 285.454 11.3159 284.438 11.5698C284.354 11.5908 284.291 11.5698 284.238 11.5169C284.154 11.4218 284.075 11.3322 283.985 11.2583C283.558 10.895 283.1 10.61 282.584 10.3994C281.905 10.1229 281.164 10.0058 280.434 10.0532C279.723 10.0994 279.025 10.2997 278.394 10.6293C277.762 10.9596 277.198 11.419 276.749 11.9732C276.284 12.5466 275.942 13.2237 275.766 13.9412C275.597 14.6338 275.611 15.319 275.714 16.0191C275.73 16.1352 275.72 16.1509 275.615 16.1352C271.64 15.5438 268.346 14.1216 265.672 11.0742C265.556 10.9419 265.493 10.9419 265.397 11.0844C264.227 12.8384 264.795 15.6567 266.257 17.0416C266.452 17.2262 266.652 17.4108 266.868 17.5793C266.789 17.5954 265.816 17.49 264.949 17.0416C264.833 16.9682 264.775 17.0103 264.765 17.142C264.754 17.3315 264.77 17.5059 264.796 17.7115C265.021 19.4896 266.252 21.1343 267.938 21.776C268.139 21.8602 268.36 21.9341 268.576 21.9708C268.192 22.055 267.796 22.1153 266.694 22.0291C266.557 22.0027 266.505 22.0712 266.557 22.2029C267.385 24.4598 269.172 25.1312 270.511 25.5138C270.69 25.5451 270.869 25.5451 271.049 25.5872C271.038 25.6034 271.027 25.6034 271.017 25.619C270.573 26.2959 269.034 26.7996 268.317 27.0501C267.013 27.5057 265.594 27.7107 264.216 27.5749C263.996 27.5425 263.949 27.5449 263.89 27.5749C263.829 27.6123 263.882 27.665 263.953 27.7223C264.233 27.9069 264.517 28.0705 264.807 28.2286C265.682 28.6924 266.594 29.0616 267.548 29.3251C272.474 30.6856 278.024 29.6858 281.723 26.0107C284.627 23.1247 285.645 19.1447 285.645 15.1597C285.645 15.0037 285.83 14.9176 285.939 14.8353C286.695 14.2674 287.296 13.5879 287.859 12.8291C287.986 12.6587 287.978 12.507 287.978 12.4448C287.978 12.434 287.978 12.4238 287.978 12.4238C287.978 12.3601 287.986 12.3792 287.888 12.4238Z" fill="white"/>
<path fill-rule="evenodd" clip-rule="evenodd" d="M271.024 29.9453C270.992 29.9478 270.626 29.9453 271.024 29.9453C271.024 29.9453 270.96 29.9453 271.024 29.9453Z" fill="white"/>
<path fill-rule="evenodd" clip-rule="evenodd" d="M271.836 29.9653C271.836 29.9247 272.263 29.9653 271.836 29.9653C271.836 29.9443 271.888 29.9653 271.836 29.9653Z" fill="white"/>
<path fill-rule="evenodd" clip-rule="evenodd" d="M280.365 10.1953C280.339 10.2164 280.302 10.2164 280.266 10.1953C280.302 10.1953 280.339 10.1953 280.365 10.1953Z" fill="white"/>
</g>
<defs>
<linearGradient id="paint0_linear_1_968" x1="66.9454" y1="37.0546" x2="110.167" y2="-6.16742" gradientUnits="userSpaceOnUse">
<stop offset="0.0011" stop-color="#FBE18A"/>
<stop offset="0.2094" stop-color="#FCBB45"/>
<stop offset="0.3765" stop-color="#F75274"/>
<stop offset="0.5238" stop-color="#D53692"/>
<stop offset="0.7394" stop-color="#8F39CE"/>
<stop offset="1" stop-color="#5B4FE9"/>
</linearGradient>
<clipPath id="clip0_1_968">
<rect width="40" height="40" fill="white" transform="translate(192)"/>
</clipPath>
<clipPath id="clip1_1_968">
<rect width="40" height="40" fill="white" transform="translate(256)"/>
</clipPath>
</defs>
</svg>
