<svg width="36" height="77" viewBox="0 0 36 77" fill="none" xmlns="http://www.w3.org/2000/svg">
<rect width="36" height="11" rx="1" fill="#C4C4C4"/>
<rect y="68" width="36" height="9" rx="1" fill="#7CCE5E"/>
<rect x="9" y="38" width="18" height="18" rx="4" fill="#7CCE5E"/>
<path d="M13 47.5L16.3333 51L23 44" stroke="white" stroke-width="1.7" stroke-linecap="round" stroke-linejoin="round"/>
<path d="M10.676 28.9995L9.866 27.8295H9.818H8.972V28.9995H8V24.7995H9.818C10.19 24.7995 10.512 24.8615 10.784 24.9855C11.06 25.1095 11.272 25.2855 11.42 25.5135C11.568 25.7415 11.642 26.0115 11.642 26.3235C11.642 26.6355 11.566 26.9055 11.414 27.1335C11.266 27.3575 11.054 27.5295 10.778 27.6495L11.72 28.9995H10.676ZM10.658 26.3235C10.658 26.0875 10.582 25.9075 10.43 25.7835C10.278 25.6555 10.056 25.5915 9.764 25.5915H8.972V27.0555H9.764C10.056 27.0555 10.278 26.9915 10.43 26.8635C10.582 26.7355 10.658 26.5555 10.658 26.3235Z" fill="#646464"/>
<path d="M13.4321 29.0475C13.1641 29.0475 12.9021 29.0155 12.6461 28.9515C12.3901 28.8835 12.1861 28.7995 12.0341 28.6995L12.3461 28.0275C12.4901 28.1195 12.6641 28.1955 12.8681 28.2555C13.0721 28.3115 13.2721 28.3395 13.4681 28.3395C13.8641 28.3395 14.0621 28.2415 14.0621 28.0455C14.0621 27.9535 14.0081 27.8875 13.9001 27.8475C13.7921 27.8075 13.6261 27.7735 13.4021 27.7455C13.1381 27.7055 12.9201 27.6595 12.7481 27.6075C12.5761 27.5555 12.4261 27.4635 12.2981 27.3315C12.1741 27.1995 12.1121 27.0115 12.1121 26.7675C12.1121 26.5635 12.1701 26.3835 12.2861 26.2275C12.4061 26.0675 12.5781 25.9435 12.8021 25.8555C13.0301 25.7675 13.2981 25.7235 13.6061 25.7235C13.8341 25.7235 14.0601 25.7495 14.2841 25.8015C14.5121 25.8495 14.7001 25.9175 14.8481 26.0055L14.5361 26.6715C14.2521 26.5115 13.9421 26.4315 13.6061 26.4315C13.4061 26.4315 13.2561 26.4595 13.1561 26.5155C13.0561 26.5715 13.0061 26.6435 13.0061 26.7315C13.0061 26.8315 13.0601 26.9015 13.1681 26.9415C13.2761 26.9815 13.4481 27.0195 13.6841 27.0555C13.9481 27.0995 14.1641 27.1475 14.3321 27.1995C14.5001 27.2475 14.6461 27.3375 14.7701 27.4695C14.8941 27.6015 14.9561 27.7855 14.9561 28.0215C14.9561 28.2215 14.8961 28.3995 14.7761 28.5555C14.6561 28.7115 14.4801 28.8335 14.2481 28.9215C14.0201 29.0055 13.7481 29.0475 13.4321 29.0475Z" fill="#646464"/>
<path d="M20.1728 28.2075V28.9995H16.9988V28.3695L18.6188 26.8395C18.7908 26.6755 18.9068 26.5355 18.9668 26.4195C19.0268 26.2995 19.0568 26.1815 19.0568 26.0655C19.0568 25.8975 18.9988 25.7695 18.8828 25.6815C18.7708 25.5895 18.6048 25.5435 18.3848 25.5435C18.2008 25.5435 18.0348 25.5795 17.8868 25.6515C17.7388 25.7195 17.6148 25.8235 17.5148 25.9635L16.8068 25.5075C16.9708 25.2635 17.1968 25.0735 17.4848 24.9375C17.7728 24.7975 18.1028 24.7275 18.4748 24.7275C18.7868 24.7275 19.0588 24.7795 19.2908 24.8835C19.5268 24.9835 19.7088 25.1275 19.8368 25.3155C19.9688 25.4995 20.0348 25.7175 20.0348 25.9695C20.0348 26.1975 19.9868 26.4115 19.8908 26.6115C19.7948 26.8115 19.6088 27.0395 19.3328 27.2955L18.3668 28.2075H20.1728Z" fill="#646464"/>
<path d="M24.3613 28.1175H23.6773V28.9995H22.7293V28.1175H20.4673V27.4635L22.4473 24.7995H23.4673L21.6313 27.3255H22.7593V26.5395H23.6773V27.3255H24.3613V28.1175Z" fill="#646464"/>
<path d="M26.1046 24.7275C26.6926 24.7275 27.1526 24.9075 27.4846 25.2675C27.8166 25.6235 27.9826 26.1375 27.9826 26.8095C27.9826 27.2855 27.8926 27.6935 27.7126 28.0335C27.5366 28.3735 27.2866 28.6315 26.9626 28.8075C26.6386 28.9835 26.2646 29.0715 25.8406 29.0715C25.6166 29.0715 25.4026 29.0475 25.1986 28.9995C24.9946 28.9475 24.8206 28.8755 24.6766 28.7835L25.0366 28.0695C25.2406 28.2095 25.5026 28.2795 25.8226 28.2795C26.1786 28.2795 26.4606 28.1755 26.6686 27.9675C26.8766 27.7555 26.9886 27.4515 27.0046 27.0555C26.7526 27.3075 26.4046 27.4335 25.9606 27.4335C25.6926 27.4335 25.4486 27.3795 25.2286 27.2715C25.0086 27.1635 24.8346 27.0115 24.7066 26.8155C24.5786 26.6155 24.5146 26.3855 24.5146 26.1255C24.5146 25.8455 24.5846 25.5995 24.7246 25.3875C24.8646 25.1755 25.0546 25.0135 25.2946 24.9015C25.5386 24.7855 25.8086 24.7275 26.1046 24.7275ZM26.1766 26.7075C26.3886 26.7075 26.5606 26.6495 26.6926 26.5335C26.8286 26.4135 26.8966 26.2615 26.8966 26.0775C26.8966 25.8935 26.8306 25.7435 26.6986 25.6275C26.5706 25.5115 26.3926 25.4535 26.1646 25.4535C25.9566 25.4535 25.7866 25.5095 25.6546 25.6215C25.5266 25.7335 25.4626 25.8855 25.4626 26.0775C25.4626 26.2695 25.5266 26.4235 25.6546 26.5395C25.7866 26.6515 25.9606 26.7075 26.1766 26.7075Z" fill="#646464"/>
</svg>
