<svg width="32" height="32" viewBox="0 0 32 32" fill="none" xmlns="http://www.w3.org/2000/svg">
<path d="M31.8575 15.4666L29.9996 12.249V8.53327C29.9996 8.34613 29.9504 8.16209 29.8568 7.99994C29.7632 7.83779 29.6284 7.70303 29.4663 7.60947L26.2479 5.75139L24.3908 2.53402C24.2 2.20402 23.8479 2.00069 23.4667 2.00069H19.751L16.5333 0.14286C16.3712 0.0492862 16.1871 0 16 0C15.8128 0 15.6288 0.0492856 15.4667 0.14286L12.249 2.00069H8.53327C8.15208 2.00069 7.79995 2.20402 7.60922 2.53402L5.75181 5.75139L2.53368 7.60947C2.37154 7.70304 2.23677 7.8378 2.14321 7.99994C2.04963 8.16209 2.00034 8.34613 2.00034 8.53327V12.249L0.142502 15.4666C-0.0475005 15.7968 -0.0475005 16.203 0.142502 16.5333L2.00034 19.7509V23.4666C2.00034 23.654 2.04963 23.8378 2.14321 24.0002C2.23678 24.1623 2.37154 24.2968 2.53368 24.3907L5.75205 26.2481L7.60922 29.4662C7.70304 29.6283 7.83756 29.7631 7.9997 29.8566C8.16209 29.9502 8.3459 29.9995 8.53328 29.9995H12.249L15.4667 31.8573C15.7967 32.0476 16.2033 32.0476 16.5333 31.8573L19.751 29.9995H23.4667C23.6541 29.9995 23.8379 29.9502 24.0003 29.8566C24.1624 29.7631 24.297 29.6283 24.3908 29.4662L26.2482 26.2478L29.4663 24.3907C29.6285 24.2968 29.7632 24.1623 29.8568 24.0002C29.9504 23.8378 29.9997 23.654 29.9997 23.4666V19.7509L31.8575 16.5333C32.0475 16.203 32.0475 15.7968 31.8575 15.4666H31.8575ZM28.0089 18.9316C27.9155 19.094 27.8662 19.2778 27.8662 19.465V22.8504L24.9339 24.5431V24.5433C24.772 24.6371 24.6372 24.7717 24.5434 24.9338L22.8507 27.8662H19.465C19.2778 27.8662 19.094 27.9154 18.9316 28.0088L15.9999 29.7016L13.0682 28.0088C12.9058 27.9154 12.722 27.8662 12.5349 27.8662H9.14938L7.45672 24.9338H7.45648C7.36267 24.7719 7.22815 24.6371 7.06601 24.5433L4.13363 22.8505V19.465C4.13363 19.2779 4.08434 19.0941 3.99101 18.9317L2.29817 16L3.99101 13.0679C4.08434 12.9057 4.13363 12.7219 4.13363 12.5345V9.14931L7.06601 7.45648V7.45624C7.22815 7.36267 7.36291 7.22815 7.45648 7.06601L9.1489 4.13408H12.5349C12.722 4.13432 12.9061 4.08503 13.0682 3.99122L15.9999 2.29839L18.9316 3.99122C19.0938 4.08503 19.2778 4.13432 19.465 4.13408H22.851L24.5431 7.06577L24.5434 7.066C24.637 7.22815 24.7717 7.36267 24.9339 7.45624L27.8662 9.14907V12.5345C27.8662 12.7219 27.9155 12.9057 28.0089 13.0679L29.7017 16L28.0089 18.9316ZM21.0694 12.3945L12.4391 21.0247C12.1695 21.2933 11.7772 21.3978 11.4095 21.2993C11.0421 21.2004 10.755 20.9133 10.6562 20.5459C10.5576 20.1783 10.6621 19.7859 10.9307 19.5164L19.561 10.8862C19.8306 10.6176 20.2229 10.5131 20.5906 10.6116C20.958 10.7104 21.2451 10.9976 21.3439 11.3649C21.4425 11.7326 21.338 12.125 21.0694 12.3945V12.3945ZM14.6864 13.5428C14.6864 12.6054 14.3138 11.7064 13.6509 11.0435C12.9881 10.3807 12.0888 10.0083 11.1514 10.0083C10.2137 10.0083 9.31469 10.3807 8.65182 11.0438C7.98896 11.7066 7.6166 12.6057 7.6166 13.5433C7.6166 14.4807 7.98899 15.38 8.65207 16.0429C9.31493 16.7057 10.214 17.0781 11.1516 17.0781C12.0888 17.0769 12.9871 16.704 13.65 16.0414C14.3126 15.3788 14.6854 14.4802 14.6864 13.5428ZM9.74995 13.5428C9.74995 13.1712 9.89781 12.8148 10.1607 12.5519C10.4235 12.2892 10.7799 12.1416 11.1516 12.1416C11.5233 12.1416 11.88 12.2895 12.1426 12.5523C12.4055 12.8152 12.5531 13.1716 12.5531 13.5433C12.5531 13.915 12.4055 14.2714 12.1426 14.5343C11.8798 14.7972 11.5233 14.9447 11.1516 14.9447C10.78 14.9443 10.4236 14.7964 10.1609 14.5338C9.89805 14.2709 9.75043 13.9145 9.74996 13.5428H9.74995ZM20.8482 14.9216V14.9219C19.9108 14.9219 19.0116 15.2943 18.3484 15.9571C17.6856 16.6199 17.313 17.5192 17.313 18.4566C17.3127 19.3943 17.6851 20.2935 18.3482 20.9566C19.0111 21.6195 19.9101 21.9921 20.8478 21.9921C21.7854 21.9921 22.6847 21.6197 23.3476 20.9569C24.0107 20.294 24.3833 19.3947 24.3833 18.4574C24.3823 17.52 24.0095 16.6214 23.3468 15.9585C22.6842 15.2959 21.7856 14.9231 20.8482 14.9219V14.9216ZM20.8482 19.8585V19.8588C20.4766 19.8588 20.1199 19.7111 19.857 19.4483C19.5939 19.1854 19.4463 18.829 19.4463 18.4571C19.4463 18.0852 19.5939 17.7288 19.8568 17.4656C20.1196 17.2028 20.4763 17.0552 20.8482 17.0552C21.2199 17.0552 21.5766 17.2028 21.8395 17.4659C22.1023 17.7287 22.2499 18.0854 22.2499 18.4573C22.2495 18.8288 22.1018 19.1852 21.839 19.4478C21.5761 19.7107 21.22 19.8585 20.8483 19.8588L20.8482 19.8585Z" fill="#8E8E8E"/>
</svg>
