<svg width="48" height="39" viewBox="0 0 48 39" fill="none" xmlns="http://www.w3.org/2000/svg">
<path fill-rule="evenodd" clip-rule="evenodd" d="M0 10.3422C0 9.57344 0.623243 8.9502 1.39205 8.9502H2.06808C3.70932 8.9502 5.16642 10.0004 5.68542 11.5574L6.22857 13.1869H25.2225C27.846 13.1869 29.6858 15.7747 28.8239 18.2525L25.6661 27.3311C25.1329 28.8641 23.6878 29.8915 22.0648 29.8915H11.6103C9.9691 29.8915 8.512 28.8413 7.993 27.2843L3.04419 12.4378C2.90414 12.0177 2.51095 11.7343 2.06808 11.7343H1.39205C0.623243 11.7343 0 11.1111 0 10.3422ZM7.1566 15.971L10.6342 26.4038C10.7743 26.824 11.1675 27.1074 11.6103 27.1074H22.0648C22.5027 27.1074 22.8927 26.8301 23.0366 26.4165L26.1943 17.3379C26.4269 16.6693 25.9305 15.971 25.2225 15.971H7.1566Z" fill="#979797"/>
<path fill-rule="evenodd" clip-rule="evenodd" d="M11.0758 35.3997C11.5437 35.3997 11.9231 35.0203 11.9231 34.5523C11.9231 34.0844 11.5437 33.705 11.0758 33.705C10.6078 33.705 10.2284 34.0844 10.2284 34.5523C10.2284 35.0203 10.6078 35.3997 11.0758 35.3997ZM11.0758 38.1838C13.0814 38.1838 14.7072 36.5579 14.7072 34.5523C14.7072 32.5467 13.0814 30.9209 11.0758 30.9209C9.07019 30.9209 7.44434 32.5467 7.44434 34.5523C7.44434 36.5579 9.07019 38.1838 11.0758 38.1838Z" fill="#979797"/>
<path fill-rule="evenodd" clip-rule="evenodd" d="M23.1803 35.3997C23.6482 35.3997 24.0276 35.0203 24.0276 34.5523C24.0276 34.0844 23.6482 33.705 23.1803 33.705C22.7123 33.705 22.3329 34.0844 22.3329 34.5523C22.3329 35.0203 22.7123 35.3997 23.1803 35.3997ZM23.1803 38.1838C25.1859 38.1838 26.8117 36.5579 26.8117 34.5523C26.8117 32.5467 25.1859 30.9209 23.1803 30.9209C21.1747 30.9209 19.5488 32.5467 19.5488 34.5523C19.5488 36.5579 21.1747 38.1838 23.1803 38.1838Z" fill="#979797"/>
<path fill-rule="evenodd" clip-rule="evenodd" d="M15.1309 34.5522C15.1309 33.7834 15.7541 33.1602 16.5229 33.1602H17.7334C18.5022 33.1602 19.1254 33.7834 19.1254 34.5522C19.1254 35.321 18.5022 35.9443 17.7334 35.9443H16.5229C15.7541 35.9443 15.1309 35.321 15.1309 34.5522Z" fill="#979797"/>
<path fill-rule="evenodd" clip-rule="evenodd" d="M17.1282 30.3154C17.4624 30.3154 17.7334 30.5864 17.7334 30.9207V32.1311C17.7334 32.4654 17.4624 32.7364 17.1282 32.7364C16.7939 32.7364 16.5229 32.4654 16.5229 32.1311V30.9207C16.5229 30.5864 16.7939 30.3154 17.1282 30.3154Z" fill="#979797"/>
<g filter="url(#filter0_d_1_38)">
<circle cx="32" cy="12" r="12" fill="#FFA44A"/>
</g>
<path d="M31.8566 10.6938H31.0394L31.1971 8.82584H35.3835V7H29.2616L28.7455 12.5337H31.3118C33.1326 12.5337 33.6487 13.0393 33.6487 13.8118C33.6487 14.6124 32.9319 15.0899 31.7706 15.0899C30.724 15.0899 29.6774 14.7669 28.9176 14.2051L28 15.9466C28.9749 16.6208 30.4373 17 31.828 17C34.6953 17 36 15.4831 36 13.7416C36 12 34.8244 10.6938 31.8566 10.6938Z" fill="white"/>
<defs>
<filter id="filter0_d_1_38" x="16" y="0" width="32" height="32" filterUnits="userSpaceOnUse" color-interpolation-filters="sRGB">
<feFlood flood-opacity="0" result="BackgroundImageFix"/>
<feColorMatrix in="SourceAlpha" type="matrix" values="0 0 0 0 0 0 0 0 0 0 0 0 0 0 0 0 0 0 127 0" result="hardAlpha"/>
<feOffset dy="4"/>
<feGaussianBlur stdDeviation="2"/>
<feColorMatrix type="matrix" values="0 0 0 0 1 0 0 0 0 0.643137 0 0 0 0 0.290196 0 0 0 0.25 0"/>
<feBlend mode="normal" in2="BackgroundImageFix" result="effect1_dropShadow_1_38"/>
<feBlend mode="normal" in="SourceGraphic" in2="effect1_dropShadow_1_38" result="shape"/>
</filter>
</defs>
</svg>
