<svg width="18" height="31" viewBox="0 0 18 31" fill="none" xmlns="http://www.w3.org/2000/svg">
<path d="M15.752 15.5138C15.7381 15.4999 15.7242 15.486 15.7102 15.4581C16.0584 14.5111 16.2116 13.4945 16.128 12.464C16.0166 11.0017 15.4317 9.59511 14.4986 8.48099C14.9721 7.53399 15.181 6.47558 15.0975 5.41717C14.9861 3.89919 14.2619 2.46477 13.1199 1.46206C12.7021 1.18353 12.2843 0.891078 11.8526 0.612549C10.8917 0.13905 9.86114 -0.0559206 8.7888 0.0137116C8.28745 0.111197 7.80002 0.222608 7.29867 0.320093C6.33775 0.668254 5.51608 1.22531 4.83369 1.99127C3.7892 3.17501 3.27393 4.7487 3.38534 6.32239C3.44104 6.99086 3.60816 7.6454 3.87276 8.24424C3.84491 8.28602 3.80313 8.31387 3.77528 8.34173C2.5219 9.76222 1.89521 11.6562 2.03447 13.5502C2.09018 14.2048 2.22944 14.8454 2.45227 15.4442C2.24337 15.7506 2.0484 16.0709 1.88128 16.4191C1.81165 16.5583 1.74202 16.7115 1.68631 16.8508C1.12925 18.0067 0.822871 19.7057 0.962136 20.9173C1.07355 22.31 1.51919 23.5912 2.29907 24.761C3.4689 26.5018 5.32111 27.7273 7.38223 28.1312C9.44334 28.5351 11.6159 28.0894 13.3567 26.9196C13.9834 26.4879 14.5543 25.9726 15.0278 25.4016C15.0278 25.4016 15.0278 25.4016 15.0418 25.3877C15.9748 24.4825 16.699 22.7556 16.9358 21.5301C16.9776 20.8198 17.0193 20.0956 17.0611 19.3854C16.9915 17.9788 16.5458 16.6976 15.752 15.5138Z" fill="#8CB347"/>
<path d="M3.94251 21.2789C3.94251 19.9559 4.31852 18.6886 4.97306 17.6163C4.59705 16.7389 4.37423 15.778 4.37423 14.7753C4.37423 12.547 5.41871 10.5277 7.03418 9.19075C6.65816 8.31339 6.44927 7.36639 6.44927 6.36369C6.44927 3.70373 7.9394 1.35017 10.1119 0.0828586C9.6802 0.0132264 9.24848 -0.00070047 8.80284 0.0410789C8.30148 0.138564 7.81406 0.249976 7.31271 0.347461C6.35178 0.695622 5.53012 1.25268 4.84773 2.01863C3.80324 3.20238 3.28796 4.77607 3.39938 6.34976C3.45508 7.01823 3.6222 7.67277 3.8868 8.27161C3.85895 8.31339 3.81717 8.34124 3.78932 8.36909C2.53594 9.78959 1.90925 11.6836 2.04851 13.5776C2.10422 14.2321 2.24348 14.8727 2.4663 15.4716C2.25741 15.778 2.06244 16.0983 1.89532 16.4464C1.82569 16.5857 1.75606 16.7389 1.70035 16.8782C1.14329 18.034 0.836909 19.7331 0.976174 20.9447C1.08759 22.3373 1.53323 23.6185 2.31311 24.7884C3.48293 26.5292 5.33515 27.7547 7.39627 28.1586C8.05081 28.2839 8.71928 28.3257 9.38775 28.2839C6.29608 27.4762 3.94251 24.6073 3.94251 21.2789Z" fill="#8CB347"/>
<path d="M7.36938 31.0002L8.76203 17.0737H9.31909L10.7117 31.0002H7.36938Z" fill="#603E2A"/>
<path d="M8.76215 21.4481L11.3664 19.6655L11.5335 19.8326L9.75092 22.4369L8.76215 21.4481Z" fill="#603E2A"/>
<path d="M8.76341 25.4989L6.99475 22.8947L7.14794 22.7275L9.75219 24.5101L8.76341 25.4989Z" fill="#603E2A"/>
</svg>
