<svg width="198" height="77" viewBox="0 0 198 77" fill="none" xmlns="http://www.w3.org/2000/svg">
<path d="M0.000152588 48.4437L0.000152588 0.242188L149.769 0.242187V48.4437L0.000152588 48.4437Z" fill="#F1CA89"/>
<path d="M0.018219 48.3936H149.851V56.5547H0.018219V48.3936Z" fill="#2C2C2C"/>
<path d="M39.0014 74.3775C32.5046 74.3775 27.2379 69.1108 27.2379 62.6141C27.2379 56.1173 32.5046 50.8506 39.0014 50.8506C45.4981 50.8506 50.7648 56.1173 50.7648 62.6141C50.7648 69.1108 45.4981 74.3775 39.0014 74.3775Z" fill="#2C2C2C"/>
<path d="M38.9986 67.4604C36.3224 67.4604 34.1529 65.2909 34.1529 62.6147C34.1529 59.9385 36.3224 57.769 38.9986 57.769C41.6748 57.769 43.8443 59.9385 43.8443 62.6147C43.8443 65.2909 41.6748 67.4604 38.9986 67.4604Z" fill="#CAD2EA"/>
<path d="M39.6397 59.1695C39.6397 59.5201 39.3528 59.8389 38.9703 59.8389C38.6196 59.8389 38.3008 59.552 38.3008 59.1695C38.3008 58.7869 38.5877 58.5 38.9703 58.5C39.3528 58.5 39.6397 58.8188 39.6397 59.1695Z" fill="#2C2C2C"/>
<path d="M39.6397 66.0547C39.6397 66.4054 39.3528 66.7242 38.9703 66.7242C38.6196 66.7242 38.3008 66.4373 38.3008 66.0547C38.3008 65.6722 38.5877 65.3853 38.9703 65.3853C39.3528 65.3853 39.6397 65.704 39.6397 66.0547Z" fill="#2C2C2C"/>
<path d="M41.8689 60.6382C41.6139 60.8932 41.1995 60.8932 40.9444 60.6382C40.6894 60.3832 40.6894 59.9688 40.9444 59.7137C41.1995 59.4587 41.6139 59.4587 41.8689 59.7137C42.1558 59.9688 42.1558 60.3832 41.8689 60.6382Z" fill="#2C2C2C"/>
<path d="M36.5461 65.7046C36.1763 65.7046 35.8766 65.4049 35.8766 65.0352C35.8766 64.6654 36.1763 64.3657 36.5461 64.3657C36.9158 64.3657 37.2156 64.6654 37.2156 65.0352C37.2156 65.4049 36.9158 65.7046 36.5461 65.7046Z" fill="#2C2C2C"/>
<path d="M42.41 63.2833C42.0402 63.2833 41.7405 62.9835 41.7405 62.6138C41.7405 62.2441 42.0402 61.9443 42.41 61.9443C42.7797 61.9443 43.0794 62.2441 43.0794 62.6138C43.0794 62.9835 42.7797 63.2833 42.41 63.2833Z" fill="#2C2C2C"/>
<path d="M35.5539 63.2833C35.2033 63.2833 34.8845 62.9963 34.8845 62.6138C34.8845 62.2312 35.1714 61.9443 35.5539 61.9443C35.9046 61.9443 36.2234 62.2312 36.2234 62.6138C36.2234 62.9963 35.9046 63.2833 35.5539 63.2833Z" fill="#2C2C2C"/>
<path d="M41.4191 65.7046C41.0494 65.7046 40.7496 65.4049 40.7496 65.0352C40.7496 64.6654 41.0494 64.3657 41.4191 64.3657C41.7888 64.3657 42.0885 64.6654 42.0885 65.0352C42.0885 65.4049 41.7888 65.7046 41.4191 65.7046Z" fill="#2C2C2C"/>
<path d="M36.0959 60.6382C35.8409 60.3832 35.8409 59.9688 36.0959 59.7137C36.3509 59.4587 36.7653 59.4587 37.0204 59.7137C37.2754 59.9688 37.2754 60.3832 37.0204 60.6382C36.7653 60.9251 36.3509 60.9251 36.0959 60.6382Z" fill="#2C2C2C"/>
<path d="M37.2163 62.6158C37.2163 63.6041 38.0133 64.401 39.0015 64.401C39.9898 64.401 40.7868 63.6041 40.7868 62.6158C40.7868 61.6275 39.9898 60.8306 39.0015 60.8306C38.0133 60.8306 37.2163 61.6275 37.2163 62.6158Z" fill="#2C2C2C"/>
<path d="M67.1188 74.3775C60.622 74.3775 55.3553 69.1108 55.3553 62.6141C55.3553 56.1173 60.622 50.8506 67.1188 50.8506C73.6156 50.8506 78.8823 56.1173 78.8823 62.6141C78.8823 69.1108 73.6156 74.3775 67.1188 74.3775Z" fill="#2C2C2C"/>
<path d="M67.1162 67.4604C64.44 67.4604 62.2705 65.2909 62.2705 62.6147C62.2705 59.9385 64.44 57.769 67.1162 57.769C69.7923 57.769 71.9618 59.9385 71.9618 62.6147C71.9618 65.2909 69.7923 67.4604 67.1162 67.4604Z" fill="#CAD2EA"/>
<path d="M67.7868 59.1695C67.7868 59.5201 67.4999 59.8389 67.1174 59.8389C66.7667 59.8389 66.4479 59.552 66.4479 59.1695C66.4479 58.7869 66.7348 58.5 67.1174 58.5C67.468 58.5 67.7868 58.8188 67.7868 59.1695Z" fill="#2C2C2C"/>
<path d="M67.7868 66.0547C67.7868 66.4054 67.4999 66.7242 67.1174 66.7242C66.7667 66.7242 66.4479 66.4373 66.4479 66.0547C66.4479 65.6722 66.7348 65.3853 67.1174 65.3853C67.468 65.3853 67.7868 65.704 67.7868 66.0547Z" fill="#2C2C2C"/>
<path d="M70.0172 60.6382C69.7621 60.8932 69.3477 60.8932 69.0927 60.6382C68.8376 60.3832 68.8376 59.9688 69.0927 59.7137C69.3477 59.4587 69.7621 59.4587 70.0172 59.7137C70.2722 59.9688 70.2722 60.3832 70.0172 60.6382Z" fill="#2C2C2C"/>
<path d="M64.6955 65.7046C64.3258 65.7046 64.026 65.4049 64.026 65.0352C64.026 64.6654 64.3258 64.3657 64.6955 64.3657C65.0652 64.3657 65.3649 64.6654 65.3649 65.0352C65.3649 65.4049 65.0652 65.7046 64.6955 65.7046Z" fill="#2C2C2C"/>
<path d="M70.5654 63.2833C70.1957 63.2833 69.8959 62.9835 69.8959 62.6138C69.8959 62.2441 70.1957 61.9443 70.5654 61.9443C70.9351 61.9443 71.2349 62.2441 71.2349 62.6138C71.2349 62.9835 70.9351 63.2833 70.5654 63.2833Z" fill="#2C2C2C"/>
<path d="M63.6801 63.2833C63.3104 63.2833 63.0107 62.9835 63.0107 62.6138C63.0107 62.2441 63.3104 61.9443 63.6801 61.9443C64.0499 61.9443 64.3496 62.2441 64.3496 62.6138C64.3496 62.9835 64.0499 63.2833 63.6801 63.2833Z" fill="#2C2C2C"/>
<path d="M69.0654 65.5152C68.8104 65.2602 68.8104 64.8457 69.0654 64.5907C69.3205 64.3357 69.7349 64.3357 69.99 64.5907C70.245 64.8457 70.245 65.2602 69.99 65.5152C69.7668 65.7702 69.3524 65.7702 69.0654 65.5152Z" fill="#2C2C2C"/>
<path d="M64.222 60.6382C63.9669 60.3832 63.9669 59.9688 64.222 59.7137C64.477 59.4587 64.8914 59.4587 65.1465 59.7137C65.4015 59.9688 65.4015 60.3832 65.1465 60.6382C64.8914 60.9251 64.477 60.9251 64.222 60.6382Z" fill="#2C2C2C"/>
<path d="M65.3337 62.6158C65.3337 63.6041 66.1307 64.401 67.1189 64.401C68.1072 64.401 68.9041 63.6041 68.9041 62.6158C68.9041 61.6275 68.1072 60.8306 67.1189 60.8306C66.1307 60.8624 65.3337 61.6275 65.3337 62.6158Z" fill="#2C2C2C"/>
<path d="M149.848 48.1729H181.217V56.5571H149.848V48.1729Z" fill="#1F1949"/>
<path d="M149.849 48.4311V22.1944L151.028 10.2715C151.347 8.96447 152.559 8.10372 153.897 8.23124L177.839 10.5903C179.369 10.7497 180.74 11.5786 181.569 12.8856L193.205 31.2481C194.129 32.7146 194.607 34.4042 194.607 36.1257V58.3774C194.607 60.2583 193.555 61.9798 191.866 62.8405C191.164 63.2231 190.367 63.4144 189.57 63.4144H177.775C177.775 55.0939 173.344 48.3673 165.023 48.3673L149.849 48.4311Z" fill="#82B53F"/>
<path d="M172.228 53.1797H197.668V65.3576H172.228V53.1797Z" fill="#50526D"/>
<path d="M191.196 53.1797V56.6864C191.196 58.8223 189.443 60.5757 187.307 60.5757H174.428V65.7401H196.616V53.2434L191.196 53.1797Z" fill="#1F1D2F"/>
<path d="M181.568 12.916C181.345 14.2231 181.632 15.5939 182.365 16.7097L190.272 28.6325C190.909 29.6208 192.025 30.1946 193.204 30.1946C193.204 30.1946 182.621 13.1073 181.568 12.916Z" fill="#CAD2EA"/>
<path d="M149.849 22.1938C150.933 24.521 151.475 27.0395 151.475 29.6217V49.2594H148.128V22.2257L149.849 22.1938Z" fill="#50526D"/>
<path d="M178.99 63.4768C179.021 63.0623 179.053 62.6798 179.053 62.2654C179.053 54.8056 172.996 48.7485 165.537 48.7485C158.077 48.7485 152.02 54.8056 152.02 62.2654C152.02 62.6798 152.052 63.0942 152.083 63.4768H178.99Z" fill="#1F1949"/>
<path d="M162.861 74.141C156.533 72.6714 152.594 66.3498 154.064 60.0213C155.533 53.6928 161.855 49.7538 168.183 51.2234C174.512 52.693 178.451 59.0146 176.981 65.3431C175.512 71.6716 169.19 75.6106 162.861 74.141Z" fill="#2C2C2C"/>
<path d="M164.413 67.3898C161.808 66.7788 160.191 64.1713 160.802 61.5657C161.413 58.9602 164.02 57.3433 166.626 57.9543C169.232 58.5653 170.848 61.1727 170.237 63.7783C169.626 66.3838 167.019 68.0007 164.413 67.3898Z" fill="#CAD2EA"/>
<path d="M166.205 59.234C166.205 59.5846 165.918 59.9034 165.535 59.9034C165.184 59.9034 164.866 59.6165 164.866 59.234C164.866 58.8833 165.153 58.5645 165.535 58.5645C165.918 58.5645 166.205 58.8833 166.205 59.234Z" fill="#2C2C2C"/>
<path d="M165.535 66.7886C165.165 66.7886 164.866 66.4889 164.866 66.1192C164.866 65.7494 165.165 65.4497 165.535 65.4497C165.905 65.4497 166.205 65.7494 166.205 66.1192C166.205 66.4889 165.905 66.7886 165.535 66.7886Z" fill="#2C2C2C"/>
<path d="M167.988 60.9258C167.618 60.9258 167.318 60.6261 167.318 60.2564C167.318 59.8866 167.618 59.5869 167.988 59.5869C168.358 59.5869 168.657 59.8866 168.657 60.2564C168.657 60.6261 168.358 60.9258 167.988 60.9258Z" fill="#2C2C2C"/>
<path d="M163.111 65.7691C162.741 65.7691 162.441 65.4694 162.441 65.0996C162.441 64.7299 162.741 64.4302 163.111 64.4302C163.481 64.4302 163.78 64.7299 163.78 65.0996C163.78 65.4694 163.481 65.7691 163.111 65.7691Z" fill="#2C2C2C"/>
<path d="M168.979 63.3428C168.609 63.3428 168.309 63.0431 168.309 62.6734C168.309 62.3036 168.609 62.0039 168.979 62.0039C169.348 62.0039 169.648 62.3036 169.648 62.6734C169.648 63.0431 169.348 63.3428 168.979 63.3428Z" fill="#2C2C2C"/>
<path d="M162.093 63.3428C161.743 63.3428 161.424 63.0559 161.424 62.6734C161.424 62.3227 161.711 62.0039 162.093 62.0039C162.444 62.0039 162.763 62.2908 162.763 62.6734C162.763 63.024 162.476 63.3428 162.093 63.3428Z" fill="#2C2C2C"/>
<path d="M167.988 65.7691C167.618 65.7691 167.318 65.4694 167.318 65.0996C167.318 64.7299 167.618 64.4302 167.988 64.4302C168.358 64.4302 168.657 64.7299 168.657 65.0996C168.657 65.4694 168.358 65.7691 167.988 65.7691Z" fill="#2C2C2C"/>
<path d="M163.111 60.9258C162.741 60.9258 162.441 60.6261 162.441 60.2564C162.441 59.8866 162.741 59.5869 163.111 59.5869C163.481 59.5869 163.78 59.8866 163.78 60.2564C163.78 60.6261 163.481 60.9258 163.111 60.9258Z" fill="#2C2C2C"/>
<path d="M163.782 62.6803C163.782 63.6685 164.579 64.4655 165.567 64.4655C166.555 64.4655 167.352 63.6685 167.352 62.6803C167.352 61.692 166.555 60.895 165.567 60.895C164.579 60.895 163.782 61.692 163.782 62.6803Z" fill="#2C2C2C"/>
<path d="M193.206 51.396H194.864C195.087 51.396 195.246 51.2366 195.246 51.0134V45.052C195.246 44.8289 195.087 44.6694 194.864 44.6694H193.206C192.441 44.6694 191.835 45.2752 191.835 46.0403V49.9933C191.835 50.7903 192.441 51.396 193.206 51.396Z" fill="white"/>
<path d="M156.348 14.35C156.348 13.4255 157.145 12.7241 158.038 12.8198L175.317 14.7006C176.592 14.86 177.708 15.5614 178.409 16.6453L186.602 29.4927C187.016 30.2259 186.411 30.9272 185.518 30.9272H173.149C172.543 30.9272 171.937 30.7678 171.396 30.4172L157.592 21.7141C156.795 21.204 156.285 20.3114 156.285 19.355V14.35H156.348Z" fill="#343766"/>
<path d="M170.215 30.0347H186.155V31.8518H170.215V30.0347Z" fill="#343766"/>
<path d="M178.953 51.5192H189.091C189.888 51.5192 190.557 50.8497 190.557 50.0528V32.0409C190.557 31.3396 190.334 30.6382 189.952 30.0325L180.005 15.2405C179.081 13.8697 177.582 12.9452 175.925 12.754L155.777 10.5224C155.235 10.4586 154.693 10.6499 154.279 11.0006C153.864 11.3513 153.641 11.8932 153.641 12.4352V44.6652C153.641 45.6853 154.47 46.5142 155.49 46.5142H164.129C168.21 46.5142 172.163 47.6937 175.574 49.8934L177.327 51.041C177.805 51.3598 178.379 51.5192 178.953 51.5192ZM155.554 10.7774C155.617 10.7774 155.681 10.7774 155.745 10.7774L175.893 13.009C177.487 13.1684 178.889 14.0291 179.782 15.3681L189.728 30.1601C190.111 30.702 190.302 31.3715 190.302 32.0091V50.0209C190.302 50.6904 189.76 51.2323 189.091 51.2323H178.953C178.443 51.2323 177.933 51.0729 177.487 50.786L175.733 49.6383C172.258 47.4068 168.274 46.2272 164.129 46.2272H155.49C154.597 46.2272 153.896 45.5259 153.896 44.6333V12.4033C153.896 11.9251 154.087 11.4788 154.438 11.16C154.757 10.9368 155.139 10.7774 155.554 10.7774Z" fill="#343766"/>
<path d="M159.955 34.2112H163.367C163.845 34.2112 164.259 33.9561 164.259 33.6054V32.8403H157.437L157.915 33.3823C158.298 33.8923 159.095 34.2112 159.955 34.2112Z" fill="#CAD2EA"/>
<path d="M157.788 33.1285H163.908C164.1 33.1285 164.259 32.9691 164.259 32.7778V31.8214C164.259 31.6301 164.1 31.4707 163.908 31.4707H157.788C157.596 31.4707 157.437 31.6301 157.437 31.8214V32.7778C157.405 32.9691 157.564 33.1285 157.788 33.1285Z" fill="#343766"/>
<path d="M183.546 46.9303H186.798C187.372 46.9303 187.818 46.484 187.818 45.9102V45.7189C187.818 45.1451 187.372 44.6987 186.798 44.6987H183.546C182.972 44.6987 182.526 45.1451 182.526 45.7189V45.9102C182.526 46.484 182.972 46.9303 183.546 46.9303Z" fill="white"/>
</svg>
