<svg width="33" height="33" viewBox="0 0 33 33" fill="none" xmlns="http://www.w3.org/2000/svg">
<path d="M16.5 27.8437C16.5 27.8437 3.60938 20.625 3.60938 11.8594C3.60938 10.3098 4.14626 8.80804 5.12869 7.60967C6.11112 6.4113 7.4784 5.59032 8.99791 5.28642C10.5174 4.98252 12.0953 5.21446 13.4631 5.94279C14.8308 6.67113 15.904 7.85085 16.5 9.28125V9.28125C17.096 7.85085 18.1692 6.67113 19.5369 5.94279C20.9047 5.21446 22.4826 4.98252 24.0021 5.28642C25.5216 5.59032 26.8889 6.4113 27.8713 7.60967C28.8537 8.80804 29.3906 10.3098 29.3906 11.8594C29.3906 20.625 16.5 27.8437 16.5 27.8437Z" stroke="#9A9895" stroke-width="2.5" stroke-linecap="round" stroke-linejoin="round"/>
</svg>
