<svg width="1627" height="423" viewBox="0 0 1627 423" fill="none" xmlns="http://www.w3.org/2000/svg">
<mask id="mask0_1_2053" style="mask-type:alpha" maskUnits="userSpaceOnUse" x="0" y="0" width="1627" height="423">
<rect width="1627" height="423" rx="11" fill="url(#paint0_linear_1_2053)"/>
</mask>
<g mask="url(#mask0_1_2053)">
<path fill-rule="evenodd" clip-rule="evenodd" d="M137.595 71.9578C139.143 65.7615 139.965 59.2776 139.965 52.6018C139.965 8.63893 104.326 -27 60.3628 -27C16.4 -27 -19.2389 8.63893 -19.2389 52.6018C-19.2389 79.0077 -6.38147 102.411 13.4145 116.891C-35.2348 151.28 -67 207.968 -67 272.075C-67 376.958 18.0243 461.982 122.907 461.982C173.926 461.982 220.245 441.864 254.366 409.128C268.907 424.848 289.711 434.69 312.814 434.69C356.777 434.69 392.416 399.051 392.416 355.089C392.416 349.984 391.935 344.992 391.017 340.154C423.448 330.092 447 299.854 447 264.115C447 221.447 413.43 186.62 371.261 184.605C380.293 171.694 385.593 155.979 385.593 139.027C385.593 95.0637 349.954 59.4248 305.991 59.4248C274.772 59.4248 247.75 77.3969 234.708 103.559C220.625 81.1459 195.681 66.2478 167.257 66.2478C156.772 66.2478 146.762 68.2746 137.595 71.9578Z" fill="white"/>
<path d="M255.635 208.204C253.737 208.067 251.831 208.347 250.053 209.025C248.275 209.702 246.667 210.761 245.343 212.127C244.019 213.492 243.011 215.13 242.389 216.927C241.768 218.723 241.549 220.634 241.747 222.524L199.852 242.133L220.358 254.668L256.998 234.125C260.157 233.582 263.006 231.902 265.006 229.401C267.006 226.901 268.018 223.755 267.85 220.56C267.682 217.365 266.346 214.342 264.094 212.064C261.843 209.787 258.833 208.413 255.635 208.203L255.635 208.204Z" fill="#FFB6B6"/>
<path d="M165.764 296.487L173.107 312.272L186.346 453.436L176.055 574.769H151.985L123.583 383.519L110.242 570.362L77.7648 569.053L71.5298 315.736L165.764 296.487Z" fill="#2F2E41"/>
<path d="M148.487 173.914L161.998 170.157C161.998 170.157 172.217 163.523 175.579 183.244C178.941 202.964 196.242 233.637 196.242 233.637L225.858 217.879L239.57 247.775L192.799 276.062L143.545 226.513L148.487 173.914Z" fill="#FFD802"/>
<path d="M48.7467 166.219L79.193 153.852L122.167 156.259L160.371 170.159L173.118 312.272C139.881 330.392 106.213 335.338 71.9593 322.381L40.1688 229.819L48.7467 166.219Z" fill="url(#paint1_linear_1_2053)"/>
<path d="M103.904 329.425C87.5283 325.786 56.1425 261.195 42.4965 229.354C44.3159 237.542 62.9655 294.931 72.0628 322.602C75.7018 326.241 94.8062 328.667 103.904 329.425Z" fill="url(#paint2_linear_1_2053)"/>
<path d="M74.364 127.523C67.4637 111.89 74.563 93.6331 90.221 86.7441C105.879 79.855 124.165 86.9426 131.066 102.575L131.243 102.984C138.031 118.668 130.799 136.877 115.089 143.654C99.3794 150.431 81.1411 143.211 74.3531 127.527L74.364 127.523Z" fill="#FFB6B6"/>
<path d="M116.437 99.213C122.879 100.38 132.849 104.429 138.381 99.6788C135.649 96.4912 132.212 93.9812 128.341 92.3469C127.579 92.0944 126.873 91.6961 126.263 91.1742C124.377 89.271 125.834 85.9911 124.971 83.4185C124.552 82.4781 123.92 81.6479 123.124 80.9931C122.329 80.3383 121.392 79.8769 120.388 79.6452C118.467 79.0709 116.455 78.9785 114.569 78.2829C110.105 76.6078 106.931 71.8141 102.355 70.5115C98.3682 69.3601 94.3565 71.1495 90.9156 73.2378C87.4748 75.3261 84.071 77.8036 80.0458 78.2001C77.0371 78.474 75.1336 83.4139 72.1136 83.5587C65.7854 83.866 66.1369 79.7018 65.6684 86.3392C65.3982 90.3002 59.7297 98.1795 59.8217 102.175C59.9154 104.793 59.4515 107.385 59.5268 110.011C59.697 115.013 61.7062 119.776 65.1708 123.393C68.0518 126.351 71.7992 128.346 74.2245 131.717C75.4856 133.507 76.3605 135.597 77.8288 137.216C79.297 138.836 81.7837 139.811 83.4222 138.654C85.0608 137.498 85.0914 134.996 85.9043 133.091C86.403 131.924 87.2549 130.942 88.3408 130.282C89.4266 129.622 90.692 129.317 91.9597 129.411C93.2764 129.583 94.5189 130.118 95.5475 130.957C96.5762 131.795 97.3501 132.903 97.7822 134.157C97.0153 129.949 94.9922 126.006 94.2233 121.795C93.4545 117.583 94.4564 112.552 98.0887 110.908C99.6481 110.184 101.755 109.989 102.382 108.32C102.765 107.314 102.414 106.125 102.562 105.038C103.36 99.7084 112.237 98.3898 116.437 99.213Z" fill="#2F2E41"/>
<path d="M75.6062 320.738C75.3285 318.858 74.6414 317.062 73.5931 315.475C72.5448 313.889 71.1609 312.552 69.5389 311.557C67.9168 310.563 66.0961 309.935 64.2049 309.719C62.3138 309.503 60.3982 309.704 58.593 310.307L30.3371 273.726L22.525 296.429L50.5553 327.687C51.7712 330.647 54.0324 333.059 56.9106 334.466C59.7888 335.873 63.084 336.177 66.1717 335.321C69.2595 334.464 71.9254 332.507 73.6642 329.819C75.403 327.132 76.0939 323.901 75.6062 320.738V320.738Z" fill="#FFB6B6"/>
<path d="M58.5042 173.118L48.7443 166.218C48.7443 166.218 26.416 164.941 23.1679 183.244L-17.7734 250.485L32.9888 320.402L57.5995 294.537L26.5458 258.307L52.6187 210.513L58.5042 173.118Z" fill="#FFD802"/>
<path d="M296.916 183.772H296.397V169.769C296.397 165.292 292.713 161.664 288.168 161.664H258.045C253.501 161.664 249.816 165.292 249.816 169.769V246.595C249.816 251.071 253.501 254.7 258.045 254.7H288.168C292.713 254.7 296.397 251.071 296.397 246.595V193.741H296.916L296.916 183.772Z" fill="#3F3D56"/>
<path d="M287.924 164.001H284.045C284.223 164.437 284.291 164.911 284.243 165.38C284.194 165.849 284.031 166.299 283.768 166.69C283.504 167.081 283.149 167.402 282.732 167.624C282.315 167.845 281.85 167.961 281.378 167.962H264.353C263.881 167.962 263.416 167.846 262.999 167.624C262.582 167.402 262.226 167.081 261.963 166.69C261.699 166.299 261.536 165.848 261.488 165.379C261.44 164.91 261.508 164.436 261.686 164H258.063C256.455 164 254.913 164.638 253.776 165.773C252.639 166.908 252.001 168.447 252.001 170.053V246.767C252.001 248.372 252.639 249.911 253.776 251.047C254.913 252.182 256.455 252.819 258.063 252.819H287.924C289.532 252.819 291.074 252.182 292.211 251.046C293.348 249.911 293.986 248.372 293.986 246.767V170.053C293.986 168.448 293.348 166.908 292.211 165.773C291.074 164.638 289.531 164.001 287.924 164.001Z" fill="white"/>
<path d="M297.506 156.719L295.614 154.452H287.822C286.375 154.452 284.987 153.878 283.963 152.857C282.94 151.835 282.365 150.449 282.365 149.004V124.119C282.365 122.674 282.94 121.288 283.963 120.267C284.987 119.245 286.375 118.671 287.822 118.671H335.755C337.203 118.671 338.591 119.245 339.614 120.267C340.638 121.288 341.212 122.674 341.212 124.119V149.004C341.212 150.449 340.638 151.835 339.614 152.857C338.591 153.878 337.203 154.452 335.755 154.452H300.531L298.639 156.719C298.57 156.802 298.483 156.868 298.385 156.914C298.287 156.96 298.18 156.984 298.072 156.984C297.964 156.984 297.857 156.96 297.76 156.914C297.662 156.868 297.575 156.802 297.506 156.719V156.719Z" fill="#3F3D56"/>
<path d="M296.033 156.277L293.65 153.422H286.791C285.344 153.422 283.956 152.848 282.933 151.826C281.909 150.804 281.334 149.419 281.334 147.974V123.089C281.334 121.644 281.909 120.258 282.933 119.236C283.956 118.214 285.344 117.64 286.791 117.64H334.872C336.32 117.64 337.708 118.214 338.731 119.236C339.755 120.258 340.329 121.644 340.329 123.089V147.974C340.329 149.419 339.755 150.804 338.731 151.826C337.708 152.848 336.32 153.422 334.872 153.422H299.549L297.166 156.277C297.097 156.36 297.01 156.427 296.912 156.473C296.814 156.518 296.707 156.542 296.599 156.542C296.491 156.542 296.384 156.518 296.287 156.473C296.189 156.427 296.102 156.36 296.033 156.277Z" fill="#9563FF"/>
<path d="M288.657 143.887V141.876H290.489C290.872 141.876 291.159 141.956 291.351 142.116C291.543 142.269 291.639 142.52 291.639 142.867C291.639 143.227 291.543 143.487 291.351 143.647C291.159 143.807 290.872 143.887 290.489 143.887H288.657ZM286.985 140.655V147.8H288.657V145.008H290.329C290.748 145.008 291.049 145.095 291.234 145.268C291.419 145.442 291.539 145.715 291.596 146.089C291.639 146.376 291.671 146.676 291.692 146.99C291.713 147.303 291.77 147.574 291.862 147.8H293.534C293.456 147.7 293.396 147.58 293.353 147.44C293.318 147.293 293.289 147.14 293.268 146.98C293.254 146.82 293.243 146.663 293.236 146.509C293.229 146.356 293.222 146.223 293.215 146.109C293.201 145.929 293.172 145.749 293.13 145.569C293.094 145.389 293.034 145.225 292.949 145.078C292.863 144.925 292.753 144.795 292.618 144.688C292.484 144.575 292.313 144.491 292.107 144.438V144.418C292.533 144.258 292.839 144.024 293.023 143.717C293.215 143.41 293.311 143.047 293.311 142.626C293.311 142.353 293.257 142.099 293.151 141.866C293.052 141.626 292.902 141.415 292.704 141.235C292.512 141.055 292.278 140.915 292.001 140.815C291.731 140.708 291.426 140.655 291.085 140.655H286.985Z" fill="white"/>
<path d="M298.217 144.658H295.757C295.764 144.558 295.785 144.444 295.821 144.318C295.863 144.191 295.931 144.071 296.023 143.957C296.122 143.844 296.25 143.751 296.406 143.677C296.57 143.597 296.772 143.557 297.013 143.557C297.383 143.557 297.656 143.65 297.833 143.837C298.018 144.024 298.146 144.298 298.217 144.658ZM295.757 145.559H299.729C299.758 145.158 299.722 144.775 299.623 144.408C299.523 144.041 299.36 143.714 299.133 143.427C298.913 143.14 298.629 142.913 298.281 142.746C297.933 142.573 297.525 142.486 297.056 142.486C296.637 142.486 296.254 142.556 295.906 142.696C295.565 142.836 295.27 143.03 295.022 143.277C294.773 143.517 294.582 143.804 294.447 144.138C294.312 144.471 294.244 144.831 294.244 145.218C294.244 145.619 294.308 145.986 294.436 146.319C294.571 146.653 294.759 146.94 295.001 147.18C295.242 147.42 295.537 147.607 295.885 147.74C296.232 147.867 296.623 147.931 297.056 147.931C297.681 147.931 298.213 147.797 298.654 147.53C299.094 147.263 299.42 146.82 299.633 146.199H298.302C298.252 146.359 298.117 146.513 297.897 146.66C297.677 146.8 297.415 146.87 297.109 146.87C296.683 146.87 296.357 146.766 296.13 146.559C295.902 146.353 295.778 146.019 295.757 145.559Z" fill="white"/>
<path d="M304.375 144.448H305.855C305.834 144.114 305.749 143.827 305.6 143.587C305.45 143.34 305.255 143.137 305.014 142.977C304.779 142.81 304.51 142.686 304.204 142.606C303.906 142.526 303.594 142.486 303.267 142.486C302.82 142.486 302.422 142.556 302.074 142.696C301.727 142.836 301.432 143.033 301.191 143.287C300.949 143.534 300.765 143.831 300.637 144.178C300.516 144.518 300.456 144.888 300.456 145.288C300.456 145.675 300.523 146.032 300.658 146.359C300.793 146.68 300.981 146.956 301.222 147.19C301.464 147.424 301.755 147.607 302.096 147.74C302.444 147.867 302.823 147.931 303.235 147.931C303.967 147.931 304.567 147.75 305.035 147.39C305.504 147.03 305.788 146.506 305.887 145.819H304.428C304.378 146.139 304.254 146.396 304.055 146.59C303.864 146.776 303.587 146.87 303.225 146.87C302.99 146.87 302.792 146.82 302.628 146.72C302.465 146.62 302.334 146.493 302.234 146.339C302.142 146.179 302.074 146.002 302.032 145.809C301.989 145.615 301.968 145.425 301.968 145.238C301.968 145.045 301.989 144.851 302.032 144.658C302.074 144.458 302.145 144.278 302.245 144.118C302.351 143.951 302.486 143.817 302.65 143.717C302.813 143.61 303.015 143.557 303.257 143.557C303.903 143.557 304.275 143.854 304.375 144.448Z" fill="white"/>
<path d="M306.741 140.655V147.8H308.254V145.088C308.254 144.561 308.346 144.184 308.531 143.957C308.715 143.724 309.013 143.607 309.425 143.607C309.787 143.607 310.039 143.714 310.181 143.927C310.323 144.134 310.394 144.451 310.394 144.878V147.8H311.907V144.618C311.907 144.298 311.875 144.007 311.811 143.747C311.754 143.48 311.651 143.257 311.502 143.077C311.353 142.89 311.147 142.746 310.884 142.646C310.629 142.54 310.298 142.486 309.894 142.486C309.61 142.486 309.319 142.556 309.02 142.696C308.722 142.83 308.477 143.047 308.286 143.347H308.254V140.655H306.741Z" fill="white"/>
<path d="M312.99 144.218C313.012 143.884 313.1 143.607 313.257 143.387C313.413 143.167 313.612 142.99 313.853 142.857C314.094 142.723 314.364 142.63 314.662 142.576C314.968 142.516 315.273 142.486 315.578 142.486C315.855 142.486 316.136 142.506 316.42 142.546C316.704 142.58 316.963 142.65 317.197 142.756C317.431 142.863 317.623 143.013 317.772 143.207C317.921 143.394 317.996 143.644 317.996 143.957V146.65C317.996 146.883 318.01 147.107 318.038 147.32C318.067 147.534 318.117 147.694 318.188 147.8H316.654C316.626 147.72 316.601 147.64 316.579 147.56C316.565 147.474 316.555 147.387 316.547 147.3C316.306 147.534 316.022 147.697 315.695 147.79C315.369 147.884 315.035 147.931 314.694 147.931C314.432 147.931 314.187 147.901 313.96 147.841C313.732 147.78 313.534 147.687 313.363 147.56C313.193 147.434 313.058 147.273 312.958 147.08C312.866 146.886 312.82 146.656 312.82 146.389C312.82 146.096 312.873 145.856 312.98 145.669C313.093 145.475 313.235 145.322 313.406 145.208C313.583 145.095 313.782 145.012 314.002 144.958C314.229 144.898 314.457 144.851 314.684 144.818C314.911 144.785 315.135 144.758 315.355 144.738C315.575 144.718 315.77 144.688 315.94 144.648C316.111 144.608 316.246 144.551 316.345 144.478C316.445 144.398 316.491 144.284 316.484 144.138C316.484 143.984 316.455 143.864 316.398 143.777C316.349 143.684 316.278 143.614 316.185 143.567C316.1 143.514 315.997 143.48 315.877 143.467C315.763 143.447 315.639 143.437 315.504 143.437C315.206 143.437 314.971 143.497 314.801 143.617C314.631 143.737 314.531 143.937 314.503 144.218H312.99ZM316.484 145.268C316.42 145.322 316.338 145.365 316.239 145.399C316.146 145.425 316.043 145.449 315.93 145.469C315.823 145.489 315.71 145.505 315.589 145.519C315.468 145.532 315.348 145.549 315.227 145.569C315.113 145.589 315 145.615 314.886 145.649C314.78 145.682 314.684 145.729 314.599 145.789C314.52 145.842 314.457 145.912 314.407 145.999C314.357 146.086 314.332 146.196 314.332 146.329C314.332 146.456 314.357 146.563 314.407 146.65C314.457 146.736 314.524 146.806 314.609 146.86C314.694 146.906 314.794 146.94 314.907 146.96C315.021 146.98 315.138 146.99 315.259 146.99C315.557 146.99 315.788 146.943 315.951 146.85C316.114 146.756 316.235 146.646 316.313 146.519C316.391 146.386 316.437 146.253 316.452 146.119C316.473 145.986 316.484 145.879 316.484 145.799V145.268Z" fill="white"/>
<path d="M319.17 142.626V147.8H320.682V145.469C320.682 145.235 320.707 145.018 320.756 144.818C320.806 144.618 320.888 144.444 321.001 144.298C321.122 144.144 321.278 144.024 321.47 143.937C321.662 143.851 321.896 143.807 322.173 143.807C322.265 143.807 322.361 143.814 322.46 143.827C322.56 143.834 322.645 143.844 322.716 143.857V142.536C322.595 142.503 322.485 142.486 322.386 142.486C322.194 142.486 322.01 142.513 321.832 142.566C321.655 142.62 321.488 142.696 321.332 142.796C321.175 142.89 321.037 143.007 320.916 143.147C320.796 143.28 320.7 143.427 320.629 143.587H320.607V142.626H319.17Z" fill="white"/>
<path d="M325.574 146.58C325.34 146.58 325.144 146.533 324.988 146.439C324.832 146.346 324.704 146.226 324.605 146.079C324.513 145.932 324.445 145.769 324.402 145.589C324.367 145.402 324.349 145.215 324.349 145.028C324.349 144.835 324.371 144.651 324.413 144.478C324.463 144.298 324.537 144.141 324.637 144.007C324.743 143.867 324.871 143.757 325.02 143.677C325.176 143.597 325.361 143.557 325.574 143.557C325.822 143.557 326.028 143.6 326.192 143.687C326.355 143.774 326.486 143.891 326.586 144.037C326.685 144.184 326.756 144.354 326.799 144.548C326.841 144.735 326.863 144.935 326.863 145.148C326.863 145.335 326.834 145.515 326.777 145.689C326.728 145.856 326.65 146.006 326.543 146.139C326.437 146.273 326.302 146.379 326.138 146.459C325.975 146.539 325.787 146.58 325.574 146.58ZM328.3 147.47V142.626H326.863V143.317H326.841C326.657 143.017 326.426 142.803 326.149 142.676C325.879 142.55 325.563 142.486 325.201 142.486C324.818 142.486 324.477 142.556 324.179 142.696C323.888 142.836 323.643 143.027 323.444 143.267C323.245 143.5 323.093 143.774 322.986 144.087C322.887 144.394 322.837 144.715 322.837 145.048C322.837 145.402 322.88 145.739 322.965 146.059C323.057 146.373 323.199 146.65 323.391 146.89C323.582 147.123 323.827 147.31 324.126 147.45C324.424 147.584 324.779 147.65 325.191 147.65C325.524 147.65 325.84 147.587 326.138 147.46C326.444 147.327 326.678 147.123 326.841 146.85H326.863V147.53C326.87 147.897 326.774 148.201 326.575 148.441C326.383 148.681 326.074 148.801 325.649 148.801C325.379 148.801 325.141 148.748 324.935 148.641C324.729 148.541 324.591 148.358 324.52 148.091H323.018C323.039 148.384 323.124 148.635 323.274 148.841C323.43 149.055 323.621 149.228 323.849 149.362C324.083 149.495 324.339 149.592 324.615 149.652C324.899 149.719 325.176 149.752 325.446 149.752C326.078 149.752 326.582 149.672 326.958 149.512C327.335 149.352 327.622 149.155 327.821 148.921C328.02 148.695 328.148 148.448 328.204 148.181C328.268 147.914 328.3 147.677 328.3 147.47Z" fill="white"/>
<path d="M333.224 144.658H330.764C330.771 144.558 330.792 144.444 330.828 144.318C330.87 144.191 330.938 144.071 331.03 143.957C331.13 143.844 331.257 143.751 331.414 143.677C331.577 143.597 331.779 143.557 332.021 143.557C332.39 143.557 332.663 143.65 332.841 143.837C333.025 144.024 333.153 144.298 333.224 144.658ZM330.764 145.559H334.736C334.765 145.158 334.729 144.775 334.63 144.408C334.53 144.041 334.367 143.714 334.14 143.427C333.92 143.14 333.636 142.913 333.288 142.746C332.94 142.573 332.532 142.486 332.063 142.486C331.644 142.486 331.261 142.556 330.913 142.696C330.572 142.836 330.278 143.03 330.029 143.277C329.781 143.517 329.589 143.804 329.454 144.138C329.319 144.471 329.252 144.831 329.252 145.218C329.252 145.619 329.316 145.986 329.443 146.319C329.578 146.653 329.766 146.94 330.008 147.18C330.249 147.42 330.544 147.607 330.892 147.74C331.24 147.867 331.63 147.931 332.063 147.931C332.688 147.931 333.22 147.797 333.661 147.53C334.101 147.263 334.427 146.82 334.64 146.199H333.309C333.26 146.359 333.125 146.513 332.905 146.66C332.684 146.8 332.422 146.87 332.116 146.87C331.69 146.87 331.364 146.766 331.137 146.559C330.909 146.353 330.785 146.019 330.764 145.559Z" fill="white"/>
<path d="M311.931 137.37C315.963 137.37 319.232 134.139 319.232 130.155C319.232 126.17 315.963 122.939 311.931 122.939C307.899 122.939 304.63 126.17 304.63 130.155C304.63 134.139 307.899 137.37 311.931 137.37Z" fill="#2D4B21"/>
<path d="M311.345 136.782C315.377 136.782 318.645 133.519 318.645 129.493C318.645 125.468 315.377 122.204 311.345 122.204C307.313 122.204 304.044 125.468 304.044 129.493C304.044 133.519 307.313 136.782 311.345 136.782Z" fill="#7CCE5E"/>
<path d="M307.811 129.757L310.068 131.951L315.056 126.971" stroke="white" stroke-linecap="round" stroke-linejoin="round"/>
</g>
<defs>
<linearGradient id="paint0_linear_1_2053" x1="398" y1="130.5" x2="982.516" y2="850.955" gradientUnits="userSpaceOnUse">
<stop stop-color="#C17276"/>
<stop offset="1" stop-color="#343766"/>
</linearGradient>
<linearGradient id="paint1_linear_1_2053" x1="65.2425" y1="272.567" x2="183.508" y2="316.917" gradientUnits="userSpaceOnUse">
<stop stop-color="#FFD802"/>
<stop offset="1" stop-color="#F4CF01"/>
</linearGradient>
<linearGradient id="paint2_linear_1_2053" x1="117.55" y1="228.217" x2="-29.1451" y2="289.624" gradientUnits="userSpaceOnUse">
<stop stop-color="#E1BF01"/>
<stop offset="1" stop-color="#FFD802"/>
</linearGradient>
</defs>
</svg>
