<svg width="150" height="105" viewBox="0 0 150 105" fill="none" xmlns="http://www.w3.org/2000/svg">
<path d="M145.361 96.9565H15.7931V101.74H145.361V96.9565Z" fill="#F38844"/>
<path d="M134.554 0.300781H26.5715V4.88291H134.554V0.300781Z" fill="#82B440"/>
<path d="M26.0813 8.2229H15.7931V9.95201H26.0813V8.2229Z" fill="#71973E"/>
<path d="M26.0813 19.3491H15.7931V21.0782H26.0813V19.3491Z" fill="#71973E"/>
<path d="M138.877 9.17847H22.2485V92.5502H138.877V9.17847Z" fill="#F7F7FF"/>
<path d="M59.3097 48.8584H28.4452V95.0543H59.3097V48.8584Z" fill="#F38844"/>
<path d="M56.3403 51.7134H31.4124V95.0563H56.3403V51.7134Z" fill="#B0A8C6"/>
<path d="M132.477 48.8584H63.5435V85.6307H132.477V48.8584Z" fill="#F38844"/>
<path d="M56.3403 51.7134H31.4124V86.3531H56.3403V51.7134Z" fill="#E9E4F2"/>
<path d="M130.26 51.7134H65.7646V80.0131H130.26V51.7134Z" fill="#E9E4F2"/>
<path d="M101.385 71.5275C101.385 71.5275 101.155 72.2768 101.097 72.5361C101.01 72.7955 100.809 73.3142 100.693 73.2854C100.578 73.2566 100.809 72.2768 100.751 72.2191C100.693 72.1615 100.232 72.6802 100.175 72.7955C100.117 72.9396 100.29 73.9194 100.175 73.9482C100.059 73.9482 99.8289 73.4295 99.7424 72.8819C99.6848 72.3056 100.492 71.1528 100.492 71.1528L101.385 71.5275Z" fill="#CEC7DD"/>
<path d="M106.396 71.5871C106.339 69.1664 104.609 68.9647 104.609 68.9647C104.609 68.9647 102.852 68.7629 102.794 71.1548C102.736 72.9992 103.255 78.0425 103.486 80.2903C103.543 80.9243 104.004 81.443 104.523 81.5007C105.042 81.5583 105.503 81.1548 105.589 80.5497C105.849 78.3595 106.425 73.4603 106.396 71.5871Z" fill="#CEC7DD"/>
<path d="M110.519 71.5871C110.461 69.1664 108.732 68.9647 108.732 68.9647C108.732 68.9647 106.974 68.7629 106.917 71.1548C106.859 72.9992 107.378 78.0425 107.608 80.2903C107.666 80.9243 108.127 81.443 108.646 81.5007C109.165 81.5583 109.626 81.1548 109.712 80.5497C110 78.3595 110.577 73.4603 110.519 71.5871Z" fill="#CEC7DD"/>
<path d="M105.624 80.35C105.567 79.3413 104.587 79.3413 104.587 79.3413C104.587 79.3413 103.607 79.3413 103.549 80.35C103.492 81.3586 104.039 89.0531 104.039 89.0531H105.307C105.307 89.0531 105.653 81.3586 105.624 80.35Z" fill="#CEC7DD"/>
<path d="M104.096 89.0508C104.096 89.0508 101.877 90.0306 101.618 90.1747C101.359 90.29 101.243 90.5493 101.935 90.5493H104.759C105.076 90.5493 105.336 90.3476 105.336 90.0882V89.0796H104.096V89.0508Z" fill="#CEC7DD"/>
<path d="M109.571 79.6605C109.254 78.7095 108.303 78.9688 108.303 78.9688C108.303 78.9688 107.352 79.2282 107.583 80.2368C107.813 81.2167 110.465 88.4789 110.465 88.4789L111.675 88.1331C111.704 88.1331 109.917 80.6115 109.571 79.6605Z" fill="#CEC7DD"/>
<path d="M109.135 59.7163C109.135 59.7163 110.46 59.5146 110.547 61.3013C110.604 62.8863 110.777 65.1918 110.806 66.1428C110.806 66.4598 110.518 66.748 110.114 66.8057C109.711 66.8633 109.365 66.6616 109.279 66.3446C109.048 65.4224 108.558 63.1457 108.212 61.6183C107.838 59.8604 109.135 59.7163 109.135 59.7163Z" fill="#CEC7DD"/>
<path d="M108.819 59.514C108.761 59.4852 108.732 59.4852 108.675 59.4564C107.292 59.0529 105.822 59.0529 104.438 59.4564C104.381 59.4852 104.352 59.4852 104.294 59.514C104.121 59.5717 104.006 59.7446 103.977 59.9751C103.747 61.5601 103.977 66.6898 104.035 68.3901C104.064 68.7071 104.237 68.9377 104.467 68.9377H106.571H108.675C108.905 68.9377 109.107 68.7071 109.107 68.3901C109.194 66.6898 109.395 61.5313 109.165 59.9751C109.136 59.7446 108.992 59.5717 108.819 59.514Z" fill="#CEC7DD"/>
<path d="M110.319 70.2613C109.916 68.0134 109.109 67.2354 109.109 67.2354H104.008C104.008 67.2354 103.259 68.3305 102.826 70.5495C102.769 70.8665 102.913 71.2123 103.201 71.3852C103.748 71.731 104.844 72.2498 106.515 72.2498C108.186 72.2498 109.282 71.731 109.829 71.3852C110.117 71.2123 110.377 70.6071 110.319 70.2613Z" fill="#CEC7DD"/>
<path d="M107.548 57.1802H105.531V59.6297H107.548V57.1802Z" fill="#CEC7DD"/>
<path d="M107.52 58.0162C107.52 58.0162 106.944 58.7655 105.561 58.7655C105.561 57.8433 105.561 57.6992 105.561 57.6992L107.52 58.0162Z" fill="#CEC7DD"/>
<path d="M104.181 59.7163C104.181 59.7163 102.855 59.5146 102.769 61.3013C102.711 62.8863 102.538 65.1918 102.509 66.1428C102.509 66.4598 102.797 66.748 103.201 66.8057C103.604 66.8633 103.95 66.6616 104.037 66.3446C104.267 65.4224 104.757 63.1457 105.103 61.6183C105.506 59.8604 104.181 59.7163 104.181 59.7163Z" fill="#CEC7DD"/>
<path d="M103.459 65.3353C103.459 65.3353 102.623 64.9607 102.047 66.661C101.528 68.1596 100.75 70.3498 100.433 71.2431C100.318 71.5313 100.433 71.8483 100.692 71.9636C100.952 72.0789 101.24 71.9348 101.384 71.6466C101.816 70.782 102.825 68.7071 103.517 67.295C104.295 65.6523 103.459 65.3353 103.459 65.3353Z" fill="#CEC7DD"/>
<path d="M110.32 79.834C110.32 79.2576 112.424 69.8052 109.167 66.9521H103.98C103.98 66.9521 102.539 68.9118 102.539 73.4363C102.539 77.9896 102.799 88.6812 102.799 88.6812H105.94L106.718 72.2259C106.718 72.2259 106.977 78.0184 107.237 80.0645C107.496 82.1106 109.484 88.4219 109.484 88.4219L112.251 87.6726C112.251 87.7302 110.32 80.4103 110.32 79.834Z" fill="#CEC7DD"/>
<path d="M105.535 58.9966C105.535 58.9966 103.46 59.1695 102.768 60.1493C102.22 60.9274 102.278 65.0196 102.105 65.6536C101.903 66.2876 99.598 70.6104 100.405 71.2444C101.212 71.8784 101.644 72.0801 101.846 71.8784C102.048 71.6767 102.624 70.2646 102.624 70.2646C102.624 70.2646 106.399 70.7545 108.733 70.7545C111.068 70.7545 111.471 69.5153 111.269 68.6508C111.068 67.7862 111.039 63.8957 110.78 61.9361C110.52 59.9764 110.549 59.717 107.552 58.9966C106.399 59.3712 105.535 58.9966 105.535 58.9966Z" fill="#CEC7DD"/>
<path d="M110.808 66.3688C110.808 66.3688 110.548 67.2622 108.877 66.5705C107.407 65.9653 105.246 65.1296 104.353 64.7838C104.064 64.6685 103.891 64.3803 103.978 64.0921C104.064 63.8328 104.381 63.6887 104.67 63.7751C105.592 64.0057 107.84 64.6397 109.367 65.0431C111.125 65.5331 110.808 66.3688 110.808 66.3688Z" fill="#CEC7DD"/>
<path d="M104.728 65.48C104.411 65.3071 104.239 64.9325 104.325 64.5867C104.411 64.1832 104.584 63.7221 104.786 63.4916C105.19 63.0881 108.734 64.4426 108.734 64.4426C108.734 64.4426 108.59 60.9555 109.455 59.6011C110.723 59.9757 110.752 60.5809 111.097 63.578C111.414 66.6039 110.838 67.4685 109.455 67.4685C108.417 67.4973 105.824 66.114 104.728 65.48Z" fill="#CEC7DD"/>
<path d="M104.036 88.9365C104.036 88.9365 102.307 89.4553 101.615 89.6858C100.924 89.9164 101.269 90.5504 101.269 90.5504H105.333V89.0518C105.304 89.0518 104.728 89.34 104.036 88.9365Z" fill="#CEC7DD"/>
<path d="M110.519 88.3561C110.519 88.3561 108.646 89.9123 108.444 90.0852C108.214 90.2869 108.185 90.5463 108.848 90.3734L111.586 89.6241C111.903 89.5376 112.076 89.2783 112.018 89.0189L111.759 88.0391L110.519 88.3561Z" fill="#CEC7DD"/>
<path d="M110.435 88.2491C110.435 88.2491 108.908 89.2289 108.302 89.6324C107.697 90.0358 108.187 90.5546 108.187 90.5546L112.078 89.4595L111.674 88.0186C111.703 88.0186 111.242 88.4508 110.435 88.2491Z" fill="#CEC7DD"/>
<path d="M102.685 64.4998C102.685 64.3845 103.463 64.4133 103.463 64.4133C103.463 64.4133 102.425 64.1828 102.425 64.0675C102.425 63.9522 103.492 64.154 103.492 64.154C103.492 64.154 102.396 63.7505 102.425 63.6352C102.454 63.52 103.52 63.8658 103.52 63.8658C103.52 63.8658 102.512 63.3759 102.598 63.2894C102.685 63.2029 104.01 63.6929 104.01 63.6929C104.01 63.6929 103.347 63.2318 103.347 63.1165C103.347 63.0589 103.549 63.1453 103.837 63.2606C104.356 63.4911 104.76 63.837 104.76 63.837L104.587 64.7015C104.587 64.7303 102.685 64.6151 102.685 64.4998Z" fill="#CEC7DD"/>
<path d="M105.651 58.5055H106.17C107.438 58.5055 108.476 57.4681 108.476 56.2001V55.1338C108.476 54.3269 107.813 53.6929 107.035 53.6929H106.43C105.623 53.6929 104.989 54.3557 104.989 55.1338V57.8139C104.989 58.1885 105.277 58.5055 105.651 58.5055Z" fill="#CEC7DD"/>
<path d="M104.991 56.0854C104.991 56.0854 104.069 57.2382 104.991 57.2382Z" fill="#CEC7DD"/>
<path d="M107.006 56.3692C107.006 56.3692 106.401 55.7064 106.545 54.3519C105.363 54.3519 105.075 54.6401 105.075 54.6401C105.075 54.6401 104.355 54.0349 105.277 53.2568C106.199 52.5075 108.533 52.6804 108.879 54.2078C109.225 55.7352 109.023 57.2914 107.554 58.0406C107.669 56.9455 107.006 56.3692 107.006 56.3692Z" fill="#CEC7DD"/>
<path d="M106.481 56.4248H104.781C104.781 56.4248 104.521 56.713 104.521 57.1164C104.521 57.5199 105.04 58.3556 105.559 58.5285C106.077 58.6726 106.827 58.4133 106.827 58.4133L106.481 56.4248Z" fill="#CEC7DD"/>
<path d="M106.778 56.3431C106.634 56.6889 106.75 57.0635 107.038 57.1788C107.326 57.2941 107.643 57.0924 107.787 56.7177C107.931 56.3431 107.816 55.9972 107.528 55.882C107.24 55.7667 106.894 55.9684 106.778 56.3431Z" fill="#CEC7DD"/>
<path d="M131.551 68.2754H65.1538V92.7711H131.551V68.2754Z" fill="#F2F0F7"/>
<path d="M131.551 86.3735H65.1538V92.8H131.551V86.3735Z" fill="#B0A8C6"/>
<path d="M80.3126 70.6641C80.3126 70.6641 80.5432 71.3269 80.5144 71.5862C80.5144 71.8456 80.3991 72.3643 80.2838 72.3643C80.1686 72.3643 80.1686 71.3845 80.1109 71.3557C80.0533 71.3269 79.6786 71.8744 79.6786 72.0185C79.6786 72.1626 80.0245 73.056 79.938 73.0848C79.8515 73.1136 79.4769 72.6813 79.2752 72.1626C79.0735 71.6439 79.5345 70.837 79.5345 70.837L80.3126 70.6641Z" fill="#CEC7DD"/>
<path d="M92.5009 68.5644C92.5009 68.5644 93.1925 68.795 93.4519 68.7661C93.7401 68.7661 94.2588 68.6797 94.2588 68.5644C94.2588 68.4491 93.2501 68.4491 93.1925 68.3627C93.1349 68.305 93.7401 67.9592 93.8841 67.9592C94.0282 67.9592 94.9504 68.305 94.9792 68.2186C95.0081 68.1321 94.5758 67.7575 94.0282 67.5846C93.4807 67.4117 92.6449 67.8151 92.6449 67.8151L92.5009 68.5644Z" fill="#CEC7DD"/>
<path d="M79.1621 64.3818C79.1621 64.3818 78.24 64.4683 78.5858 66.1686C78.874 67.6672 79.2486 69.8573 79.4215 70.7507C79.4791 71.0389 79.7385 71.2695 79.9979 71.2406C80.2861 71.2118 80.459 70.9525 80.459 70.6354C80.4013 69.7133 80.2572 67.4942 80.1708 65.9669C80.0555 64.2378 79.1621 64.3818 79.1621 64.3818Z" fill="#CEC7DD"/>
<path d="M86.017 59.2255C85.9594 59.1966 85.9306 59.1966 85.8729 59.1966C84.4896 58.7932 83.0199 58.7932 81.6366 59.1966C81.579 59.1966 81.5502 59.2255 81.4925 59.2255C81.3196 59.2831 81.2043 59.456 81.1755 59.6577C80.945 61.1851 81.1755 66.1131 81.2332 67.7557C81.262 68.0439 81.4349 68.2744 81.6654 68.2744H83.7692H85.8729C86.1035 68.2744 86.3052 68.0439 86.3052 67.7557C86.3917 66.1131 86.5934 61.1851 86.3628 59.6577C86.3052 59.4272 86.1899 59.2543 86.017 59.2255Z" fill="#CEC7DD"/>
<path d="M80.1717 79.516V79.487C80.1427 79.3999 80.1717 79.516 80.1717 79.516Z" fill="#CEC7DD"/>
<path d="M87.4908 70.5272C87.4908 69.9797 87.4331 69.4609 87.3467 68.9134C86.9432 66.752 86.2804 66.6367 86.2804 66.6367H81.0931C81.0931 66.6367 80.5743 66.8961 80.1709 69.0575L80.1132 69.4609C80.0268 70.1526 79.9691 70.8154 79.9691 71.507C79.9403 73.7837 79.9403 77.7318 80.1709 79.5185C80.1997 81.19 80.7472 87.5877 80.7472 87.5877H82.8798C82.8798 87.5877 83.2833 80.1814 83.2256 79.2304C83.3697 78.2505 83.5714 76.7808 83.7444 75.3399C83.9173 76.8096 84.119 78.2505 84.2631 79.2304C84.2054 80.2102 84.6089 87.5877 84.6089 87.5877H86.7415C86.7415 87.5877 87.2602 81.19 87.3178 79.5185C87.5484 77.6742 87.5196 72.9191 87.4908 70.5272Z" fill="#CEC7DD"/>
<path d="M85.1297 56.9487H83.1124V59.3118H85.1297V56.9487Z" fill="#CEC7DD"/>
<path d="M81.928 56.0817C81.928 56.3987 82.1297 56.6293 82.3891 56.6293C82.6484 56.6293 82.8502 56.3699 82.8502 56.0817C82.8502 55.7647 82.6484 55.5342 82.3891 55.5342C82.1297 55.5342 81.928 55.7647 81.928 56.0817Z" fill="#CEC7DD"/>
<path d="M85.4436 56.0817C85.4436 56.3987 85.6453 56.6293 85.9047 56.6293C86.1641 56.6293 86.3658 56.3699 86.3658 56.0817C86.3658 55.7647 86.1641 55.5342 85.9047 55.5342C85.6453 55.5342 85.4436 55.7647 85.4436 56.0817Z" fill="#CEC7DD"/>
<path d="M84.091 58.1275H84.1487C85.0997 58.1275 85.8778 57.3495 85.8778 56.3984V54.9287C85.8778 54.1506 85.2438 53.5166 84.4657 53.5166H83.8029C83.0248 53.5166 82.3907 54.1506 82.3907 54.9287V56.3984C82.3907 57.3495 83.1689 58.1275 84.091 58.1275Z" fill="#CEC7DD"/>
<path d="M81.6387 59.4883C81.6387 59.4883 80.3995 58.9984 79.9096 60.641C79.4773 62.082 78.7857 64.2145 78.5263 65.1079C78.4399 65.3961 78.6704 65.7419 79.0451 65.886C79.4197 66.0301 79.8232 65.9148 79.9672 65.6555C80.3995 64.8485 81.4082 62.8313 82.0998 61.4768C82.8779 59.9206 81.6387 59.4883 81.6387 59.4883Z" fill="#CEC7DD"/>
<path d="M86.371 59.0552C86.371 59.0552 85.0741 59.3722 85.7081 60.9861C86.2557 62.3982 87.005 64.5019 87.3508 65.3665C87.4661 65.6547 87.8407 65.7988 88.2442 65.7123C88.6188 65.6258 88.8782 65.3088 88.8494 64.9918C88.7053 64.0985 88.273 61.8794 87.9848 60.4097C87.639 58.6806 86.371 59.0552 86.371 59.0552Z" fill="#CEC7DD"/>
<path d="M87.4341 64.5267C87.4341 64.5267 86.7136 65.1318 88.241 66.054C89.5666 66.861 91.6127 67.9849 92.4196 68.446C92.679 68.6189 93.0248 68.5612 93.1977 68.3595C93.3707 68.1578 93.2842 67.8408 93.0536 67.639C92.3044 67.0627 90.4888 65.6506 89.2784 64.6996C87.8375 63.6333 87.4341 64.5267 87.4341 64.5267Z" fill="#CEC7DD"/>
<path d="M83.1081 58.7623C83.1081 58.7623 80.9179 59.2234 80.0822 59.5692C79.2465 59.9439 78.4684 63.9208 78.4684 63.9208L80.428 64.7566L79.6211 70.0015C79.5347 70.6355 79.9958 71.2407 80.6586 71.3272C82.0419 71.5001 84.4914 71.7018 86.9986 71.2695C87.6038 71.1542 88.0361 70.6355 87.9785 70.0303C87.6615 65.3041 86.9986 61.356 86.9986 61.356L87.258 64.6989L89.16 64.0073L88.3819 59.5116C88.1802 59.0793 87.7767 58.7911 87.2868 58.7047L85.1254 58.4165C85.1543 58.4741 84.2609 59.2522 83.1081 58.7623Z" fill="#CEC7DD"/>
<path d="M81.4369 87.5806C81.4369 87.5806 78.7856 87.5806 78.7856 89.0215C81.4369 89.0215 82.9643 89.0215 82.9643 89.0215L82.9067 87.5806" fill="#CEC7DD"/>
<path d="M86.0492 87.5806C86.0492 87.5806 88.7005 87.5806 88.7005 89.0215C86.0492 89.0215 84.5219 89.0215 84.5219 89.0215L84.5795 87.5806" fill="#CEC7DD"/>
<path d="M84.0621 58.3295C84.0621 58.3295 85.3301 58.3872 85.9065 57.1192C86.4829 55.8512 86.7422 54.612 85.7048 53.6033C84.6673 52.5947 83.1975 52.9405 82.6788 53.4592C82.1601 53.978 81.6702 54.6696 81.9295 55.9953C82.1601 57.3209 83.0823 58.3295 84.0621 58.3295Z" fill="#CEC7DD"/>
<path d="M74.9027 57.9048H59.2831V86.2909H74.9027V57.9048Z" fill="#CEC7DD"/>
<path d="M131.531 60.6436H115.911V86.292H131.531V60.6436Z" fill="#CEC7DD"/>
<path d="M140.203 92.0576H20.9235V96.9567H140.203V92.0576Z" fill="#F38844"/>
<path d="M57.4352 92.0576H30.2882V96.9567H57.4352V92.0576Z" fill="#9C95B5"/>
<path d="M59.3097 96.9565H28.4452V101.74H59.3097V96.9565Z" fill="#8A83A5"/>
<path d="M13.7453 102.637H12.5637V104.625H13.7453V102.637Z" fill="#82B440"/>
<path d="M24.2922 102.637H23.1106V104.625H24.2922V102.637Z" fill="#82B440"/>
<path d="M24.868 84.3945H11.9574V103.415H24.868V84.3945Z" fill="#82B440"/>
<path d="M24.2051 85.0859H12.6489V102.752H24.2051V85.0859Z" fill="#71973E"/>
<path d="M51.5853 56.8438H31.4124V86.3538H51.5853V56.8438Z" fill="#CEC7DD"/>
<path d="M34.526 66.6691L41.5001 64.5366V57.5625L34.526 59.6662V66.6691Z" fill="white"/>
<path d="M43.0245 50.1848V87.0723L33.0245 90.1271V53.2395L43.7161 50.1848M44.6383 48.1963L31.4106 51.741V92.0867L44.6383 88.5421V48.1963Z" fill="#71973E"/>
<path d="M31.7274 72.0304C31.7274 72.4915 31.9291 72.8085 32.1597 72.7221L43.86 69.2062C44.0905 69.1197 44.2923 68.7163 44.2923 68.2552C44.2923 67.7941 44.0905 67.4771 43.86 67.5635L32.1597 71.0794C31.9291 71.1659 31.7274 71.5981 31.7274 72.0304Z" fill="#71973E"/>
<path d="M11.1542 40.5591V49.0317C16.0821 51.1354 21.6441 51.1354 26.572 49.0317V40.5591H11.1542Z" fill="#82B440"/>
<path d="M57.4359 40.5591V49.0317L57.263 49.1182C52.4503 51.1643 47.0037 51.1643 42.191 49.1182L42.0181 49.0317V40.5591" fill="#82B440"/>
<path d="M88.2998 40.5591V49.0317C83.3719 51.1354 77.8099 51.1354 72.882 49.0317V40.5591" fill="#82B440"/>
<path d="M119.136 40.5591V49.0317C114.209 51.1354 108.647 51.1354 103.719 49.0317V40.5591" fill="#82B440"/>
<path d="M150 40.5591V49.0317C145.072 51.1354 139.51 51.1354 134.583 49.0317V40.5591" fill="#82B440"/>
<path d="M42.0176 40.5591V49.0317C37.0896 51.1354 31.5277 51.1354 26.5997 49.0317V40.5591" fill="#E9E4F2"/>
<path d="M72.8543 40.5591V49.0317C68.1857 51.1354 62.8831 51.2219 58.1569 49.3199L57.4364 49.0317V40.5591" fill="#E9E4F2"/>
<path d="M103.718 40.5591V49.0317C98.7902 51.1354 93.2282 51.1354 88.3003 49.0317V40.5591" fill="#E9E4F2"/>
<path d="M134.555 40.5591V49.0317C129.627 51.1354 124.065 51.1354 119.137 49.0317V40.5591" fill="#E9E4F2"/>
<path d="M11.1542 40.5596L22.2493 24.623H35.2176L26.572 40.5596" fill="#82B440"/>
<path d="M134.553 40.5596L125.937 24.623H138.876L150 40.5596" fill="#82B440"/>
<path d="M26.5725 40.5596L35.218 24.623H48.1863L42.0192 40.5596" fill="#F2F0F7"/>
<path d="M42.0181 40.5596L48.1852 24.623H61.1247L57.4359 40.5596" fill="#82B440"/>
<path d="M57.4364 40.5596L61.1252 24.623H74.0935L72.8543 40.5596" fill="#F2F0F7"/>
<path d="M72.8547 40.5596L74.0939 24.623H87.0622L88.3014 40.5596" fill="#82B440"/>
<path d="M88.2995 40.5596L87.0603 24.623H99.9998L103.717 40.5596" fill="#F2F0F7"/>
<path d="M103.72 40.5596L100.002 24.623H112.97L119.137 40.5596" fill="#82B440"/>
<path d="M119.138 40.5596L112.971 24.623H125.939L134.556 40.5596" fill="#F2F0F7"/>
<path d="M138.877 20.3281H22.2485V24.6221H138.877V20.3281Z" fill="#F38844"/>
<path d="M3.22766 23.8749H15.2161C17.0029 23.8749 18.4438 22.434 18.4438 20.6473V8.65882C18.4438 6.87207 17.0029 5.43115 15.2161 5.43115H3.22766C1.44092 5.43115 0 6.87207 0 8.65882V20.6473C0 22.434 1.44092 23.8749 3.22766 23.8749Z" fill="white"/>
<path d="M3.47851 22.5791H14.3719C15.7263 22.5791 16.8503 21.4552 16.8503 20.1008V9.20739C16.8503 7.85292 15.7263 6.729 14.3719 6.729H3.47851C2.12404 6.729 1.00012 7.85292 1.00012 9.20739V20.1008C1.00012 21.4552 2.12404 22.5791 3.47851 22.5791Z" fill="#F0F0F0"/>
<path d="M138.877 4.88257H22.2485V9.17651H138.877V4.88257Z" fill="#F38844"/>
</svg>
