<svg width="122" height="118" viewBox="0 0 122 118" fill="none" xmlns="http://www.w3.org/2000/svg">
<path d="M63.4658 61.7188H14.6765V113.892H63.4658V61.7188Z" fill="#B0D67D"/>
<path d="M18.6013 61.7188H14.6765V113.892H18.6013V61.7188Z" fill="#82B440"/>
<path d="M63.4595 61.7188H59.5347V113.892H63.4595V61.7188Z" fill="#82B440"/>
<path d="M63.4658 61.7188H14.6765V65.1022H63.4658V61.7188Z" fill="#82B440"/>
<path d="M18.6013 61.7188H14.6765V65.1022H18.6013V61.7188Z" fill="#24775B"/>
<path d="M63.4595 61.7188H59.5347V65.1022H63.4595V61.7188Z" fill="#B0D67D"/>
<path d="M63.4658 56.1025H14.6765V61.7191H63.4658V56.1025Z" fill="#B0D67D"/>
<path d="M65.1512 56.1025H59.5347V61.7191H65.1512V56.1025Z" fill="#82B440"/>
<path d="M18.5319 56.1025H12.9154V61.7191H18.5319V56.1025Z" fill="#82B440"/>
<path d="M30.9869 67.7427H22.5283V78.1637H30.9869V67.7427Z" fill="#82B440"/>
<path d="M30.2434 68.4878H23.2735V77.4201H30.2434V68.4878Z" fill="#4EC8E5"/>
<path d="M44.0469 67.7427H35.5882V78.1637H44.0469V67.7427Z" fill="#82B440"/>
<path d="M43.299 68.4878H36.3291V77.4201H43.299V68.4878Z" fill="#4EC8E5"/>
<path d="M30.9869 82.0225H22.5283V92.4435H30.9869V82.0225Z" fill="#82B440"/>
<path d="M30.2434 82.7632H23.2735V91.6955H30.2434V82.7632Z" fill="#4EC8E5"/>
<path d="M44.0469 82.0225H35.5882V92.4435H44.0469V82.0225Z" fill="#82B440"/>
<path d="M43.299 82.7632H36.3291V91.6955H43.299V82.7632Z" fill="#4EC8E5"/>
<path d="M30.9869 96.3647H22.5283V106.786H30.9869V96.3647Z" fill="#82B440"/>
<path d="M30.2434 97.1099H23.2735V106.042H30.2434V97.1099Z" fill="#4EC8E5"/>
<path d="M44.0469 96.3647H35.5882V106.786H44.0469V96.3647Z" fill="#82B440"/>
<path d="M43.299 97.1099H36.3291V106.042H43.299V97.1099Z" fill="#4EC8E5"/>
<path opacity="0.3" d="M43.3712 74.375V76.6757L42.0178 77.4201H38.093L43.3712 74.375ZM36.3336 87.6381L43.3035 83.578V82.7659H42.6945L36.266 86.4877V87.6381H36.3336ZM36.3336 73.2923V75.593L43.3035 71.5329V69.2322L36.3336 73.2923ZM30.2434 100.834L23.2735 104.894V105.976H23.3412L30.3111 101.984V100.834H30.2434ZM30.2434 76.8111L29.2284 77.4201H30.2434V76.8111ZM30.2434 72.2773V71.1269L23.2735 75.187V76.3374L30.2434 72.2773ZM43.3712 100.834L36.4013 104.894V106.044H38.3637L43.4389 103.134V100.834H43.3712ZM23.2735 72.8186L30.2434 68.7585V68.4878H26.7923L23.2735 70.5179V72.8186ZM36.3336 68.7585L36.875 68.4878H36.3336V68.7585ZM25.5066 97.1118H23.2735V98.3975L25.5066 97.1118ZM36.3336 102.119L43.3035 98.0591V97.0441H41.1381L36.3336 99.8185V102.119ZM36.3336 97.3824V98.5328L38.7697 97.1118H36.8073L36.3336 97.3824ZM30.2434 105.638V103.337L25.642 105.976H29.5668L30.2434 105.638ZM43.3712 86.7584V84.4577L36.4013 88.5178V90.8185L43.3712 86.7584ZM30.2434 84.187V82.7659H28.7547L23.2735 85.9464V88.2471L30.2434 84.187ZM30.2434 91.1569V90.0065L27.266 91.6982H29.2284L30.2434 91.1569ZM23.8826 82.7659H23.2735V83.1043L23.8826 82.7659Z" fill="white"/>
<path d="M107.255 12.5188H47.2322V113.887H107.255V12.5188Z" fill="#B0D67D"/>
<path d="M92.9727 95.2085H61.5743V113.817H92.9727V95.2085Z" fill="#82B440"/>
<path d="M95.4105 93.1768H59.0723V95.2745H95.4105V93.1768Z" fill="#42CCA1"/>
<path d="M51.157 12.5188H47.2322V113.887H51.157V12.5188Z" fill="#82B440"/>
<path d="M107.252 12.5188H103.327V113.887H107.252V12.5188Z" fill="#82B440"/>
<path d="M107.255 12.5188H47.2322V15.9022H107.255V12.5188Z" fill="#82B440"/>
<path d="M51.157 12.5188H47.2322V15.9022H51.157V12.5188Z" fill="#24775B"/>
<path d="M107.252 12.5188H103.327V15.9022H107.252V12.5188Z" fill="#B0D67D"/>
<path d="M107.255 6.90259H47.2322V12.5191H107.255V6.90259Z" fill="#B0D67D"/>
<path d="M108.944 6.90259H103.327V12.5191H108.944V6.90259Z" fill="#82B440"/>
<path d="M51.1542 6.90259H45.5376V12.5191H51.1542V6.90259Z" fill="#82B440"/>
<path d="M97.7784 3.51782H56.7034V7.03661H97.7784V3.51782Z" fill="#7A7A7A"/>
<path d="M59.9515 3.51782H56.7034V7.03661H59.9515V3.51782Z" fill="#606362"/>
<path d="M97.7784 3.51782H94.5303V7.03661H97.7784V3.51782Z" fill="#919191"/>
<path d="M90.8722 0H63.6016V3.51878H90.8722V0Z" fill="#919191"/>
<path d="M68.4737 0H63.6016V3.51878H68.4737V0Z" fill="#7A7A7A"/>
<path d="M90.8762 0H86.004V3.51878H90.8762V0Z" fill="#AAAAAA"/>
<path d="M87.6337 99.0049H66.927V113.892H87.6337V99.0049Z" fill="#247258"/>
<path d="M71.8622 113.825H67.7344V99.75H71.8622V113.825ZM76.802 99.75H72.6742V113.825H76.802V99.75ZM81.8095 99.75H77.6817V113.825H81.8095V99.75ZM86.817 99.75H82.6215V113.825H86.7493V99.75H86.817Z" fill="#4EC8E5"/>
<path d="M65.1648 19.1543H56.7061V37.3572H65.1648V19.1543Z" fill="#82B440"/>
<path d="M64.4213 19.8997H57.4514V36.6816H64.4213V19.8997Z" fill="#4EC8E5"/>
<path d="M76.193 19.1543H67.7344V37.3572H76.193V19.1543Z" fill="#82B440"/>
<path d="M75.4495 19.8997H68.4796V36.6816H75.4495V19.8997Z" fill="#4EC8E5"/>
<path d="M87.2256 19.1543H78.767V37.3572H87.2256V19.1543Z" fill="#82B440"/>
<path d="M86.4778 19.8997H79.5079V36.6816H86.4778V19.8997Z" fill="#4EC8E5"/>
<path d="M98.2539 19.1543H89.7953V37.3572H98.2539V19.1543Z" fill="#82B440"/>
<path d="M97.5104 19.8997H90.5405V36.6816H97.5104V19.8997Z" fill="#4EC8E5"/>
<path d="M65.1648 40.8779H56.7061V59.0809H65.1648V40.8779Z" fill="#82B440"/>
<path d="M64.4213 41.6187H57.4514V58.4006H64.4213V41.6187Z" fill="#4EC8E5"/>
<path d="M76.193 40.8779H67.7344V59.0809H76.193V40.8779Z" fill="#82B440"/>
<path d="M75.4495 41.6187H68.4796V58.4006H75.4495V41.6187Z" fill="#4EC8E5"/>
<path d="M87.2256 40.8779H78.767V59.0809H87.2256V40.8779Z" fill="#82B440"/>
<path d="M86.4778 41.6187H79.5079V58.4006H86.4778V41.6187Z" fill="#4EC8E5"/>
<path d="M98.2539 40.8779H89.7953V59.0809H98.2539V40.8779Z" fill="#82B440"/>
<path d="M97.5104 41.6187H90.5405V58.4006H97.5104V41.6187Z" fill="#4EC8E5"/>
<path d="M65.1648 62.5308H56.7061V80.7337H65.1648V62.5308Z" fill="#82B440"/>
<path d="M64.4213 63.2715H57.4514V80.0534H64.4213V63.2715Z" fill="#4EC8E5"/>
<path d="M76.193 62.5308H67.7344V80.7337H76.193V62.5308Z" fill="#82B440"/>
<path d="M75.4495 63.2715H68.4796V80.0534H75.4495V63.2715Z" fill="#4EC8E5"/>
<path d="M87.2256 62.5308H78.767V80.7337H87.2256V62.5308Z" fill="#82B440"/>
<path d="M86.4778 63.2715H79.5079V80.0534H86.4778V63.2715Z" fill="#4EC8E5"/>
<path d="M98.2539 62.5308H89.7953V80.7337H98.2539V62.5308Z" fill="#82B440"/>
<path d="M97.5104 63.2715H90.5405V80.0534H97.5104V63.2715Z" fill="#4EC8E5"/>
<path d="M65.1648 84.25H56.7061V90.2725H65.1648V84.25Z" fill="#82B440"/>
<path d="M64.4213 84.9956H57.4514V89.5294H64.4213V84.9956Z" fill="#4EC8E5"/>
<path d="M76.193 84.25H67.7344V90.2725H76.193V84.25Z" fill="#82B440"/>
<path d="M75.4495 84.9956H68.4796V89.5294H75.4495V84.9956Z" fill="#4EC8E5"/>
<path d="M87.2256 84.25H78.767V90.2725H87.2256V84.25Z" fill="#82B440"/>
<path d="M86.4778 84.9956H79.5079V89.5294H86.4778V84.9956Z" fill="#4EC8E5"/>
<path d="M98.2539 84.25H89.7953V90.2725H98.2539V84.25Z" fill="#82B440"/>
<path d="M97.5104 84.9956H90.5405V89.5294H97.5104V84.9956Z" fill="#4EC8E5"/>
<path opacity="0.3" d="M79.5126 65.6449L83.5727 63.2765H79.5126V65.6449ZM64.4224 29.442L57.4525 33.5021V36.6826H57.5202L64.4224 32.6901V29.442ZM90.5426 68.4193L97.5125 64.3592V63.2765H96.6328L90.5426 66.7952V68.4193ZM75.4525 20.7127V19.9007H71.257L68.4149 21.5247V24.7728L75.4525 20.7127ZM90.5426 54.2088L97.5125 50.1487V48.5246L90.5426 52.5848V54.2088ZM79.5126 74.7802L86.4825 70.72V69.1637L79.5126 73.2238V74.7802ZM90.5426 50.7577L97.5125 46.6976V45.0735L90.5426 49.1337V50.7577ZM80.5276 58.3366H83.3697L86.4825 56.5096V54.9532L80.5276 58.3366ZM96.0238 36.6826L97.5125 35.8029V34.1788L93.1817 36.6826H96.0238ZM86.4825 53.0585V51.4344L79.5126 55.4945V57.1186L86.4825 53.0585ZM86.4825 42.1638V41.5547H84.6554L79.4449 44.5322V46.1562L86.4825 42.1638ZM79.5126 42.9758L81.881 41.6224H79.5126V42.9758ZM90.5426 36.6149L97.5125 32.5548V30.9307L90.5426 34.9908V36.6149ZM57.4525 25.8555L64.4224 21.7954V19.9007H62.054L57.3849 22.6074V25.8555H57.4525ZM72.678 101.374L75.4525 99.8177H72.678V101.374ZM64.4224 53.2615L57.4525 57.3216V58.3366H58.4676L64.4224 54.8855V53.2615ZM76.8058 105.367V103.742L72.678 106.111V107.735L76.8058 105.367ZM71.866 110.78L67.7382 113.148V113.893H71.866V110.78ZM64.4224 71.0584L57.4525 75.1185V78.3666L64.4224 74.3065V71.0584ZM86.4825 84.9982H85.8735L79.5126 88.72V89.5997H83.6404L86.5502 87.908V84.9982H86.4825ZM90.5426 85.5395L91.5577 84.9982H90.5426V85.5395ZM75.4525 75.5245L68.4826 79.5847V80.0584H70.445L75.5201 77.1486V75.5245H75.4525ZM90.5426 89.4643V89.532H93.1817L97.5125 87.0283V85.4042L90.5426 89.4643ZM86.8209 102.118L82.6931 104.487V107.735L86.8209 105.367V102.118ZM81.8134 100.833L77.6855 103.201V104.825L81.8134 102.457V100.833ZM81.8134 108.209V104.961L77.6855 107.329V110.577L81.8134 108.209ZM82.6254 100.359V101.983L86.4825 99.75H83.6404L82.6254 100.359ZM64.4224 65.7802V64.1562L57.4525 68.2163V69.8404L64.4224 65.7802ZM64.4224 69.299V67.6749L57.4525 71.7351V73.3591L64.4224 69.299ZM61.9187 84.9982H59.0766L57.4525 85.9456V87.5696L61.9187 84.9982ZM90.5426 29.7803V33.0284L97.5125 28.9683V25.7202L90.5426 29.7803ZM75.4525 85.1335V84.9982H72.8811L68.4149 87.5696V89.1937L75.4525 85.1335ZM64.4224 51.6374V50.0134L57.4525 54.0735V55.6975L64.4224 51.6374ZM64.4224 27.0736V23.8255L57.4525 27.8856V31.1337L64.4224 27.0736ZM71.866 101.848V100.224L67.7382 102.592V104.216L71.866 101.848ZM76.8058 113.554L76.1968 113.893H76.8058V113.554ZM90.5426 56.0359V58.4043H92.099L97.5125 55.2915V52.0434L90.5426 56.0359ZM86.8209 107.735L82.6931 110.103V111.727L86.8209 109.359V107.735ZM81.8134 110.645L77.6855 113.013V113.825H79.0389L81.8134 112.201V110.645ZM76.8058 107.87L72.678 110.239V113.487L76.8058 111.118V107.87ZM71.866 108.209V106.585L67.7382 108.953V110.577L71.866 108.209ZM64.4224 44.8028L57.4525 48.863V52.1111L64.4224 48.051V44.8028ZM90.5426 74.7802V76.4042L97.5125 72.3441V70.72L90.5426 74.7802ZM79.5126 36.1412V36.6826H84.1818L86.4825 35.3292V32.0811L79.5126 36.1412ZM75.4525 45.2765V43.6525L68.4826 47.7126V49.3367L75.4525 45.2765ZM75.4525 48.5246V46.9006L68.4826 50.9607V52.5848L75.4525 48.5246ZM80.9337 19.9007L79.5126 20.7127V23.9608L86.4825 19.9007V19.833H80.9337V19.9007ZM75.4525 26.3292V23.0811L68.4826 27.1413V30.3894L75.4525 26.3292ZM75.4525 41.6224H69.9713L68.4149 42.5021V45.7502L75.3848 41.6901V41.6224H75.4525ZM86.4825 78.7726V77.1486L81.4073 80.0584H84.2494L86.4825 78.7726ZM75.4525 67.9456V64.6975L68.4826 68.7576V72.0058L75.4525 67.9456ZM75.4525 57.7953L74.5051 58.3366H75.4525V57.7953ZM94.3998 80.0584H97.5125V78.2313L94.3998 80.0584ZM74.8435 63.2765H72.0014L68.4149 65.3065V66.9306L74.8435 63.2765ZM68.8209 63.2765H68.4826V63.4795L68.8209 63.2765Z" fill="white"/>
<path d="M120.721 117.208H1.15037C0.812025 117.208 0.541352 117.073 0.338345 116.87C0.135338 116.667 0 116.396 0 116.058V112.742C0 112.404 0.135338 112.133 0.338345 111.93C0.541352 111.727 0.812025 111.592 1.15037 111.592H120.721C120.992 111.592 121.263 111.659 121.466 111.862C121.736 112.065 121.872 112.404 121.872 112.742V113.825V116.058C121.872 116.464 121.601 116.87 121.263 117.073C121.06 117.141 120.924 117.208 120.721 117.208Z" fill="#606362"/>
<path d="M120.72 113.826H1.14925C0.87857 113.826 0.607894 113.758 0.472556 113.555C0.20188 113.352 0.0665436 113.014 0.0665436 112.676C0.0665436 112.337 0.201881 112.067 0.404888 111.864C0.607895 111.661 0.878571 111.525 1.21692 111.525H120.788C121.059 111.525 121.329 111.593 121.532 111.796C121.803 111.999 121.938 112.337 121.938 112.676C121.938 112.879 121.871 113.082 121.803 113.285C121.465 113.623 121.126 113.826 120.72 113.826Z" fill="#919191"/>
</svg>
