<svg width="46" height="46" viewBox="0 0 46 46" fill="none" xmlns="http://www.w3.org/2000/svg">
<path d="M23 29.4688C27.3665 29.4688 30.9062 25.929 30.9062 21.5625C30.9062 17.196 27.3665 13.6562 23 13.6562C18.6335 13.6562 15.0938 17.196 15.0938 21.5625C15.0938 25.929 18.6335 29.4688 23 29.4688Z" fill="#82B53F"/>
<path d="M23 4.3125C19.304 4.3125 15.6909 5.4085 12.6178 7.46191C9.54465 9.51532 7.14942 12.4339 5.73501 15.8486C4.3206 19.2633 3.95052 23.0207 4.67158 26.6458C5.39264 30.2708 7.17246 33.6006 9.78595 36.2141C12.3994 38.8276 15.7292 40.6074 19.3543 41.3284C22.9793 42.0495 26.7367 41.6794 30.1514 40.265C33.5661 38.8506 36.4847 36.4554 38.5381 33.3822C40.5915 30.3091 41.6875 26.696 41.6875 23C41.678 18.0467 39.7061 13.299 36.2036 9.79643C32.701 6.2939 27.9533 4.322 23 4.3125V4.3125ZM34.8234 33.4937C33.6598 31.8246 32.1604 30.4169 30.4211 29.3609C28.4242 31.2741 25.7655 32.3421 23 32.3421C20.2345 32.3421 17.5759 31.2741 15.5789 29.3609C13.8397 30.4169 12.3402 31.8246 11.1766 33.4937C9.15289 31.2149 7.83088 28.3998 7.36964 25.3872C6.9084 22.3746 7.32759 19.2929 8.57676 16.513C9.82593 13.7331 11.8519 11.3734 14.4107 9.7179C16.9696 8.0624 19.9523 7.18166 23 7.18166C26.0477 7.18166 29.0305 8.0624 31.5893 9.7179C34.1482 11.3734 36.1741 13.7331 37.4233 16.513C38.6724 19.2929 39.0916 22.3746 38.6304 25.3872C38.1691 28.3998 36.8471 31.2149 34.8234 33.4937Z" fill="#82B53F"/>
</svg>
