<svg width="19" height="19" viewBox="0 0 19 19" fill="none" xmlns="http://www.w3.org/2000/svg">
<path d="M17.1568 1.15854C17.0694 1.04681 16.9393 0.969606 16.7927 0.942402C16.646 0.915199 16.4936 0.940006 16.366 1.01185L13.4457 2.66282C13.1307 2.84088 12.887 3.10814 12.751 3.42451C12.6151 3.74087 12.5943 4.08928 12.6917 4.41746L12.9691 5.35543L13.1177 5.85897C13.2596 6.3405 13.2858 6.84469 13.1944 7.33646L13.1829 7.39288C12.9959 8.2316 12.4773 8.97657 11.7275 9.48342C10.9777 9.99027 10.0502 10.2229 9.12464 10.1362C8.19912 10.0496 7.34151 9.64975 6.71802 9.0143C6.09453 8.37885 5.74956 7.553 5.74996 6.6968C5.74996 6.61781 5.74996 6.53953 5.75839 6.46196C5.75839 6.44926 5.75839 6.43727 5.75839 6.42458C5.77945 6.23393 5.81764 6.04522 5.87256 5.86038L5.98061 5.49578L6.30015 4.41605C6.39759 4.08787 6.37677 3.73946 6.24082 3.4231C6.10487 3.10673 5.86111 2.83947 5.54613 2.66141L2.6335 1.01185C2.506 0.940048 2.35372 0.915265 2.20719 0.942471C2.06067 0.969676 1.93074 1.04686 1.84346 1.15854C-0.249251 3.82435 -0.732774 7.54309 1.2948 10.7766L4.2833 15.5391L6.04574 18.3474C6.09789 18.4305 6.17303 18.4995 6.26352 18.5472C6.35401 18.595 6.45663 18.6198 6.56093 18.6193C6.66524 18.6187 6.76753 18.5927 6.85739 18.544C6.94725 18.4952 7.02149 18.4255 7.07256 18.3417L8.93922 15.281V15.281C8.96826 15.2341 8.99225 15.1843 9.0108 15.1324L9.21815 14.5518C9.27275 14.3999 9.29324 14.2393 9.27835 14.0799C9.26347 13.9205 9.21352 13.7655 9.13156 13.6244L8.99746 13.3938C8.98979 13.3825 8.9829 13.3705 8.976 13.3585L8.94995 13.312L8.93922 13.2936L8.46106 12.441C8.42208 12.3724 8.39953 12.2968 8.39495 12.2195C8.39037 12.1422 8.40386 12.0649 8.4345 11.9928C8.46515 11.9206 8.51224 11.8554 8.57261 11.8015C8.63297 11.7475 8.7052 11.7061 8.78443 11.68C9.24879 11.5305 9.75455 11.5305 10.2189 11.68C10.298 11.7063 10.3701 11.7478 10.4303 11.8018C10.4905 11.8558 10.5374 11.921 10.568 11.9931C10.5985 12.0652 10.612 12.1424 10.6074 12.2197C10.6029 12.2969 10.5804 12.3724 10.5415 12.441L10.0496 13.3176L10.0258 13.3599C10.0043 13.3964 9.97859 13.4307 9.94918 13.4622L9.85416 13.6258C9.77219 13.7669 9.72225 13.9219 9.70736 14.0813C9.69248 14.2407 9.71296 14.4013 9.76757 14.5532L9.97451 15.1318C9.98414 15.1587 9.99737 15.1843 10.0128 15.2084V15.2084L10.022 15.2232L10.0465 15.2634L11.9254 18.3439C11.9766 18.4276 12.0509 18.4973 12.1408 18.546C12.2308 18.5947 12.3331 18.6207 12.4374 18.6213C12.5418 18.6219 12.6444 18.597 12.735 18.5493C12.8255 18.5016 12.9007 18.4326 12.953 18.3495L14.7154 15.5412L17.7039 10.7787C19.733 7.54309 19.2495 3.82435 17.1568 1.15854Z" fill="#82B53F"/>
</svg>
