<svg width="11" height="4" viewBox="0 0 11 4" fill="none" xmlns="http://www.w3.org/2000/svg">
<path d="M3.76111 3.50077C3.86842 3.55907 3.99225 3.58867 4.11788 3.58605C4.2435 3.58342 4.36564 3.54868 4.46977 3.48595C4.77557 3.30154 5.13627 3.20298 5.50542 3.20298C5.87457 3.20298 6.23527 3.30154 6.54107 3.48595C6.63342 3.54191 6.7419 3.57294 6.85352 3.57531C6.96514 3.57769 7.07516 3.55131 7.1704 3.49933L10.2034 1.84767C10.2046 1.84699 10.2056 1.84599 10.2062 1.84478C10.2068 1.84358 10.2069 1.84225 10.2066 1.84097C10.1924 1.76428 10.1508 1.69371 10.0881 1.63971C8.9032 0.611454 7.32308 0.0250163 5.66999 0C5.61638 0 5.55795 0 5.50221 0C5.44646 0 5.39017 0 5.33388 0C3.68146 0.0242795 2.10168 0.609875 0.916822 1.63732C0.843355 1.70031 0.799151 1.71179 0.792994 1.80251C0.792875 1.80369 0.793173 1.87872 0.793845 1.87975C0.794517 1.88078 0.795531 1.88159 0.796747 1.88209L3.76111 3.50077Z" fill="#F38844"/>
</svg>
