<svg width="5" height="5" viewBox="0 0 5 5" fill="none" xmlns="http://www.w3.org/2000/svg">
<path d="M1.82833 1.24281L1.02743 2.51494C0.963502 2.61563 0.930525 2.72891 0.931669 2.84387C0.932814 2.95883 0.968041 3.0716 1.03396 3.17132L2.06027 4.71375C2.10466 4.77985 2.16824 4.83468 2.24467 4.8728C2.3211 4.91091 2.4077 4.93097 2.49584 4.93097C2.58399 4.93097 2.67059 4.91091 2.74702 4.8728C2.82345 4.83468 2.88703 4.77985 2.93142 4.71375L3.9659 3.16092C4.0323 3.06141 4.06799 2.94871 4.06952 2.83373C4.07105 2.71874 4.03835 2.60535 3.97461 2.50454L3.18024 1.24281C3.11353 1.1379 3.01564 1.05044 2.89675 0.989525C2.77787 0.928614 2.64234 0.896484 2.50428 0.896484C2.36623 0.896484 2.2307 0.928614 2.11181 0.989525C1.99293 1.05044 1.89503 1.1379 1.82833 1.24281V1.24281Z" fill="#F38844"/>
</svg>
