<svg width="6" height="3" viewBox="0 0 6 3" fill="none" xmlns="http://www.w3.org/2000/svg">
<path d="M1.73794 2.01295C1.79965 2.04648 1.87085 2.0635 1.94309 2.06199C2.01532 2.06048 2.08555 2.0405 2.14542 2.00443C2.32126 1.8984 2.52866 1.84173 2.74093 1.84173C2.95319 1.84173 3.1606 1.8984 3.33643 2.00443C3.38953 2.03661 3.45191 2.05445 3.51609 2.05582C3.58027 2.05718 3.64354 2.04201 3.6983 2.01213L5.44227 1.06242C5.44299 1.06203 5.44356 1.06145 5.44389 1.06076C5.44422 1.06007 5.4443 1.0593 5.44412 1.05857C5.43594 1.01447 5.41205 0.973891 5.376 0.942842C4.69467 0.351588 3.78609 0.0143845 2.83556 0C2.80473 0 2.77113 0 2.73908 0C2.70702 0 2.67466 0 2.64229 0C1.69214 0.0139608 0.783765 0.350681 0.102466 0.941468C0.0602225 0.977683 0.0348049 0.984287 0.0312647 1.03645C0.0311963 1.03713 0.0313673 1.08027 0.0317539 1.08086C0.0321404 1.08146 0.0327235 1.08192 0.0334223 1.08221L1.73794 2.01295Z" fill="#F38844"/>
</svg>
