<svg width="13" height="13" viewBox="0 0 13 13" fill="none" xmlns="http://www.w3.org/2000/svg">
<path d="M11.7389 0.844701C11.6791 0.768252 11.5901 0.715429 11.4897 0.696817C11.3894 0.678204 11.2851 0.695177 11.1978 0.744334L9.1997 1.87394C8.98418 1.99577 8.8174 2.17864 8.72439 2.3951C8.63137 2.61156 8.61712 2.84995 8.68379 3.07449L8.87359 3.71626L8.9753 4.06079C9.07236 4.39025 9.09026 4.73522 9.02773 5.0717L9.01986 5.1103C8.89193 5.68416 8.53707 6.19388 8.02406 6.54067C7.51105 6.88746 6.87643 7.04663 6.24317 6.98733C5.60992 6.92803 5.02314 6.65448 4.59654 6.21969C4.16994 5.78491 3.93391 5.21986 3.93418 4.63404C3.93418 4.57999 3.93418 4.52643 3.93995 4.47335C3.93995 4.46467 3.93995 4.45646 3.93995 4.44778C3.95436 4.31734 3.98049 4.18822 4.01807 4.06175L4.092 3.81228L4.31063 3.07352C4.3773 2.84898 4.36305 2.61059 4.27003 2.39413C4.17701 2.17767 4.01023 1.99481 3.79472 1.87298L1.80187 0.744334C1.71463 0.695206 1.61044 0.678249 1.51018 0.696863C1.40993 0.715478 1.32103 0.768287 1.26132 0.844701C-0.17054 2.66868 -0.501371 5.21308 0.885919 7.42549L2.93068 10.684L4.13656 12.6055C4.17224 12.6624 4.22365 12.7096 4.28557 12.7422C4.34748 12.7749 4.41769 12.7919 4.48906 12.7915C4.56043 12.7911 4.63041 12.7733 4.6919 12.74C4.75338 12.7066 4.80418 12.6589 4.83912 12.6016L6.11631 10.5074V10.5074C6.13618 10.4754 6.15259 10.4413 6.16528 10.4057L6.30715 10.0085C6.34451 9.90456 6.35853 9.79471 6.34834 9.68563C6.33816 9.57655 6.30399 9.47052 6.24791 9.37396L6.15615 9.21618C6.15091 9.20846 6.14619 9.20025 6.14147 9.19205L6.12365 9.1602L6.11631 9.14766L5.78915 8.56427C5.76247 8.51732 5.74705 8.46565 5.74391 8.41274C5.74078 8.35984 5.75001 8.30693 5.77098 8.25759C5.79195 8.20824 5.82417 8.16361 5.86547 8.1267C5.90677 8.08979 5.95619 8.06146 6.0104 8.04362C6.32812 7.9413 6.67417 7.9413 6.99188 8.04362C7.04599 8.06158 7.0953 8.08998 7.13649 8.12692C7.17769 8.16387 7.20982 8.20849 7.23073 8.25781C7.25164 8.30713 7.26084 8.35999 7.25771 8.41285C7.25459 8.4657 7.23921 8.51734 7.21261 8.56427L6.87601 9.16406L6.85976 9.19301C6.84503 9.21798 6.82746 9.24144 6.80733 9.26298L6.74232 9.37493C6.68624 9.47148 6.65206 9.57752 6.64188 9.6866C6.63169 9.79567 6.64571 9.90552 6.68307 10.0095L6.82466 10.4054C6.83125 10.4238 6.84031 10.4412 6.85085 10.4577V10.4577L6.85714 10.4679L6.87392 10.4954L8.15949 12.6031C8.19451 12.6603 8.24536 12.7081 8.30688 12.7414C8.36841 12.7747 8.43842 12.7925 8.50982 12.7929C8.58121 12.7933 8.65145 12.7763 8.7134 12.7436C8.77536 12.711 8.82682 12.6638 8.86258 12.6069L10.0685 10.6855L12.1132 7.42694C13.5016 5.21308 13.1707 2.66868 11.7389 0.844701Z" fill="#82B53F"/>
</svg>
