<svg width="8" height="8" viewBox="0 0 8 8" fill="none" xmlns="http://www.w3.org/2000/svg">
<path d="M6.7499 0.636143C6.7155 0.592185 6.66433 0.561811 6.60664 0.551109C6.54894 0.540407 6.48898 0.550166 6.43878 0.578432L5.28986 1.22796C5.16594 1.29801 5.07004 1.40316 5.01656 1.52763C4.96307 1.65209 4.95488 1.78917 4.99321 1.91828L5.10235 2.2873L5.16083 2.4854C5.21664 2.67485 5.22693 2.87321 5.19098 3.06668L5.18646 3.08888C5.11289 3.41885 4.90885 3.71194 4.61386 3.91135C4.31888 4.11075 3.95397 4.20228 3.58985 4.16818C3.22573 4.13408 2.88832 3.97679 2.64303 3.72678C2.39773 3.47678 2.26201 3.15187 2.26217 2.81503C2.26217 2.78395 2.26217 2.75315 2.26549 2.72263C2.26549 2.71764 2.26549 2.71292 2.26549 2.70793C2.27377 2.63292 2.2888 2.55868 2.31041 2.48596L2.35291 2.34251L2.47863 1.91772C2.51696 1.78861 2.50877 1.65154 2.45529 1.52707C2.4018 1.40261 2.3059 1.29746 2.18198 1.22741L1.03608 0.578432C0.985918 0.550183 0.926007 0.540432 0.868362 0.551136C0.810716 0.561839 0.759599 0.592205 0.725261 0.636143C-0.0980611 1.68494 -0.28829 3.14798 0.509407 4.42012L1.68515 6.2938L2.37854 7.39864C2.39906 7.43135 2.42862 7.45848 2.46422 7.47727C2.49982 7.49606 2.54019 7.50583 2.58123 7.50561C2.62226 7.50538 2.6625 7.49516 2.69786 7.47598C2.73321 7.45681 2.76242 7.42936 2.78251 7.39642L3.5169 6.19225V6.19225C3.52832 6.17381 3.53776 6.1542 3.54506 6.13377L3.62664 5.90536C3.64812 5.84559 3.65618 5.78243 3.65032 5.71971C3.64447 5.65699 3.62482 5.59602 3.59257 5.5405L3.53981 5.44977C3.5368 5.44533 3.53408 5.44062 3.53137 5.4359L3.52112 5.41759L3.5169 5.41037L3.32878 5.07493C3.31344 5.04793 3.30457 5.01822 3.30277 4.9878C3.30097 4.95738 3.30628 4.92695 3.31833 4.89858C3.33039 4.87021 3.34892 4.84454 3.37267 4.82332C3.39642 4.8021 3.42483 4.78581 3.456 4.77555C3.63869 4.71672 3.83767 4.71672 4.02036 4.77555C4.05147 4.78587 4.07982 4.80221 4.10351 4.82345C4.1272 4.84469 4.14568 4.87035 4.1577 4.89871C4.16972 4.92707 4.17501 4.95746 4.17321 4.98786C4.17142 5.01825 4.16257 5.04794 4.14728 5.07493L3.95373 5.41981L3.94439 5.43646C3.93592 5.45081 3.92581 5.4643 3.91424 5.47669L3.87686 5.54106C3.84461 5.59657 3.82496 5.65754 3.81911 5.72027C3.81325 5.78299 3.82131 5.84615 3.84279 5.90592L3.92421 6.13356C3.928 6.14415 3.9332 6.15419 3.93926 6.16367V6.16367L3.94288 6.1695L3.95253 6.18532L4.69174 7.39726C4.71187 7.43018 4.74111 7.45762 4.77649 7.47679C4.81187 7.49596 4.85212 7.50618 4.89318 7.5064C4.93423 7.50663 4.97462 7.49685 5.01024 7.47807C5.04586 7.4593 5.07546 7.43218 5.09602 7.39948L5.7894 6.29463L6.96515 4.42096C7.76345 3.14798 7.57322 1.68494 6.7499 0.636143Z" fill="#82B53F"/>
</svg>
