<svg width="15" height="6" viewBox="0 0 15 6" fill="none" xmlns="http://www.w3.org/2000/svg">
<path d="M4.95915 5.1165C5.11599 5.20172 5.29697 5.24498 5.48058 5.24114C5.66418 5.2373 5.84269 5.18653 5.99488 5.09484C6.44182 4.82532 6.96899 4.68129 7.50852 4.68129C8.04805 4.68129 8.57523 4.82532 9.02217 5.09484C9.15714 5.17664 9.31569 5.22199 9.47883 5.22546C9.64196 5.22893 9.80276 5.19037 9.94195 5.11441L14.3748 2.70044C14.3766 2.69945 14.378 2.69798 14.3789 2.69622C14.3797 2.69447 14.3799 2.69252 14.3795 2.69065C14.3587 2.57856 14.298 2.47543 14.2063 2.39651C12.4745 0.893663 10.1651 0.0365623 7.74905 0C7.6707 0 7.5853 0 7.50382 0C7.42234 0 7.34008 0 7.25782 0C4.84274 0.0354854 2.53383 0.891356 0.80211 2.39301C0.694736 2.48506 0.630129 2.50185 0.621131 2.63443C0.620957 2.63617 0.621392 2.74583 0.622374 2.74733C0.623357 2.74883 0.624839 2.75002 0.626615 2.75074L4.95915 5.1165Z" fill="#F38844"/>
</svg>
