<svg width="54" height="54" viewBox="0 0 54 54" fill="none" xmlns="http://www.w3.org/2000/svg">
<path d="M0.842844 27.0085C0.840093 21.8335 2.37231 16.774 5.24565 12.47C8.119 8.16606 12.2044 4.81102 16.9849 2.82938C21.7654 0.847733 27.0263 0.328521 32.1019 1.33743C37.1776 2.34635 41.84 4.83804 45.4993 8.4973C49.1585 12.1566 51.6502 16.8189 52.6591 21.8946C53.668 26.9703 53.1488 32.2312 51.1672 37.0117C49.1855 41.7922 45.8305 45.8776 41.5265 48.7509C37.2225 51.6242 32.163 53.1565 26.9881 53.1537C23.5542 53.1552 20.1537 52.4799 16.981 51.1665C13.8082 49.8531 10.9254 47.9274 8.4973 45.4993C6.0692 43.0711 4.14342 40.1883 2.83002 37.0156C1.51663 33.8428 0.841367 30.4424 0.842844 27.0085V27.0085ZM24.1423 36.9686C24.5197 37.3459 25.0315 37.558 25.5652 37.558C26.0989 37.558 26.6107 37.3459 26.9881 36.9686C27.3654 36.5912 27.5774 36.0794 27.5774 35.5457C27.5774 35.012 27.3654 34.5002 26.9881 34.1228L21.8835 29.0183L36.9481 29.0361C37.4813 29.0191 37.9888 28.8034 38.371 28.4314C38.7472 28.0519 38.9637 27.5427 38.9757 27.0085C38.9731 26.4715 38.7587 25.9573 38.379 25.5776C37.9993 25.1979 37.4851 24.9835 36.9481 24.9809L21.8835 24.9987L26.9881 19.8942C27.3654 19.5168 27.5774 19.005 27.5774 18.4713C27.5774 17.9376 27.3654 17.4258 26.9881 17.0484C26.6107 16.6711 26.0989 16.459 25.5652 16.459C25.0315 16.459 24.5197 16.6711 24.1423 17.0484L15.6051 25.5856C15.4214 25.7684 15.2763 25.9861 15.1782 26.2259C14.969 26.7193 14.9627 27.2752 15.1605 27.7733C15.2663 28.0185 15.4171 28.2417 15.6051 28.4314L24.1423 36.9686Z" fill="white"/>
</svg>
