<svg width="5" height="7" viewBox="0 0 5 7" fill="none" xmlns="http://www.w3.org/2000/svg">
<path d="M1.51758 0.816713L0.347024 2.67598C0.253598 2.82314 0.205401 2.98871 0.207073 3.15673C0.208746 3.32475 0.260232 3.48956 0.356574 3.63531L1.85657 5.88963C1.92145 5.98623 2.01437 6.06638 2.12607 6.12208C2.23777 6.17779 2.36435 6.2071 2.49318 6.2071C2.622 6.2071 2.74858 6.17779 2.86028 6.12208C2.97198 6.06638 3.0649 5.98623 3.12978 5.88963L4.64171 3.62011C4.73877 3.47467 4.79093 3.30996 4.79316 3.1419C4.79539 2.97384 4.74761 2.80812 4.65445 2.66078L3.49344 0.816713C3.39595 0.663386 3.25288 0.535554 3.07912 0.44653C2.90536 0.357505 2.70728 0.310547 2.50551 0.310547C2.30374 0.310547 2.10566 0.357505 1.9319 0.44653C1.75814 0.535554 1.61507 0.663386 1.51758 0.816713V0.816713Z" fill="#F38844"/>
</svg>
