<svg width="54" height="54" viewBox="0 0 54 54" fill="none" xmlns="http://www.w3.org/2000/svg">
<path d="M53.1532 27.0085C53.156 21.8335 51.6238 16.774 48.7504 12.47C45.8771 8.16606 41.7917 4.81102 37.0112 2.82938C32.2307 0.847733 26.9698 0.328521 21.8942 1.33743C16.8185 2.34635 12.1561 4.83804 8.49684 8.4973C4.83758 12.1566 2.34588 16.8189 1.33697 21.8946C0.32806 26.9703 0.847273 32.2312 2.82892 37.0117C4.81057 41.7922 8.1656 45.8776 12.4696 48.7509C16.7736 51.6242 21.8331 53.1565 27.008 53.1537C30.4419 53.1552 33.8424 52.4799 37.0151 51.1665C40.1879 49.8531 43.0707 47.9274 45.4988 45.4993C47.9269 43.0711 49.8527 40.1883 51.1661 37.0156C52.4795 33.8428 53.1547 30.4424 53.1532 27.0085V27.0085ZM29.8538 36.9686C29.4764 37.3459 28.9646 37.558 28.4309 37.558C27.8972 37.558 27.3854 37.3459 27.008 36.9686C26.6307 36.5912 26.4187 36.0794 26.4187 35.5457C26.4187 35.012 26.6307 34.5002 27.008 34.1228L32.1126 29.0183L17.048 29.0361C16.5148 29.0191 16.0073 28.8034 15.6251 28.4314C15.2489 28.0519 15.0324 27.5427 15.0204 27.0085C15.0229 26.4715 15.2374 25.9573 15.6171 25.5776C15.9968 25.1979 16.511 24.9835 17.048 24.9809L32.1126 24.9987L27.008 19.8942C26.6307 19.5168 26.4187 19.005 26.4187 18.4713C26.4187 17.9376 26.6307 17.4258 27.008 17.0484C27.3854 16.6711 27.8972 16.459 28.4309 16.459C28.9646 16.459 29.4764 16.6711 29.8538 17.0484L38.391 25.5856C38.5747 25.7684 38.7198 25.9861 38.8178 26.2259C39.027 26.7193 39.0334 27.2752 38.8356 27.7733C38.7298 28.0185 38.579 28.2417 38.391 28.4314L29.8538 36.9686Z" fill="white"/>
</svg>
