<svg width="3" height="4" viewBox="0 0 3 4" fill="none" xmlns="http://www.w3.org/2000/svg">
<path d="M1.35154 1.18937L0.891014 1.92085C0.854258 1.97875 0.835296 2.04389 0.835954 2.10999C0.836612 2.17609 0.856868 2.24094 0.894771 2.29827L1.48491 3.18518C1.51043 3.22318 1.54699 3.25471 1.59093 3.27663C1.63488 3.29854 1.68468 3.31008 1.73536 3.31008C1.78604 3.31008 1.83584 3.29854 1.87979 3.27663C1.92373 3.25471 1.96029 3.22318 1.98582 3.18518L2.58065 2.2923C2.61883 2.23508 2.63935 2.17027 2.64023 2.10416C2.64111 2.03804 2.62231 1.97284 2.58566 1.91487L2.12889 1.18937C2.09053 1.12905 2.03424 1.07876 1.96588 1.04373C1.89752 1.00871 1.8196 0.990234 1.74021 0.990234C1.66083 0.990234 1.5829 1.00871 1.51454 1.04373C1.44618 1.07876 1.38989 1.12905 1.35154 1.18937V1.18937Z" fill="#F38844"/>
</svg>
